<?xml version="1.0" encoding="utf-8"?>
<!-- Generated by IcoMoon.io -->
<!DOCTYPE svg PUBLIC "-//W3C//DTD SVG 1.1//EN" "http://www.w3.org/Graphics/SVG/1.1/DTD/svg11.dtd">
<svg version="1.1" xmlns="http://www.w3.org/2000/svg" xmlns:xlink="http://www.w3.org/1999/xlink" width="30" height="32" viewBox="0 0 30 32">
<g>
</g>
	<path d="M28.768 17.339q0 0.911-0.661 1.607l-1.339 1.339q-0.679 0.679-1.625 0.679-0.964 0-1.607-0.679l-5.25-5.232v12.571q0 0.929-0.67 1.509t-1.616 0.58h-2.286q-0.946 0-1.616-0.58t-0.67-1.509v-12.571l-5.25 5.232q-0.643 0.679-1.607 0.679t-1.607-0.679l-1.339-1.339q-0.679-0.679-0.679-1.607 0-0.946 0.679-1.625l11.625-11.625q0.625-0.661 1.607-0.661 0.964 0 1.625 0.661l11.625 11.625q0.661 0.696 0.661 1.625z" fill="#cccccc" />
</svg>
