<?xml version="1.0" encoding="utf-8"?>
<!-- Generated by IcoMoon.io -->
<!DOCTYPE svg PUBLIC "-//W3C//DTD SVG 1.1//EN" "http://www.w3.org/Graphics/SVG/1.1/DTD/svg11.dtd">
<svg version="1.1" xmlns="http://www.w3.org/2000/svg" xmlns:xlink="http://www.w3.org/1999/xlink" width="32" height="32" viewBox="0 0 32 32">
<g>
</g>
	<path d="M26.286 17.143q0 0.964-0.661 1.625l-11.625 11.625q-0.696 0.661-1.625 0.661-0.911 0-1.607-0.661l-1.339-1.339q-0.679-0.679-0.679-1.625t0.679-1.625l5.232-5.232h-12.571q-0.929 0-1.509-0.67t-0.58-1.616v-2.286q0-0.946 0.58-1.616t1.509-0.67h12.571l-5.232-5.25q-0.679-0.643-0.679-1.607t0.679-1.607l1.339-1.339q0.679-0.679 1.607-0.679 0.946 0 1.625 0.679l11.625 11.625q0.661 0.625 0.661 1.607z" fill="#cccccc" />
</svg>
