<?xml version="1.0" encoding="utf-8"?>
<!-- Generated by IcoMoon.io -->
<!DOCTYPE svg PUBLIC "-//W3C//DTD SVG 1.1//EN" "http://www.w3.org/Graphics/SVG/1.1/DTD/svg11.dtd">
<svg version="1.1" xmlns="http://www.w3.org/2000/svg" xmlns:xlink="http://www.w3.org/1999/xlink" width="32" height="32" viewBox="0 0 32 32">
<g>
</g>
	<path d="M27.429 16v2.286q0 0.946-0.58 1.616t-1.509 0.67h-12.571l5.232 5.25q0.679 0.643 0.679 1.607t-0.679 1.607l-1.339 1.357q-0.661 0.661-1.607 0.661-0.929 0-1.625-0.661l-11.625-11.643q-0.661-0.661-0.661-1.607 0-0.929 0.661-1.625l11.625-11.607q0.679-0.679 1.625-0.679 0.929 0 1.607 0.679l1.339 1.321q0.679 0.679 0.679 1.625t-0.679 1.625l-5.232 5.232h12.571q0.929 0 1.509 0.67t0.58 1.616z" fill="#cccccc" />
</svg>
