<?xml version="1.0" encoding="UTF-8" standalone="no"?>
<svg
   xmlns:dc="http://purl.org/dc/elements/1.1/"
   xmlns:cc="http://creativecommons.org/ns#"
   xmlns:rdf="http://www.w3.org/1999/02/22-rdf-syntax-ns#"
   xmlns:svg="http://www.w3.org/2000/svg"
   xmlns="http://www.w3.org/2000/svg"
   xmlns:sodipodi="http://sodipodi.sourceforge.net/DTD/sodipodi-0.dtd"
   xmlns:inkscape="http://www.inkscape.org/namespaces/inkscape"
   width="423"
   height="451"
   preserveAspectRatio="xMidYMid meet"
   id="svg2"
   version="1.1"
   inkscape:version="0.91 r13725"
   sodipodi:docname="wolf.svg">
  <defs
     id="defs25" />
  <sodipodi:namedview
     pagecolor="#ffffff"
     bordercolor="#666666"
     borderopacity="1"
     objecttolerance="10"
     gridtolerance="10"
     guidetolerance="10"
     inkscape:pageopacity="0"
     inkscape:pageshadow="2"
     inkscape:window-width="1680"
     inkscape:window-height="988"
     id="namedview23"
     showgrid="false"
     inkscape:zoom="1.4800639"
     inkscape:cx="225.26581"
     inkscape:cy="224.93062"
     inkscape:window-x="-8"
     inkscape:window-y="-8"
     inkscape:window-maximized="1"
     inkscape:current-layer="svg2" />
  <metadata
     id="metadata4">Image by Paul Sherman
Published by wpclipart.com
License is Public Domain
Created by potrace 1.12, written by Peter Selinger 2001-2015<rdf:RDF>
  <cc:Work
     rdf:about="">
    <dc:format>image/svg+xml</dc:format>
    <dc:type
       rdf:resource="http://purl.org/dc/dcmitype/StillImage" />
  </cc:Work>
</rdf:RDF>
</metadata>
  <g
     id="g6">
    <title
       id="title8">background</title>
    <rect
       fill="none"
       id="canvas_background"
       height="402"
       width="582"
       y="-1"
       x="-1" />
  </g>
  <g
     id="g11"
     style="fill:#0000ff">
    <title
       id="title13">Layer 1</title>
    <g
       id="svg_1"
       fill="#000000"
       transform="translate(0,451) scale(0.10000000149011612,-0.10000000149011612) "
       style="fill:#0000ff">
      <path
         id="svg_2"
         d="m2373,4348c-54,-57 -107,-137 -193,-293c-137,-248 -376,-756 -550,-1165c-46,-107 -88,-200 -94,-206c-6,-6 -102,-59 -213,-118c-212,-111 -361,-196 -519,-296l-96,-60l-66,41c-89,53 -159,74 -257,73c-99,0 -166,-27 -224,-89c-100,-108 -74,-287 60,-416c71,-68 190,-132 279,-150c46,-9 63,-17 76,-38c27,-42 153,-168 229,-231c156,-128 411,-272 595,-336l81,-29l372,-374c368,-370 372,-375 342,-382c-40,-11 -202,-29 -272,-30l-58,-1l74,-24c41,-14 131,-36 200,-51c111,-23 149,-27 321,-27c163,0 213,3 307,22c289,58 524,179 730,375c232,222 400,608 449,1031c32,275 9,600 -63,881l-28,110l22,195c37,333 54,565 60,825c8,348 -14,525 -65,533c-112,17 -383,-338 -767,-1008c-64,-113 -119,-207 -121,-209c-3,-3 -365,26 -426,35l-38,6l0,386c0,525 -22,854 -66,988c-26,78 -34,81 -81,32zm753,-2004c9,-36 -12,-147 -37,-197c-27,-52 -93,-115 -158,-151c-62,-33 -145,-44 -209,-26c-81,21 -163,123 -174,214l-3,28l275,78c151,43 281,79 287,79c7,1 16,-11 19,-25zm174,-946c-61,-364 -242,-657 -557,-905c-22,-18 -45,-33 -49,-33c-5,0 -43,151 -85,336l-76,336l46,28l45,28l96,-87c213,-197 294,-270 298,-267c2,2 -26,117 -62,254c-36,138 -66,257 -66,264c0,7 44,50 98,94c53,45 149,131 212,190l115,109l3,-114c2,-80 -3,-149 -18,-233zm-907,-680c153,-143 277,-265 277,-269c0,-24 -337,-158 -397,-159c-18,0 -25,9 -34,43c-6,23 -46,174 -90,335c-43,161 -79,294 -79,297c0,3 19,9 41,14c3,0 130,-117 282,-261z"
         style="fill:#0000ff" />
    </g>
    <ellipse
       ry="31.126684"
       rx="32.816821"
       id="svg_4"
       cy="225.492401"
       cx="285.020953"
       stroke-width="1.5"
       stroke="#000"
       fill="#d30808"
       style="fill:#0000ff" />
    <line
       stroke-linecap="undefined"
       stroke-linejoin="undefined"
       id="svg_6"
       y2="191.830512"
       x2="301.781475"
       y1="245.914886"
       x1="255.302716"
       stroke-width="1.5"
       stroke="#000"
       fill="none"
       style="fill:#0000ff" />
    <polyline
       stroke="#000"
       stroke-linecap="round"
       id="svg_7"
       points="244.03514099121094,209.29526062417244 244.31683349609375,209.1544128438245 244.31683349609375,209.01356506347656 "
       stroke-width="1.5"
       fill="none"
       style="fill:#0000ff" />
    <path
       d="m256.023834,217.619095c0,-0.476196 0.293945,-0.988632 0.476166,-1.428574c0.515442,-1.244354 1.593445,-1.28833 2.380951,-2.380951c0.622589,-0.8638 1.428589,-1.428558 1.904785,-1.904755c0.476166,-0.476181 0.952362,-0.952393 1.428558,-1.428574c0.476196,-0.476196 1.464844,-1.246353 1.904755,-1.428574c1.244354,-0.515427 1.475189,-1.344971 2.380951,-1.90477c0.40506,-0.250351 0.952393,-0.476181 1.428589,-0.952377c0.476196,-0.476196 0.952362,-0.952377 0.952362,-1.428574c0,-0.476181 0.187439,-0.695831 -0.476166,0.476196c-0.967346,1.708527 -2.173981,3.647339 -3.80954,6.666672c-1.727325,3.188751 -3.441895,6.322418 -4.285706,8.09523c-1.023285,2.149857 -2.380951,3.333344 -2.380951,4.285721c0,0.476181 -0.139465,1.289093 -0.476196,0.952377c-0.673431,-0.673431 0.172211,-2.526382 1.428558,-4.761902c1.166504,-2.075653 3.050598,-4.658585 4.761932,-8.095245c1.616547,-3.246323 3.2771,-6.225128 4.761902,-8.571426c1.836243,-2.901642 2.874054,-5.954407 4.285706,-8.095245c1.112152,-1.68663 1.475189,-3.249725 2.380951,-3.809525c0.40509,-0.250351 0.244629,-0.56012 0,0.476196c-0.328217,1.39035 -1.428558,2.380951 -3.333344,4.761902c-1.904755,2.380951 -3.438354,5.157745 -5.238098,7.619049c-2.026855,2.771866 -3.901947,5.185028 -5.238098,7.619049c-1.53717,2.800217 -2.136322,3.725586 -2.380951,4.761902c-0.218811,0.92691 -0.328217,-0.514404 0,-1.904755c0.489288,-2.072632 2.099518,-4.17923 3.333344,-6.666672c1.139496,-2.297287 2.339203,-5.252701 2.857147,-6.666672c0.88205,-2.407898 1.722504,-3.369583 1.904755,-3.809525c0.257721,-0.622162 0.517944,0.014603 0,1.428574c-0.882019,2.407898 -2.777039,5.010559 -4.285706,8.095245c-1.984802,4.058182 -3.80954,7.142853 -5.714294,10.952377c-1.428574,2.857147 -3.311981,4.547226 -3.809525,6.190475c-0.138,0.455765 -0.140762,-0.006958 0,-1.428558c0.239258,-2.416306 1.604187,-4.412399 3.333328,-8.095245c1.631653,-3.475204 3.863586,-7.104904 6.190491,-10.476196c1.950562,-2.826065 2.663788,-5.478256 3.809509,-7.619049c0.635529,-1.1875 1.428589,-0.952377 1.428589,-0.476196c0,1.428574 0.393555,3.948074 -0.952393,7.142868c-1.49054,3.53801 -3.725189,7.87674 -5.714294,11.90477c-1.801453,3.648026 -3.604523,7.206192 -4.285706,9.047607c-0.369446,0.998672 -0.476196,0.476196 -0.476196,-0.476181c0,-1.428574 0.682343,-3.715439 1.904785,-6.666672c1.152527,-2.78244 2.474609,-6.139755 4.761902,-10.476196c1.490295,-2.825424 2.844055,-5.546432 3.333313,-7.619049c0.328217,-1.390366 0.952393,-2.857147 0.476196,-2.857147c-1.428589,0 -0.100952,4.392746 -0.952362,6.666672c-1.346222,3.595428 -3.063293,7.524963 -4.285736,10.476196c-1.152527,2.78244 -1.904755,4.761902 -1.904755,6.190475c0,0.952377 -0.476196,0.952377 -0.476196,0.476196c0,-1.428574 0.552582,-3.315857 0.952393,-5.238098c0.589844,-2.835861 0.532806,-5.816864 1.428558,-8.571426c0.658569,-2.025208 0.868469,-4.530365 1.904785,-4.285721c0.92691,0.218811 -0.546539,2.354004 -1.428589,4.761902c-1.035919,2.827942 -1.832581,5.735764 -2.857147,9.047623c-0.890076,2.877151 -1.117218,4.145462 -1.904755,5.238098c-0.622589,0.8638 -0.650757,0.4655 -0.476196,-0.952377c0.239899,-1.948685 1.345062,-3.83873 2.380951,-6.666672c0.882019,-2.407898 2.024719,-5.657379 3.333344,-8.571426c1.050507,-2.33931 1.091827,-3.949005 1.428558,-4.285721c0.336731,-0.336716 0,1.90477 -0.952362,4.761902c-0.952393,2.857147 -2.079742,7.23111 -3.333344,10.952393c-1.157776,3.436783 -2.913757,7.245438 -3.809509,10c-0.329285,1.012604 -0.615677,1.765289 -0.952393,1.428574c-0.673431,-0.673431 0.070358,-2.354004 0.952393,-4.761902c1.035889,-2.827942 2.296631,-6.026154 3.333313,-9.047623c1.576019,-4.593369 2.110901,-7.524963 3.333344,-10.476196c0.576263,-1.39122 1.428589,-2.857147 0.952393,-2.857147c-1.428589,0 -0.880219,3.830994 -1.904785,7.142868c-1.335144,4.31572 -3.385193,8.074799 -5.238098,12.857132c-1.469894,3.793762 -2.175949,7.206207 -2.857132,9.047623c-0.369431,0.998672 -0.517944,-0.014603 0,-1.428574c0.882034,-2.407898 1.36525,-4.302094 2.380966,-8.09523c0.896698,-3.34874 1.866058,-6.672424 2.380951,-10c0.442932,-2.862488 0.711151,-4.704086 0.952362,-6.190475c0.076294,-0.470047 -0.000031,0 -0.476196,1.904755c-0.476196,1.90477 -1.267761,4.793396 -1.904755,7.619049c-0.76236,3.381851 -1.665497,5.202759 -1.904755,7.619049c-0.046921,0.473877 0,0.952377 0,0c0,-1.428574 0.000015,-2.857147 0.952393,-5.238098c0.952362,-2.380951 1.257477,-4.790863 1.904755,-8.09523c0.377441,-1.926773 0.952393,-3.809525 0.476196,-3.809525c-0.952393,0 -0.427338,3.600632 -1.428589,6.190475c-0.87558,2.26474 -0.648071,5.781998 -1.428574,8.571426c-0.690994,2.469513 -0.952377,3.809525 -0.952377,4.285721c0,0.476181 0,-0.476196 0,-1.90477c0,-1.428574 0.661453,-3.351166 0.952377,-5.714279c0.239899,-1.948685 1.021103,-4.73056 1.428574,-5.714294c0.576263,-1.39122 0.476196,-0.952377 0.476196,0.952377c0,1.428574 -0.666199,4.713409 -1.428558,8.095245c-0.636993,2.825653 -1.663559,5.656448 -1.90477,7.142853c-0.152557,0.940094 0,1.428574 0,0.952393c0,-1.428574 -0.215698,-3.863037 0.476181,-6.190491c0.730698,-2.458054 2.293488,-5.74823 3.80954,-9.523804c1.351318,-3.365372 2.649261,-6.048813 3.809509,-8.571426c0.629242,-1.368088 1.428589,-2.380966 0.952393,-2.380966c-0.476196,0 0.413971,1.489868 0,2.857147c-0.497559,1.643265 -1.970032,4.254013 -3.333344,7.142868c-2.001587,4.241348 -3.606476,7.000992 -5.238098,10.476181c-1.729126,3.682846 -2.280884,5.275452 -2.857147,6.666672c-0.407471,0.983734 -0.681198,0.412857 0,-1.428574c0.738846,-1.997314 2.380966,-5.714279 3.809525,-8.571426c1.428574,-2.857147 2.688126,-6.243484 3.809525,-9.523804c0.829529,-2.426514 1.428589,-3.809525 1.428589,-4.761917c0,-0.476181 0.041748,0.014603 -0.476196,1.428574c-0.88205,2.407898 -2.634705,5.342484 -4.285706,8.571426c-1.264084,2.472244 -2.187622,5.478256 -3.333344,7.619049c-0.635544,1.187515 -1.170868,1.758789 -1.428574,2.380966c-0.18222,0.439941 -0.275986,-0.040863 0,-0.952393c0.497543,-1.643265 1.650238,-2.780029 2.380951,-5.238098c0.691879,-2.327438 1.187134,-4.397125 2.380966,-6.666656c0.799316,-1.519516 1.904755,-3.333344 1.428558,-3.333344c-0.952393,0 -0.293823,2.73671 -0.952393,4.761917c-0.895737,2.754562 -1.485199,6.293045 -2.380936,9.047607c-0.987839,3.037811 -2.359604,5.499603 -2.857147,7.142868c-0.137985,0.45575 0,0.952377 0,0c0,-0.952377 0.434433,-2.395554 0.952377,-3.809525c0.882034,-2.407898 1.995392,-4.705475 2.857147,-6.190475c0.534439,-0.920959 0.952393,-1.90477 0.952393,-0.952393c0,1.428574 0,3.333344 0,5.238098c0,2.380951 -0.236313,4.718002 -0.476212,6.666672c-0.174561,1.417862 -0.476181,3.809525 -0.476181,4.761902c0,0.476196 -0.18541,-0.075851 0.476181,-1.428574c0.754318,-1.542328 1.985947,-3.732712 3.333328,-5.238083c2.033539,-2.271988 2.857147,-4.285721 3.80954,-5.238098c0.476196,-0.476196 0.804413,0.038223 0.476196,1.428574c-0.489288,2.072617 -2.015137,3.775085 -2.857147,6.666656c-0.54895,1.885101 -2.104218,3.455521 -2.857147,5.714294c-0.150574,0.451752 0,-0.476196 0,-1.428574c0,-1.428574 0.476196,-2.380951 1.428558,-3.809525c0.952393,-1.428574 1.540344,-2.929642 1.904785,-3.809525c0.25769,-0.622162 0.746307,0.025772 0.476166,1.428574c-0.484924,2.518082 -2.264435,4.348572 -3.333313,6.190475c-0.861786,1.485001 -1.660126,2.297028 -1.904755,3.333328c-0.109406,0.463455 -0.152542,-0.012299 0,-0.952377c0.241211,-1.486404 1.330444,-3.851151 2.380951,-6.190475c0.872406,-1.942703 2.173065,-4.144058 3.333313,-6.666672c0.629242,-1.368088 1.663574,-2.799316 1.904785,-4.285706c0.152557,-0.940094 -0.145996,-2.16246 0.476166,-1.90477c0.439941,0.18222 -0.092407,1.375504 -1.428558,3.809525c-1.02478,1.866821 -2.575714,4.179214 -3.80954,6.666672c-1.139496,2.297272 -1.768616,4.38652 -2.857117,5.714279c-0.426971,0.520813 -0.751358,-0.090836 0,-1.904755c1.062592,-2.565277 2.380951,-4.285721 3.809509,-7.142868c1.428558,-2.857132 2.74353,-6.734192 4.761902,-10c1.805267,-2.921005 3.040497,-5.891449 4.285706,-7.619049c0.393768,-0.54631 0.476196,-0.952377 0.476196,0.476196c0,1.428574 -1.505798,4.253662 -2.857147,7.619049c-1.516022,3.775558 -3.90271,7.091293 -5.714264,10.476196c-1.507294,2.816406 -1.846954,6.907867 -3.333344,6.666656c-0.940094,-0.152557 0.20105,-2.471786 0.952393,-4.285706c1.062561,-2.565277 2.932739,-5.191864 5.238098,-9.047623c1.970154,-3.295105 3.526733,-6.563354 5.238068,-10c1.616577,-3.246338 1.846924,-6.907883 3.333344,-6.666672c0.470062,0.076279 -0.56073,1.864044 -1.904755,4.761902c-1.525879,3.289948 -4.175903,8.160736 -7.619049,13.809525c-3.231476,5.301544 -6.131317,10.045105 -9.047623,13.80954c-1.86734,2.410416 -1.758789,4.543411 -2.380951,4.285706c-0.439941,-0.18222 0.463104,-1.260712 0.952377,-3.333328c0.547028,-2.317261 0.87532,-5.448746 2.380951,-8.571426c1.779083,-3.68985 3.387054,-7.832977 5.714294,-11.90477c2.032684,-3.556442 3.35025,-6.430588 4.761902,-8.571426c0.741455,-1.124435 1.428558,-1.90477 1.428558,-1.428574c0,1.904755 -0.880188,4.307175 -1.904755,7.619049c-1.335144,4.31572 -3.809509,9.047623 -6.19046,13.809525c-1.904785,3.809525 -4.212967,7.162537 -4.761917,9.047623c-0.421021,1.445801 -0.623215,0.441986 0,-1.90477c0.77301,-2.910782 2.04451,-6.133987 3.333328,-9.523804c1.605469,-4.222656 2.659424,-8.175369 4.285706,-11.90477c0.851227,-1.952057 2.380981,-4.761902 1.904785,-4.761902c-0.952393,0 0.215698,2.91066 -0.476196,5.238098c-0.730713,2.458054 -1.428589,5.238098 -1.904755,8.09523c-0.476196,2.857147 -0.707764,4.201782 -0.952393,5.238098c-0.109406,0.463455 0,-0.952377 0.476196,-1.904755c0.952393,-1.90477 1.490784,-3.870819 1.904755,-5.238098c0.497559,-1.643265 1.904785,-2.857147 1.428589,-2.857147c-0.952393,0 -0.711182,2.32312 -0.952393,3.809525c-0.305115,1.880173 -1.18396,3.249405 -1.428589,4.285721c-0.109406,0.46344 0,0.952377 0,0c0,-0.476196 0.46347,-1.319168 0,-1.428574c-1.036285,-0.244629 -0.975555,2.042435 -1.904755,4.285721c-0.657043,1.586212 -1.358063,2.965881 -1.904755,4.285706c-0.257721,0.622177 -0.476196,0 -0.476196,-0.476181c0,-0.952393 1.150421,-2.743378 1.904755,-4.285721c0.661591,-1.352737 1.626617,-3.695755 2.380951,-5.238098c0.661591,-1.352737 0.476196,-1.904755 0.476196,-0.952377c0,1.428574 0.100037,2.894485 -0.476196,4.285706c-0.407471,0.983749 -0.40567,2.489716 -0.952362,3.809525c-0.257721,0.622177 -0.952393,0.952393 -0.952393,-0.476181c0,-0.952377 0,-2.380951 0,-3.809525c0,-0.952377 0,-1.90477 0,-2.857147c0,-1.428574 0,-1.90477 -0.476196,-1.428574c-0.476166,0.476181 -0.247314,1.923218 -0.476166,3.333344c-0.241211,1.486389 -0.842987,2.393692 -0.952393,2.857132c-0.244629,1.036316 -0.476196,0.476196 -0.476196,-0.476181c0,-0.476196 0,-1.428574 0,-1.90477c0,-0.952377 0,-0.476181 0,0.476196c0,0.476181 0,0.952377 0,1.428574c0,0.476181 0.476196,-0.476196 0,-0.476196c-0.476196,0 0,1.428574 0,2.380951c0,0.476196 -0.231567,0.868454 -0.476196,1.90477c-0.109406,0.46344 -0.476196,1.428574 0,1.428574c0.476196,0 0.439941,-1.246353 0,-1.428574c-0.622147,-0.257706 -0.476166,0.952377 -0.476166,1.428574c0,0.476181 -0.476212,0.952377 -0.476212,1.904755c0,0.476196 0,-0.476196 0,-1.428574c0,-0.952377 0,-1.904755 0,-2.857147c0,-0.952377 0,-1.428558 0,-0.952377c0,0.952377 -0.476181,1.90477 -0.476181,2.857147c0,1.428574 -0.231552,2.297012 -0.476196,3.333328c-0.109406,0.463455 0,0.952393 0,0.476196c0,-0.476196 0,-0.952377 0,-1.428574c0,-0.476196 0,-1.428574 0,-2.857147c0,-0.952377 0,-1.904755 0,-2.857132c0,-0.476196 0,-1.428574 0,-2.380966c0,-0.476181 0,-1.428558 0,-1.904755c0,-0.476196 0,-0.952377 -0.476181,-0.952377c-0.476196,0 -1.170868,-0.145981 -1.428574,0.476181c-0.364471,0.879898 -0.624191,0.990601 -0.952393,2.380951c-0.244629,1.036316 -0.707733,1.34465 -0.952377,2.380966c-0.218811,0.926895 0,1.904755 0,2.380951c0,0.476181 -0.336716,1.091858 0,1.428574c0.336716,0.336716 1.091858,0.139465 1.428574,0.476181c0.336716,0.336716 0.694672,0.330215 0.952377,0.952377c0.182236,0.439941 0,0.952393 0,1.428574c0,0.952393 0,1.428574 0,1.90477c0,0.476181 0,0.952377 0,1.428574c0,0.476181 -0.336716,1.091858 0,1.428574c0.336716,0.336716 0.952393,0 1.428574,0c0.476196,0 1.091858,0.336731 1.428589,0c0.336731,-0.336716 0.22583,-1.023514 0.476166,-1.428574c0.559814,-0.905777 2.152069,-2.170578 3.333344,-3.809525c1.245209,-1.727631 2.195557,-4.361572 2.857147,-5.714294c0.754333,-1.542343 1.209747,-2.882629 1.428558,-3.809525c0.244629,-1.036316 0.952393,-1.904755 1.428589,-2.857147c0.476196,-0.952377 1.223541,-1.968094 1.904755,-3.809525c0.369415,-0.998657 0.881866,-1.537308 1.428558,-2.857132c0.257721,-0.622177 0.805969,-1.04097 1.428589,-1.90477c0.393768,-0.54631 0.770172,-1.464813 0.952393,-1.904755c0.25769,-0.622162 0.682251,-0.817505 0,0c-1.525574,1.828018 -2.992462,2.729126 -5.238098,5.238098c-2.033539,2.271988 -3.693024,4.824753 -4.761932,6.666656c-0.861755,1.484985 -2.380951,3.333344 -1.428558,3.333344c0.952393,0 -0.459259,-1.668686 0.952393,-3.809525c1.112152,-1.68663 3.125183,-4.109695 5.238098,-7.619049c1.647675,-2.736649 3.43335,-5.167023 4.761902,-7.142868c1.549347,-2.304184 1.135742,-3.986679 2.380951,-5.714279c0.393768,-0.546326 0.615662,-1.765274 0.952362,-1.428574c0.673431,0.673431 -1.209442,3.453827 -2.857117,6.190475c-2.112946,3.509369 -4.968018,6.976715 -7.619049,10.476196c-3.11026,4.105713 -4.336334,7.425186 -6.666687,10.476196c-1.226303,1.605545 -2.380951,3.333328 -1.428574,3.333328c1.428574,0 -0.05249,-2.884308 0.952377,-4.761902c1.811554,-3.384918 3.333344,-6.666672 6.666687,-10.952393c3.333313,-4.285706 6.112854,-8.215637 9.047607,-11.904755c2.796722,-3.51564 3.775269,-5.529068 4.761902,-6.666672c0.697662,-0.804413 1.428589,-1.428574 1.428589,-0.952377c0,0.952377 -0.296936,2.498154 -1.904785,4.761902c-2.153625,3.032166 -4.999542,6.808151 -7.619049,10.952377c-2.18866,3.462631 -5.685699,6.845413 -7.142853,9.523819c-0.719635,1.322769 -1.428558,2.380951 -0.952362,2.380951c1.904755,0 1.149323,-2.678711 2.857147,-4.761902c2.177032,-2.655548 4.01889,-6.398224 6.666656,-9.523819c3.047058,-3.596909 5.238098,-6.190475 6.19046,-7.619049c0.952393,-1.428574 1.904785,-2.380951 1.428589,-2.380951c-0.476196,0 0.152557,1.440872 0,2.380951c-0.241211,1.486404 -1.904755,3.809525 -3.333344,5.714294c-1.428558,1.904755 -3.226746,4.032211 -4.761902,6.666656c-1.291107,2.215637 -1.758362,3.421921 -2.380951,4.285721c-0.393768,0.546326 -0.227509,-1.133682 0.952393,-2.380951c1.63623,-1.729645 3.542694,-4.017258 6.19046,-7.142853c2.611755,-3.083069 5.434082,-5.430496 7.142853,-7.619064c1.657776,-2.12323 2.711182,-3.114853 3.333344,-2.857132c0.879883,0.364471 -1.017975,2.329941 -2.857147,4.761902c-2.470886,3.267227 -4.761902,7.142853 -8.095245,10.952377c-3.333313,3.809525 -6.539581,7.298187 -10,10.000015c-1.678558,1.310577 -2.04422,2.24147 -2.380951,1.904755c-0.336731,-0.336716 0.653046,-2.260345 1.904785,-4.285721c1.679382,-2.717285 3.102753,-6.399567 5.714264,-9.047607c3.082764,-3.12587 5.714294,-5.238098 8.095245,-7.619049c1.904755,-1.90477 3.532806,-3.056625 4.285706,-3.80954c0.75293,-0.75293 1.091888,-1.091843 1.428589,-1.428558c0.336731,-0.336716 0.55249,-0.470047 0.476196,0c-0.241211,1.486389 -1.691528,2.503448 -2.857147,4.285706c-2.035675,3.112595 -4.696533,5.276321 -6.666687,8.571442c-2.305359,3.855743 -4.285706,6.190475 -5.714264,8.09523c-1.428589,1.90477 -1.282593,3.591064 -1.904785,3.333344c-0.439941,-0.182236 0.446625,-1.927307 1.904785,-3.809525c1.86734,-2.410416 4.00531,-4.544891 6.666656,-7.142868c3.622223,-3.53598 6.190491,-6.666672 8.571442,-9.047623c1.904755,-1.904755 2.580414,-3.05661 3.333313,-3.809525c0.75293,-0.75293 0.853912,0.386978 0,1.428574c-1.088501,1.327774 -2.965393,3.230927 -4.761902,5.238098c-2.033508,2.271973 -4.394684,4.633148 -6.666656,6.666672c-2.508972,2.245636 -4.390564,4.664215 -5.714294,6.190475c-1.559998,1.798691 -2.380951,3.333328 -1.904755,3.333328c0.952393,0 0.653015,-2.260361 1.904755,-4.285706c1.679382,-2.717316 3.210815,-5.809341 6.190491,-9.523819c2.747101,-3.424576 5.238068,-7.142868 8.095215,-10c2.380981,-2.380966 4.24649,-3.993744 4.761932,-5.238098c0.18222,-0.439941 0.197754,-1.338654 0.476166,-0.952377c0.880493,1.221588 -1.428558,2.857147 -3.333313,5.238098c-1.904785,2.380951 -4.557068,5.930771 -8.571442,9.523804c-4.543945,4.067032 -8.095245,6.190475 -10.476196,8.571442c-0.952362,0.952377 -1.428558,1.428558 -1.428558,0.952377c0,-1.428574 0.613983,-4.481674 2.380951,-7.142868c2.428467,-3.65744 5.169373,-7.189468 8.095245,-11.428574c2.326904,-3.371277 4.74054,-5.975784 5.238098,-7.619049c0.138,-0.45575 0.552429,-0.946228 0.476166,-0.476181c-0.241211,1.486404 -1.104095,2.786179 -2.380951,5.714279c-1.626282,3.729401 -3.80954,7.142853 -5.238098,10c-0.952393,1.90477 -1.951355,4.369308 -2.857117,3.809525c-0.40506,-0.250336 0.613586,-1.842026 1.428558,-3.809525c1.152527,-2.782425 2.206177,-5.808578 3.809509,-8.571426c0.861786,-1.485001 1.880341,-2.783844 1.428589,-1.428574c-0.75293,2.258789 -2.74353,4.829437 -4.761902,8.095245c-1.805267,2.921021 -3.788177,5.499588 -4.285736,7.142853c-0.138,0.455765 -0.093842,-0.004639 0,-0.952377c0.239258,-2.41629 1.690002,-4.197159 2.380981,-6.666672c0.780487,-2.789413 0.636871,-4.909531 1.428558,-6.190475c0.354065,-0.572861 0.658417,-0.916138 0.476196,-0.476196c-0.515442,1.244354 -1.089813,1.842056 -1.904755,3.809525c-0.576263,1.39122 -1.170868,2.711166 -1.428589,3.333344c-0.18222,0.439941 -0.318115,-1.0616 0.476196,-2.857147c0.694611,-1.57016 1.565979,-3.746796 2.380951,-5.714279c0.576263,-1.39122 0.476196,-1.90477 0.476196,-0.952393c0,1.428574 -0.952393,2.857147 -2.380951,5.714294c-1.428589,2.857147 -3.068359,5.419327 -3.80954,8.095245c-0.254211,0.917816 -0.476196,1.904755 -0.476196,0.952377c0,-1.428574 0.752258,-3.884216 1.904785,-6.666672c1.222443,-2.951218 2.55777,-5.593704 3.809509,-7.619049c1.119598,-1.811554 1.428589,-2.380951 1.428589,-0.952377c0,1.904755 0,3.809525 0,6.190475c0,1.904755 -0.476196,3.333328 -0.476196,4.285721c0,0.476181 0,0.952377 0,0.476181c0,-0.952377 0.556152,-2.819214 1.428558,-4.761902c1.050507,-2.339325 3.068359,-4.466949 3.80954,-7.142868c0.381317,-1.376724 0.952362,-2.380951 0.952362,-1.428558c0,1.904755 -0.521606,3.32254 -0.952362,5.238083c-0.532715,2.368958 -1.660156,4.677979 -1.904785,5.714294c-0.218811,0.926895 0,1.428574 0,0.952377c0,-1.428574 0.659607,-3.034286 1.904785,-4.761902c1.181274,-1.638947 2.065491,-3.957138 2.857147,-5.238098c0.708069,-1.145706 1.428558,-0.952377 1.428558,-0.476196c0,1.428574 -0.463104,3.165482 -0.952393,5.238098c-0.328217,1.39035 0.083954,4.530365 -0.952362,4.285721c-0.46347,-0.109406 0.558624,-1.358459 0.952362,-1.90477c0.622589,-0.863815 0.659607,-2.081894 1.904785,-3.809525c0.393738,-0.546295 0.615631,-1.091843 0.952362,-1.428558c0.336731,-0.336716 -0.386993,0.09848 -1.428558,0.952377c-1.327789,1.088516 -2.673279,1.569977 -3.80954,2.857147c-0.704681,0.798248 -1.280579,0.914154 -0.952362,-0.476196c0.244629,-1.036316 0.160706,-1.576202 0.952362,-2.857147c0.354034,-0.572861 0.476196,0.476196 0.476196,1.428574c0,0.952377 -0.476196,1.90477 -0.476196,2.857147c0,0.476181 0,0.952377 0,0.476181c0,-0.952377 0.293945,-1.94101 0.476196,-2.380951c0.257721,-0.622162 0.952393,-0.952377 0.952393,-0.476181c0,0.952377 0.036255,1.610809 0.476196,1.428574c1.244324,-0.515427 1.904724,-1.428589 2.857117,-2.380966c0.476196,-0.476196 1.428589,-0.952377 0.952393,-0.952377c-0.952362,0 -0.231567,1.344635 -0.476196,2.380951c-0.218811,0.92691 -0.694672,1.758804 -0.952362,2.380951c-0.364471,0.879898 0.0466,0.083618 0.952362,-0.476181c0.81015,-0.500702 1.576202,-0.636917 2.857147,-1.428574c1.145721,-0.708099 1.821167,-0.999008 2.380951,-1.90477c0.250336,-0.40506 0.18222,0.036255 0,0.476196c-0.257721,0.622177 -1.34494,0.522797 -1.904755,1.428574c-0.250366,0.405075 -0.18222,0.916138 0,0.476196c0.257721,-0.622177 1.428558,-0.476196 1.904755,-0.952393c0.476196,-0.476181 1.357483,-1.178223 0.952393,-1.428574c-0.905792,-0.559799 -1.282166,1.04097 -1.904755,1.90477c-0.393768,0.546326 -0.702026,1.023499 -0.952393,1.428574c-0.559814,0.905777 -1.091827,1.091858 -1.428558,1.428574c-0.336731,0.336716 -0.615662,0.139465 -0.952393,0.476181c-0.336731,0.336716 -0.139465,0.615677 -0.476196,0.952393c-0.336731,0.336716 -0.615662,0.139465 -0.952393,0.476181c-0.336731,0.336716 0.145996,1.170868 -0.476166,1.428574c-0.439941,0.182236 -0.694672,0.330215 -0.952393,0.952377c-0.182251,0.439941 -0.707764,0.868454 -0.952393,1.90477c-0.218811,0.926895 -0.139435,1.091858 -0.476166,1.428574c-0.336731,0.336716 -0.615662,0.615662 -0.952393,0.952377c-0.336731,0.336716 -0.694672,1.282593 -0.952393,1.90477c-0.364471,0.879883 -0.694641,1.282578 -0.952362,1.904755c-0.18222,0.439941 -0.476196,1.428574 -0.952393,1.90477c-0.476196,0.476181 -0.615662,0.615662 -0.952393,0.952377c-0.3367,0.336716 -0.476166,0.476181 -0.476166,0.952377c0,0.476196 -0.615662,0.139481 -0.952393,0.476196c-0.3367,0.336716 -0.139465,0.615662 -0.476196,0.952377c-0.336731,0.336716 -0.615662,0.615662 -0.952362,0.952377c-0.336731,0.336716 -0.615662,0.139481 -0.952393,0.476196c-0.3367,0.336716 -0.694672,0.3302 -0.952393,0.952377c-0.18222,0.439941 -0.139465,0.615662 -0.476166,0.952377c-0.336731,0.336716 -0.615662,0.139481 -0.952393,0.476196c-0.336731,0.336716 -0.694672,0.806396 -0.952393,1.428574c-0.18222,0.439941 -0.694672,0.330215 -0.952362,0.952377c-0.18222,0.439957 -0.109406,-0.012741 0,-0.476196c0.244629,-1.036301 0.476166,-1.904755 1.428558,-2.857132c0.952393,-0.952393 1.428589,-1.90477 1.904755,-2.857147c0.476196,-0.952377 0.952393,-1.90477 1.428589,-2.380951c0.952362,-0.952362 1.246338,-1.94101 1.428558,-2.380951c0.515442,-1.244354 1.344971,-0.999008 1.904755,-1.90477c0.250336,-0.40506 0.036255,-0.770142 0.476196,-0.952377c0.622192,-0.257721 0.3302,-1.686295 0.952393,-1.428574c0.879883,0.364456 -0.546112,1.839645 -1.428589,2.857147c-1.559998,1.798691 -2.479431,2.767944 -3.333313,3.809525c-1.088531,1.327789 -1.647064,2.234985 -1.904755,2.857147c-0.18222,0.439941 -0.952393,0.952377 -0.476196,0.952377c0.476196,0 0.049255,-0.907776 0.476196,-1.428574c1.088501,-1.327774 2.010803,-1.773331 3.809509,-3.333328c1.017517,-0.882477 1.589264,-1.576202 2.380951,-2.857147c0.354065,-0.572861 0.55246,-0.946228 0.476196,-0.476196c-0.241211,1.486404 -0.952393,2.380966 -2.380951,4.285721c-1.428589,1.90477 -2.380951,3.333328 -3.80954,5.238098c-1.428558,1.904755 -2.125916,3.554504 -3.809509,5.238098c-1.683563,1.683578 -2.99939,2.295731 -3.80954,3.809525c-0.449402,0.839691 -0.476166,0.952377 -0.476166,0c0,-0.952393 1.007538,-1.887543 1.428558,-3.333344c0.54895,-1.885071 1.904755,-2.857147 2.380951,-3.809525c0.952393,-1.904755 1.510986,-2.787018 1.904755,-3.333328c0.62262,-0.8638 0.046631,-1.821152 0.952393,-2.380951c0.40509,-0.250351 -0.090607,0.89595 -0.952393,2.380951c-1.068878,1.841888 -2.700592,4.863144 -4.285706,7.142853c-1.740662,2.503418 -3.498199,4.621658 -4.285706,5.714294c-0.622589,0.863815 -0.770172,1.464813 -0.952393,1.904755c-0.257721,0.622177 -0.812897,-0.139465 -0.476196,-0.476181c0.336731,-0.336716 0.618439,-0.451675 1.428589,-0.952393c0.905762,-0.559799 1.117218,-1.764496 1.904755,-2.857132c0.62262,-0.863815 1.064087,-1.501068 1.428558,-2.380966c0.257721,-0.622162 0.752167,-0.911514 0.476196,0c-0.497528,1.64325 -1.846497,2.88858 -2.380951,3.809525c-0.861786,1.484985 -1.865509,2.088989 -2.380951,3.333344c-0.364471,0.879883 -0.558624,1.834625 -0.952393,2.380951c-0.622589,0.8638 -0.840607,-0.072495 -0.476166,-0.952377c0.515411,-1.244339 1.064087,-2.453445 1.428558,-3.333344c0.257721,-0.622162 1.428589,-1.428574 0.952393,-1.428574c-0.476196,0 -0.244293,0.759048 -0.952393,1.90477c-0.791687,1.280945 -1.722534,2.893387 -1.904755,3.333328c-0.515442,1.244354 -0.755157,1.70752 -1.428589,2.380951c-0.3367,0.3367 -0.476166,0.476196 -0.476166,0c0,-0.476181 0.707733,-1.344635 0.952362,-2.380951c0.218811,-0.926895 -0.197235,-1.231323 0.476196,-1.904755c0.336731,-0.336716 0.476196,0.476181 0.476196,0.952377c0,0.476196 0.500702,1.570816 0,2.380951c-0.559814,0.905777 -0.952393,1.428574 -0.952393,0.952377c0,-0.952377 0,-1.428558 0,-2.380951c0,-1.428574 0,-2.380951 0,-2.857132c0,-0.476196 0.952393,-2.380966 0,-2.380966c-0.476196,0 0,1.428574 0,1.90477c0,0.476196 -0.770111,1.94101 -0.952362,2.380951c-0.257721,0.622192 -0.615677,1.765289 -0.952393,1.428574c-0.336716,-0.336716 0,-1.428574 0,-2.857147c0,-0.952377 0,-2.380951 0,-3.809525c0,-1.428574 0,-2.380951 0,-3.809525c0,-0.952377 0,-0.476181 0,0.476196c0,0.952377 0,1.904755 0,2.857147c0,0.952377 0,1.428558 0,1.904755c0,0.476196 0.231552,0.083923 0.476181,-0.952377c0.218811,-0.926895 0.476212,-1.90477 0.476212,-2.857147c0,-0.952377 0,-1.428574 0,0c0,0.952377 -0.476212,2.857147 -0.952393,3.809525c-0.476196,0.952377 -0.476196,1.90477 -0.476196,1.428574c0,-0.952377 0,-1.90477 0,-3.809525c0,-1.90477 0.237289,-3.779984 0.476196,-6.666672c0.157104,-1.89827 0,-3.809525 0,-5.238098c0,-0.952377 0,-1.904755 0,-1.428574c0,0.952393 0.232727,2.395233 0,4.285721c-0.239899,1.948685 -0.952377,4.285721 -0.952377,5.714294c0,0.952377 -0.476196,1.904755 0,1.904755c0.476196,0 0,-1.428574 0,-3.333328c0,-1.428574 0,-2.857147 0,-4.761917c0,-0.952377 0.476196,-2.380951 0,-2.380951c-0.476196,0 0,1.90477 0,3.333344c0,1.428574 -0.403458,3.829193 -0.952393,5.714279c-0.421021,1.445801 -0.587921,3.882019 -0.952377,4.761902c-0.257721,0.622177 -0.476196,0.952393 -0.476196,-0.476181c0,-0.952377 -0.100067,-1.942123 0.476196,-3.333344c0.814957,-1.967468 1.124603,-3.47876 2.380951,-5.714279c1.166504,-2.075638 2.910553,-4.246826 4.285706,-6.190475c0.991669,-1.401596 2.324524,-3.42395 3.80954,-4.285721c1.841888,-1.068893 3.226837,-2.099487 5.714294,-3.333328c2.297272,-1.139511 3.751678,-1.187363 5.238098,-1.428574c0.470032,-0.076279 0.476166,0.476196 0.476166,1.428574c0,1.428574 -0.378052,2.898788 -1.428558,5.238098c-1.308594,2.914032 -3.262451,4.993011 -4.285706,7.142853c-0.843811,1.772827 -1.428589,2.857147 -0.952393,2.857147c0.476196,0 0.231567,-1.344635 0.476196,-2.380951c0.109406,-0.463455 0.694672,-1.282608 0.952362,-1.90477c0.18222,-0.439941 0.476196,-0.952377 0.476196,-1.428574c0,-0.476181 0.139465,-0.615662 0.476196,-0.952377c0.336731,-0.336716 0.139465,-1.091858 0.476196,-1.428574c0.336731,-0.336716 0.694672,-0.3302 0.952393,-0.952377c0.18222,-0.439941 0.36676,-0.488937 0.476166,-0.952377c0.244629,-1.036316 1.091858,-1.568054 1.428589,-1.90477c0.3367,-0.336716 0.139465,-1.091858 0.476196,-1.428574c0.3367,-0.3367 0.952362,0 1.428558,0c0.952393,0 1.428558,0 2.380951,0c0.476196,0 1.282593,-0.218475 1.904755,-0.476181c0.439941,-0.182236 0.988647,-0.293961 1.428589,-0.476196c0.622192,-0.257721 1.464813,-1.246338 1.904755,-1.428574c0.622162,-0.257706 1.428558,-0.476212 1.428558,-0.952377c0,-0.952362 -1.868561,0.495163 -2.380951,1.428574c-1.336151,2.434006 -3.223114,3.625183 -4.285706,6.190475c-0.751373,1.813919 -1.282166,2.945724 -1.904755,3.809525c-0.393768,0.546326 -0.812927,-0.139481 -0.476196,-0.476196c0.336731,-0.336716 0.615662,-0.139465 0.952393,-0.476181c0.336731,-0.336716 0.139465,-1.091858 0.476166,-1.428574c0.336731,-0.336716 0.694672,-0.330215 0.952393,-0.952377c0.182251,-0.439941 0.615662,-0.139481 0.952393,-0.476196c0.336731,-0.336716 0.293976,-0.512436 0.476196,-0.952377c0.25769,-0.622162 0.806396,-1.170868 1.428558,-1.428574c0.439941,-0.182236 0.615662,-0.139481 0.952393,-0.476196c0.3367,-0.336716 0.293945,-0.512436 0.476166,-0.952377c0.257721,-0.622177 0.806427,-0.694672 1.428589,-0.952377c0.439941,-0.182236 0.3302,-0.694672 0.952362,-0.952393c0.439941,-0.182236 1.091858,-0.139465 1.428589,-0.476181c0.336731,-0.336716 0.139465,-1.091858 0.476196,-1.428574c0.336731,-0.336716 0.615631,-0.139481 0.952362,-0.476196c0.336731,-0.336716 0.293976,-0.512436 0.476196,-0.952377c0.257721,-0.622177 0.952393,-0.476196 0.952393,-0.952377c0,-0.476196 0.139496,-0.615662 0.476196,-0.952377c0.3367,-0.3367 0.615631,-0.615677 0.952362,-0.952393c0.3367,-0.336716 0.293945,-0.988632 0.476196,-1.428574c0.257721,-0.622162 0.139465,-1.091858 0.476196,-1.428574c0.336731,-0.336716 0.615662,-0.139481 0.952362,-0.476181c0.336731,-0.336716 0.139465,-1.091858 0.476196,-1.428574c0.336731,-0.336716 0.615662,-0.139481 0.952393,-0.476196c0.336731,-0.336716 0.139465,-0.615662 0.476196,-0.952377c0.336731,-0.336716 0.615662,-0.139496 0.952362,-0.476196c0.3367,-0.336716 0.476196,-0.476181 0,-0.476181c-0.476166,0 -0.952362,0 -1.428558,0c-0.952393,0 -1.925201,0.338181 -2.380951,0.476181c-1.64328,0.497543 -2.380951,1.428574 -3.333344,2.380966c-0.952362,0.952377 -1.987183,1.834625 -2.380951,2.380951c-0.622589,0.8638 -1.246338,1.464813 -1.428558,1.904755c-0.257721,0.622177 -0.476196,0.952393 -0.476196,0.476196c0,-0.476196 0.329773,-1.517151 0.952362,-2.380951c0.787537,-1.092651 1.626648,-2.267166 2.380981,-3.809525c0.661591,-1.352722 1.660126,-1.820831 1.904755,-2.857147c0.109406,-0.463455 -0.304138,-0.265259 -1.428589,0.476196c-2.140839,1.411652 -4.121857,2.566208 -5.714264,3.809525c-2.188568,1.708771 -4.761932,3.333328 -7.619049,4.285706l-1.428589,0.476196l-0.952362,0.952377"
       id="svg_9"
       stroke-opacity="null"
       stroke-width="1.5"
       stroke="#000"
       fill="none"
       style="fill:#0000ff" />
    <path
       d="m270.744476,198.696884c0.260437,0 0.183716,-0.350586 0.78125,-0.78125c0.472412,-0.340485 1.57724,-1.020172 2.34375,-1.562485c1.062927,-0.752045 2.228668,-1.697723 3.124969,-2.343735c0.472412,-0.340485 1.353424,-0.778717 1.302094,-0.260422c-0.130859,1.321411 -0.892792,2.193573 -2.083344,3.645813c-1.167419,1.424042 -2.560211,2.401169 -3.906219,3.385406c-0.757935,0.554214 -1.822906,1.302078 -2.083313,1.302078c-0.260437,0 -0.188995,-0.490875 0,-1.041672c0.430969,-1.255981 1.041656,-2.083313 1.822906,-3.385391c0.78125,-1.302078 1.61203,-2.573303 2.083313,-3.385406c0.584564,-1.007278 1.0383,-1.520767 0.78125,-1.562485c-0.812866,-0.131912 -0.62912,1.239868 -1.041656,2.083313c-0.361816,0.739777 -0.941986,1.321899 -1.041656,1.5625c-0.140961,0.340256 -0.761444,0.421173 -0.520844,0.520828c0.34024,0.14093 0.829681,-0.440781 1.302063,-0.78125c0.298767,-0.215332 0.520844,-0.78125 0.78125,-0.78125c0.260437,0 0.597107,-0.184128 0.78125,0c0.368286,0.368286 0,1.041672 0,1.5625c0,0.520828 -0.260406,0.78125 -0.260406,1.041656c0,0.260422 -0.119659,-0.013931 0,-0.520828c0.133789,-0.566727 0.387024,-0.735352 0.520813,-1.302078c0.059814,-0.253433 0.360107,-0.240585 0.260437,0c-0.140961,0.340271 -0.479126,0.263779 -0.520844,0.520828c-0.131897,0.812866 -0.610962,0.964966 -1.041656,1.5625c-0.340485,0.472382 -0.343842,-0.267151 -0.260406,-0.78125c0.131897,-0.812866 0.440765,-1.35051 0.78125,-1.822906c0.215332,-0.298767 0.260406,-0.520828 0.260406,-0.260422c0,0.78125 -0.403717,1.989883 -1.041656,3.124985c-0.687073,1.222549 -1.5625,2.864578 -2.083344,4.166656c-0.520813,1.302078 -1.302063,2.083313 -1.041656,2.083313c0.260406,0 0,-0.520828 0,-1.302078c0,-0.781235 -0.042969,-1.564255 0,-2.083313c0.130676,-1.578659 0.78125,-2.083328 0.78125,-2.864578c0,-0.260406 0.184143,-1.117935 0,-1.302063c-0.184143,-0.184128 -0.527771,-0.05983 -0.78125,0c-0.566711,0.133789 -0.608704,1.122391 -1.041656,1.822906c-0.387238,0.626572 -1.041656,1.041656 -1.041656,1.562485c0,0.260422 -0.360077,0.240601 -0.260406,0c0.14093,-0.340256 0.348267,-0.861984 0.781219,-1.562485c0.193634,-0.313293 0.321533,-0.820892 0.520844,-1.302078c0.14093,-0.340256 0.454041,-0.5737 0.260406,-0.260422c-0.432953,0.7005 -1.149933,1.760696 -1.562469,2.604156c-0.361816,0.739777 -0.78125,1.302078 -0.520844,1.302078c0.260406,0 0.066803,-0.467972 0.260406,-0.78125c0.432953,-0.700531 1.041656,-1.041656 0.78125,-1.041656c-0.260406,0 0,1.041656 0,2.083313c0,1.822906 -0.167419,3.924713 -0.78125,6.770798c-0.679108,3.148758 -1.594299,5.873962 -2.604156,8.854126c-1.115021,3.290588 -1.769958,5.492981 -2.864563,7.812454c-0.745575,1.579834 -1.431274,3.100967 -1.562469,4.166656c-0.063629,0.516922 -0.292267,0.518875 -0.260437,0.260406c0.131195,-1.065674 0.832214,-1.794708 1.822906,-3.645813c0.82431,-1.540207 1.617218,-3.086121 2.34375,-4.166641c0.84729,-1.260101 1.102753,-2.383377 1.302063,-2.864563c0.140961,-0.340271 0.421173,-0.801071 0.520844,-1.041672c0.14093,-0.34024 0.486786,0.033524 0.260406,0.78125c-0.272095,0.898651 -0.958191,1.45079 -1.5625,2.604156c-0.382172,0.729431 -1.149933,1.760696 -1.562469,2.604141c-0.361816,0.739777 -0.701416,1.963852 -1.041656,1.822922c-0.240601,-0.099655 -0.091461,-0.832245 0.520813,-1.822922c0.68454,-1.10762 1.927246,-2.787552 2.864563,-4.166641c1.180176,-1.736435 2.273346,-3.184586 3.385406,-4.427063c0.982452,-1.097672 1.22226,-1.703415 1.5625,-1.562485c0.481171,0.19931 -0.195923,1.58548 -0.78125,3.124985c-0.704834,1.853806 -1.5625,3.906235 -2.604156,5.729141c-1.041656,1.822906 -1.490631,3.182983 -2.34375,4.166641c-0.723877,0.834656 -1.347137,1.524139 -1.562469,1.822906c-0.340485,0.472397 -0.076294,0.857529 -0.260437,1.041656c-0.184143,0.184128 -0.076263,0.3367 -0.260406,0.520828c-0.184143,0.184128 -0.421143,0.540665 -0.520813,0.78125c-0.140961,0.340271 -0.379913,0.440994 -0.520844,0.78125c-0.09964,0.240585 -0.200562,0.527802 -0.260406,0.78125c-0.133789,0.566727 -0.647461,0.735336 -0.78125,1.302063c-0.059845,0.253448 0.184143,0.597122 0,0.78125c-0.184143,0.184128 -0.260406,0.260422 -0.260406,0.520828c0,0.260422 -0.501038,0.681595 -0.260437,0.78125c0.340271,0.140945 0.597107,-0.3367 0.78125,-0.520828c0.184143,-0.184143 0.3367,-0.597107 0.520844,-0.78125c0.184143,-0.184128 0.597107,-0.076248 0.78125,-0.260406c0.184143,-0.184143 0.320251,-0.51387 0.260406,-0.260422c-0.133789,0.566727 -0.701416,0.900726 -1.041656,1.041656c-0.240601,0.09967 -0.379913,0.180588 -0.520844,0.520828c-0.09967,0.240601 -0.076263,0.597122 -0.260406,0.78125c-0.184143,0.184128 -0.260406,0.260422 -0.260406,0.520828c0,0.260422 -0.260437,0.260422 -0.260437,0.520844c0,0.260406 -0.33667,0.076279 -0.520813,0.260406c-0.184143,0.184143 0.184143,0.597107 0,0.78125c-0.184143,0.184158 -0.3367,0.076279 -0.520844,0.260406c-0.184143,0.184128 -0.3367,0.076263 -0.520844,0.260422c-0.184143,0.184143 -0.076263,0.3367 -0.260406,0.520828c-0.184143,0.184143 -0.019836,0.421173 -0.260406,0.520828c-0.34024,0.140945 -0.3367,0.33667 -0.520844,0.520828c-0.184143,0.184143 0,0.520844 0,0.260422c0,-0.260422 0,-0.520828 0,-0.78125c0,-0.260406 -0.184143,-0.597107 0,-0.781235c0.184143,-0.184158 0.3367,-0.076294 0.520844,-0.260422c0.184143,-0.184143 0.379883,-0.440994 0.520813,-0.78125c0.09964,-0.240585 0.152557,-0.412949 0.520844,-0.781235c0.184143,-0.184128 0.3367,-0.44458 0.520844,-0.260422c0.184143,0.184143 -0.379913,0.440994 -0.520844,0.78125c-0.09964,0.240585 -0.260406,0.260406 -0.260406,0.520828c0,0.260406 -0.260437,0.260406 -0.520844,0.520828c-0.260406,0.260422 -0.33667,0.3367 -0.520813,0.520828c-0.184143,0.184143 -0.076294,0.3367 -0.260437,0.520828c-0.184143,0.184128 -0.379883,0.180588 -0.520813,0.520828c-0.09967,0.240601 0.09967,0.540665 0,0.78125c-0.140961,0.340271 -0.260437,0.520828 -0.260437,0.260422c0,-0.260422 0.299316,-0.644348 0.520844,-0.78125c0.495331,-0.306137 0.421204,-0.801071 0.520844,-1.041656c0.14093,-0.340256 0.33667,-0.3367 0.520813,-0.520828c0.184143,-0.184128 0.260406,-0.260422 0.520844,-0.520844c0.260406,-0.260406 0.520813,-0.260406 0.78125,-0.260406c0.260406,0 0.440979,-0.379898 0.78125,-0.520828c0.240601,-0.09964 0.440979,-0.379898 0.781219,-0.520828c0.240601,-0.09967 0.260437,-0.260422 0.520844,-0.260422c0.260406,0 0.3367,-0.076263 0.520844,-0.260422c0.184143,-0.184128 0.076263,-0.3367 0.260406,-0.520828c0.184143,-0.184128 0.076263,-0.336685 0.260406,-0.520828c0.184143,-0.184128 0.3367,-0.076263 0.520844,-0.260422c0.184143,-0.184128 -0.184143,-0.597107 0,-0.781235c0.184143,-0.184128 0.076263,-0.3367 0.260406,-0.520828c0.184143,-0.184128 0.260406,-0.260422 0.260406,-0.520844c0,-0.260406 0.260437,-0.260406 0.260437,-0.520828c0,-0.260406 0.076263,-0.597107 0.260406,-0.781235c0.184143,-0.184128 0.076263,-0.3367 0.260406,-0.520844c0.184143,-0.184128 0.3367,-0.076248 0.520844,-0.260406c0.184143,-0.184143 -0.079834,-0.640305 0.260406,-0.78125c0.24057,-0.099655 0.379883,-0.180557 0.520844,-0.520828c0.09967,-0.240601 0.260406,-0.520828 0.520813,-0.78125c0.260406,-0.260406 0.260406,-0.520828 0.520844,-0.78125c0.260406,-0.260406 0.33667,-0.336685 0.520813,-0.520828c0.184143,-0.184158 0.379913,-0.180573 0.520844,-0.520828c0.09964,-0.240585 0.33667,-0.3367 0.520813,-0.520828c0.184143,-0.184143 0.076294,-0.3367 0.260437,-0.520828c0.184143,-0.184128 0.180573,-0.379898 0.520813,-0.520828c0.240601,-0.09967 0.076294,-0.3367 0.260437,-0.520828c0.184143,-0.184128 0.33667,-0.076294 0.520813,-0.260422c0.184143,-0.184143 0.260437,-0.260422 0,-0.260422c-0.260406,0 -0.180573,0.379898 -0.520813,0.520844c-0.240601,0.09967 -0.183746,0.350555 -0.78125,0.781235c-0.472412,0.3405 -0.78125,0.781265 -1.041656,1.041672c-0.260437,0.260422 -0.379913,0.440994 -0.520844,0.781235c-0.09967,0.240601 -0.260406,0.260422 -0.260406,0.520828c0,0.260422 0,0.520844 0,1.041672c0,0.260406 0,0.520828 0,0.78125c0,0.260406 0.076263,0.704956 0.260406,0.520828c0.184143,-0.184143 0.260406,-0.260422 0.260406,-0.520828c0,-0.260422 0.3367,-0.336716 0.520844,-0.520844c0.184143,-0.184128 -0.184143,-0.597107 0,-0.781235c0.184143,-0.184128 0.160736,-0.280243 0.260406,-0.520844c0.14093,-0.34024 0.3367,-0.33667 0.520844,-0.520828c0.184143,-0.184128 0.260406,-0.520828 0.260406,-0.781235c0,-0.260422 0.260406,-0.260422 0.260406,-0.520844c0,-0.260406 -0.006958,-0.460999 -0.260406,-0.520828c-0.566742,-0.133789 -1.090118,-0.44075 -1.5625,-0.781235c-0.298767,-0.215332 -0.701416,-0.379898 -1.041656,-0.520844c-0.24057,-0.099655 -0.520813,0 -0.520813,-0.260406c0,-0.260422 -0.126648,-0.47493 -0.260437,-1.041672c-0.059845,-0.253433 -0.126617,-0.47493 -0.260406,-1.041656c-0.119659,-0.506897 0,-0.78125 0,-1.302078c0,-0.260406 0,-0.520828 0,-0.260406c0,0.781235 -0.157745,1.567551 -0.260406,2.604141c-0.130859,1.321411 -0.388947,2.312119 -0.520844,3.124985c-0.083435,0.514114 0,1.5625 0,1.302078c0,-0.260406 0.049561,-0.489975 0.520844,-1.302078c0.292267,-0.503632 0.694092,-1.173477 1.041656,-1.822906c0.626556,-1.170746 0.520813,-2.083313 0.520813,-2.604141c0,-0.260422 0.260406,-0.78125 0,-0.78125c-0.260406,0 0.125122,0.791336 0,1.562485c-0.131897,0.812866 -0.671783,2.124176 -1.302063,3.645813c-0.222839,0.537994 -0.025482,1.256363 -0.520844,1.5625c-0.221527,0.136902 -0.260406,0.260406 -0.260406,0c0,-0.520828 0,-1.302078 0,-2.083328c0,-1.041656 -0.179504,-1.843811 0,-2.604156c0.133789,-0.566727 0.520813,-1.041656 0.260406,-1.041656c-0.78125,0 -0.041779,1.552933 -0.260406,2.604156c-0.32254,1.550842 -0.650055,3.100967 -0.78125,4.166641c-0.095459,0.775391 -0.387024,1.516602 -0.520813,2.083328c-0.059814,0.253433 0,-0.260422 0,-0.78125c0,-0.520828 0.309448,-1.287415 0.520813,-2.083328c0.34082,-1.283371 0.154694,-2.214645 0.78125,-3.385391c0.347565,-0.649414 0.78125,-1.5625 0.520844,-1.5625c-0.520844,0 0.085938,1.045227 0,2.083328c-0.130676,1.578659 -0.688843,3.153961 -1.302094,4.947891c-0.453644,1.326981 -1.168274,2.03743 -1.302063,2.604156c-0.059814,0.253433 0.037567,0.017151 0.260406,-0.520828c0.315125,-0.760818 0.71521,-1.604477 1.5625,-2.864578c0.726532,-1.080521 1.860382,-2.319397 2.864563,-3.906219c0.812012,-1.283127 1.50882,-2.626938 2.083313,-3.906235c0.238556,-0.531204 0.78125,-1.041656 0.520844,-1.041656c-0.260406,0 0.119659,0.795166 0,1.302078c-0.401367,1.70018 -1.000244,2.648834 -1.302094,3.645813c-0.272095,0.898636 -1.302032,1.822906 -0.781219,1.822906c0.260437,0 0.037567,-0.503677 0.260406,-1.041672c0.315125,-0.760818 0.466095,-1.582901 0.78125,-2.343735c0.445679,-1.075943 0.608704,-1.903641 1.041656,-2.604156c0.193604,-0.313278 0.28479,-0.493896 0,-0.260406c-0.726105,0.595291 -1.411163,1.150742 -1.822906,1.562485c-0.411743,0.411758 -0.520844,0.520828 -0.520844,0.260422c0,-0.260422 0.08371,-0.991913 0.520844,-1.822906c0.652863,-1.241135 1.041656,-2.604156 1.5625,-3.645813c0.78125,-1.5625 1.240387,-2.95401 1.822906,-4.427063c0.345276,-0.873138 0.781219,-1.822906 0.520813,-1.822906c-0.78125,0 -0.310944,1.533463 -1.041656,2.864563c-0.840637,1.531372 -1.664978,3.174515 -2.604156,5.208313c-0.450134,0.974792 -0.348297,2.164032 -0.78125,2.864563c-0.193604,0.313278 -0.315155,-0.54126 0,-1.302078c0.222839,-0.537979 0.388794,-1.623428 1.041656,-2.864563c0.437134,-0.830994 0.78125,-1.822906 0.78125,-2.343735c0,-0.260422 0.059814,-0.513855 0,-0.260422c-0.267578,1.133453 -0.78125,1.822906 -1.562469,3.124985c-0.78125,1.302078 -1.600067,2.066177 -1.822906,2.604156c-0.315155,0.760834 -0.781281,1.302078 -0.520844,1.302078c0.260437,0 0.260406,-0.78125 0.520844,-1.302078c0.520844,-1.041641 1.302063,-1.822906 1.822906,-3.124985c0.520813,-1.302078 1.054321,-2.419022 1.562469,-3.645813c0.359314,-0.867477 0.743683,-1.319229 0.520844,-0.78125c-0.315125,0.760818 -0.831787,1.793884 -1.5625,3.124985c-0.840637,1.531372 -1.557709,3.049988 -1.822906,4.427063c-0.09848,0.511429 0,0.78125 0.520844,0.78125c0.260406,0 0.575928,0.074432 1.302063,-0.520844c0.569611,-0.46698 1.496552,-1.398773 2.604156,-2.083313c0.990662,-0.612274 2.228699,-1.437302 3.125,-2.083328c0.472382,-0.340469 0.520813,-0.520828 0.520813,-0.260406c0,0.260406 -0.450897,1.061676 -0.78125,2.083313c-0.431488,1.334351 -1.351624,2.83371 -1.822906,3.645813c-0.584564,1.007294 -0.640289,1.482651 -0.78125,1.822906c-0.09967,0.240601 -0.19931,-0.039642 0,-0.520828c0.422821,-1.020752 0.790497,-1.433395 1.5625,-2.604156c0.405487,-0.614914 0.608704,-1.122406 1.041656,-1.822906c0.193634,-0.313278 0.260437,-0.520828 0.260437,-0.260406c0,0.260406 0,0.520828 -0.260437,0.78125c-0.260406,0.260406 -0.565887,0.482468 -0.78125,0.781235c-0.340485,0.472382 -0.629883,0.629913 -1.041656,1.041672c-0.411743,0.411728 -0.857513,0.597107 -1.041656,0.781235c-0.184143,0.184143 -0.379883,0.180588 -0.520813,0.520828c-0.09967,0.240601 -0.260437,0.520844 -0.260437,0.78125c0,0.260422 0,0.520828 0,0.78125c0,0.260422 0.184143,0.597107 0,0.78125c-0.184143,0.184128 -0.44455,0.336685 -0.260406,0.520828c0.184143,0.184128 0.565918,0.038345 0.78125,-0.260422c0.340454,-0.472397 0.482452,-1.086731 0.78125,-1.302078c0.472382,-0.340469 0.33667,-0.597107 0.520813,-0.781235c0.184143,-0.184158 0.076294,-0.3367 0.260437,-0.520844c0.184143,-0.184128 0.520813,-0.520828 0.781219,-0.781235c0.260437,-0.260422 0.260437,-0.520828 0.520844,-0.78125c0.260406,-0.260422 0.379883,-0.440979 0.520844,-0.78125c0.09967,-0.240585 0.076263,-0.597107 0.260406,-0.781235c0.184143,-0.184128 0.260406,-0.260422 0.260406,-0.520844c0,-0.260406 0.160736,-0.280228 0.260406,-0.520828c0.140961,-0.340256 0.3367,-0.336685 0.520844,-0.520828c0.184143,-0.184128 0.180573,-0.379883 0.520844,-0.520828c0.240601,-0.099655 0.421173,-0.280243 0.520813,-0.520828c0.14093,-0.340256 0.3367,-0.3367 0.520844,-0.520828c0.184143,-0.184128 0.076263,-0.3367 0.260406,-0.520844c0.184143,-0.184128 0.3367,-0.076248 0.520844,-0.260406c0.184143,-0.184143 0.280243,-0.421173 0.520813,-0.520828c0.34024,-0.140945 0.3367,-0.33667 0.520844,-0.520828c0.184143,-0.184143 0.260406,-0.260422 0.260406,-0.520844c0,-0.260406 -0.10788,-0.412949 0.260406,-0.781235c0.184143,-0.184158 0.160797,-0.280243 0.260437,-0.520828c0.14093,-0.340256 0.520813,-0.260422 0.520813,-0.520844c0,-0.260406 0.076263,-0.336685 0.260406,-0.520828c0.184143,-0.184158 0.3367,-0.076279 0.520844,-0.260406c0.184143,-0.184143 0.076263,-0.597122 0.260406,-0.78125c0.184143,-0.184158 0.597107,-0.076294 0.78125,-0.260422c0.184143,-0.184128 0.076294,-0.336685 0.260437,-0.520828c0.184143,-0.184128 0.527771,-0.200577 0.781219,-0.260406c0.566742,-0.133789 0.801086,-0.421173 1.041687,-0.520844c0.34024,-0.14093 0.33667,-0.3367 0.520813,-0.520828c0.184143,-0.184128 0.076263,-0.336685 0.260406,-0.520828c0.184143,-0.184158 0.379913,-0.180573 0.520844,-0.520828c0.19931,-0.481186 0.160736,-0.801071 0.260406,-1.041656c0.140961,-0.340271 0.64032,-0.701416 0.78125,-1.041672c0.09964,-0.240585 0.119476,-0.440994 0.260406,-0.781235c0.09967,-0.240601 0.160797,-0.540665 0.260437,-0.78125c0.14093,-0.340256 0.260406,-0.520828 0.260406,-0.78125c0,-0.260406 0.260406,-0.520828 0.260406,-0.78125c0,-0.260406 0.160797,-0.540649 0.260437,-0.781235c0.14093,-0.340256 0.379883,-0.701416 0.520813,-1.041672c0.09964,-0.240585 0.160736,-0.280228 0.260406,-0.520828c0.140961,-0.340256 0.3367,-0.3367 0.520844,-0.520828c0.184143,-0.184143 0.3367,-0.33667 0.520844,-0.520828c0.184143,-0.184143 0.33667,-0.3367 0.520813,-0.520828c0.184143,-0.184128 0.3367,-0.44458 0.520844,-0.260422c0.184143,0.184143 -0.395874,0.605118 -0.78125,1.041656c-0.621399,0.703918 -1.5625,1.302078 -2.34375,2.083328c-0.520813,0.520828 -0.829681,0.961594 -1.302063,1.302078c-0.298767,0.215347 -0.3367,0.857529 -0.520844,1.041656c-0.184143,0.184128 -0.299286,0.383926 -0.520813,0.520828c-0.495361,0.306137 -0.596313,0.770081 -0.520844,0.520844c0.272095,-0.898666 1.020172,-1.316833 1.5625,-2.083328c0.752045,-1.062927 1.652649,-2.006622 2.083313,-2.604156c0.340485,-0.472397 0.900726,-1.222244 1.041656,-1.562485c0.09967,-0.240601 0.302155,-0.257065 0.260437,0c-0.131927,0.812866 -1.146851,2.012604 -2.34375,3.906219c-1.432495,2.266373 -3.341705,4.776581 -4.947876,7.031219c-1.218201,1.710007 -1.822937,2.864563 -2.083344,3.124985c-0.260406,0.260422 -0.188965,0.029953 0,-0.520828c0.430939,-1.255997 0.846863,-2.052216 1.5625,-3.645813c0.574493,-1.279312 1.3526,-2.835556 2.083313,-4.166656c0.560425,-1.020905 1.041656,-2.083313 1.302094,-2.864563c0.260406,-0.78125 0.601746,-1.322983 0.78125,-2.083328c0.133789,-0.566727 0.152527,-0.67337 0.520813,-1.041656c0.184143,-0.184128 0.343842,0.267151 0.260406,0.78125c-0.131897,0.812866 -0.252197,1.409393 -0.781219,2.343735c-0.181458,0.320496 -0.260437,0.520828 -0.260437,0.260422c0,-0.520828 0.229675,-1.060638 1.041656,-2.34375c0.502106,-0.793411 1.168304,-1.256165 1.302094,-1.822906c0.059814,-0.253448 0,0.260422 0,0.78125c0,0.260422 -0.03183,0.518875 0,0.260422c0.131195,-1.065689 0.437378,-1.569229 0.520813,-2.083328c0.131927,-0.812881 0.78125,-1.822906 1.041687,-2.343735c0.260406,-0.520828 0.649323,-1.01004 0.781219,-1.822906c0.041718,-0.257065 0.119659,0.013931 0,0.520828c-0.133789,0.566727 -0.488953,1.058853 -0.781219,1.562485c-0.471283,0.812103 -0.900726,1.482651 -1.041687,1.822922c-0.19931,0.481186 -0.260406,0.520828 -0.260406,0.260406c0,-0.520828 -0.125153,-1.051743 0,-1.822906c0.131897,-0.812866 0.260406,-1.562485 0.260406,-2.343735c0,-0.520828 0.079834,-1.161133 -0.260406,-1.302078c-0.24057,-0.099655 -0.637482,-0.410721 -1.302063,0c-0.495361,0.306137 -0.988007,1.064423 -1.5625,2.343735c-0.715637,1.593613 -1.751312,2.985291 -2.864563,4.687485c-1.274872,1.949341 -1.822906,3.385376 -2.34375,3.906219c-0.260406,0.260422 -0.260406,0 -0.260406,-0.520828c0,-1.041656 0.018188,-2.080414 0.260406,-3.645813c0.281586,-1.819763 0.520844,-3.645813 0.78125,-5.468719c0.260406,-1.822906 1.041656,-3.906235 0.260406,-3.906235c-0.260406,0 0,1.041672 0,1.822906c0,1.302078 -0.499664,2.6073 -0.78125,4.427063c-0.242249,1.565414 -0.260406,2.864563 -0.260406,4.166641c0,0.520828 0,1.041672 0,0c0,-0.520828 0.489929,-1.569046 0.78125,-2.864563c0.235565,-1.047562 0.260406,-1.822906 0.260406,-2.604156c0,-0.520828 0.260437,-1.041656 0.260437,-0.520828c0,0.78125 -0.075439,1.865265 -0.520844,3.385406c-0.557648,1.903259 -1.562531,3.645813 -2.34375,5.729126c-0.78125,2.083328 -1.431641,3.626495 -1.562469,4.947891c-0.051331,0.518295 0,0.78125 0,0.520828c0,-0.781235 0.595978,-1.788605 1.041656,-2.864563c0.63028,-1.521622 0.871124,-3.171082 1.302063,-4.427063c0.37796,-1.101578 0.647461,-1.777008 0.78125,-2.343735c0.059845,-0.253448 0.125122,0.270508 0,1.041656c-0.131897,0.812866 -0.370331,2.132996 -0.78125,3.124985c-0.581116,1.402878 -1.5625,2.604156 -1.041656,2.604156c0.260406,0 0.135254,-0.530914 0.260406,-1.302078c0.131927,-0.812881 1.036896,-1.74791 1.302094,-3.124985c0.147736,-0.767151 0,-1.562485 0,-2.083313c0,-0.260422 -0.379883,-0.340271 -0.520844,0c-0.09967,0.240585 -0.148285,0.815872 -0.520813,1.822906c-0.202026,0.546143 -0.260437,1.302078 -0.520844,1.822906c-0.260406,0.520828 -0.215332,0.298752 0,0c0.340485,-0.472382 0.647461,-0.995773 0.78125,-1.5625c0.119659,-0.506897 0.379883,-0.701401 0.520844,-1.041656c0.09967,-0.240601 0.280243,-0.160767 0.520813,-0.260422c0.34024,-0.14093 0.820892,-0.061081 1.302094,-0.260406c0.34024,-0.140945 0.527771,-0.200592 0.78125,-0.260422c0.566711,-0.133789 0.857513,-0.336685 1.041656,-0.520828c0.368256,-0.368271 0.78125,0 1.041656,0c0.260406,0 0.520813,0 0.78125,0c0.260406,0 0.421143,0.019821 0.520813,0.260422c0.140961,0.340256 0.387054,0.735336 0.520844,1.302063c0.119659,0.506912 -0.368286,1.194214 0,1.5625c0.184143,0.184128 0.180573,0.379898 0.520813,0.520828c0.240601,0.09967 0.520844,0 0.78125,0c0.260437,0 0.78125,0 1.041656,0c0.260437,0 0.520844,0 0.78125,0c0.260437,0 0.580322,0.038574 1.302094,-0.260406c0.34024,-0.140945 0.795197,-0.661591 1.302063,-0.78125c0.566742,-0.133789 0.857513,-0.597122 1.041656,-0.78125c0.184143,-0.184143 0.379913,-0.180588 0.520844,-0.520828c0.09967,-0.240601 0.260406,-0.260422 0.260406,-0.520828c0,-0.260422 0.3367,-0.076294 0.520844,-0.260422c0.184143,-0.184128 0.076263,-0.3367 0.260406,-0.520828c0.184143,-0.184143 0.260406,-0.260422 0.260406,-0.520828c0,-0.260422 0.076294,-0.3367 0.260437,-0.520828c0.184143,-0.184128 0.33667,-0.076294 0.520813,-0.260422c0.184143,-0.184128 0.076294,-0.33667 0.260437,-0.520828c0.184143,-0.184143 0.260406,-0.260422 0,-0.260422c-0.520844,0 -1.041687,0 -1.5625,0c-0.260406,0 -0.801056,-0.099655 -1.041656,0c-0.340271,0.140945 -0.78125,0.520828 -1.041687,0.78125c-0.260406,0.260406 -0.222839,-0.243256 0,-0.78125c0.315155,-0.760818 0.58194,-1.081299 0.78125,-1.562485c0.281891,-0.680496 0.629089,-0.167984 0.260437,0.520828c-0.443054,0.827835 -1.190002,1.336716 -1.5625,2.343735c-0.202026,0.546127 -0.78125,1.302078 -0.520844,1.302078c0.520813,0 -0.083435,-0.787979 0,-1.302078c0.131927,-0.812866 0.200623,-1.309052 0.260437,-1.562485c0.133789,-0.566727 0.260406,-0.78125 0.260406,-1.041672c0,-0.260406 0,0 0,0.78125c0,1.041672 -0.205688,2.103745 -0.520844,2.864578c-0.222839,0.537979 -0.260406,1.041656 -0.260406,1.302063c0,0.260422 -0.19931,-0.039642 0,-0.520828c0.281891,-0.680496 0.78125,-1.041656 1.041656,-1.562485l0,-0.78125l0.260406,-0.260406l0,-0.260422"
       id="svg_10"
       stroke-opacity="null"
       stroke-width="1.5"
       stroke="#000"
       fill="none"
       style="fill:#0000ff" />
    <path
       d="m283.244415,211.45723c-0.260406,0.520828 -0.520813,0.78125 -0.520813,1.041672c0,0.260406 0,0.520828 -0.260437,0.520828c-0.260406,0 -0.160736,0.280228 -0.260406,0.520828c-0.14093,0.340256 -0.3367,0.597107 -0.520844,0.78125c-0.184143,0.184128 -0.260406,0.260406 -0.520813,0.260406c-0.260437,0 -0.3367,0.076279 -0.520844,0.260422c-0.184143,0.184128 -0.520813,0 -0.520813,0.260406c0,0.260422 -0.076294,0.3367 -0.260437,0.520844c-0.184143,0.184128 -0.421143,0.280228 -0.520813,0.520828c-0.140961,0.340256 -0.299316,0.383926 -0.520844,0.520828c-0.495331,0.306137 -0.33667,0.597122 -0.520813,0.78125c-0.184143,0.184128 -0.019836,0.421158 -0.260437,0.520828c-0.34024,0.14093 -0.076263,0.597107 -0.260406,0.78125c-0.184143,0.184128 -0.3367,0.076248 -0.520844,0.260406c-0.184143,0.184143 -0.076263,0.3367 -0.260406,0.520828c-0.184143,0.184143 -0.076263,0.3367 -0.260406,0.520828c-0.184143,0.184128 -0.260406,-0.260406 -0.260406,-0.520828c0,-0.520828 -0.09967,-0.801056 0,-1.041656c0.14093,-0.340256 0.379883,-0.440994 0.520813,-0.78125c0.09964,-0.240585 0.260406,-0.260406 0.260406,-0.520828c0,-0.260422 0.520844,-0.520828 0.260437,-0.520828c-0.520844,0 -0.387054,0.735352 -0.520844,1.302078c-0.059814,0.253433 0.10788,0.67337 -0.260406,1.041656c-0.184143,0.184128 -0.280243,0.421158 -0.520844,0.520828c-0.34024,0.140945 -0.520813,0.520828 -0.520813,0.78125c0,0.260422 -0.160797,0.280243 -0.260437,0.520828c-0.14093,0.340256 -0.597076,0.3367 -0.781219,0.520828c-0.184143,0.184143 -0.3367,0.076294 -0.520844,0.260422c-0.184143,0.184128 -0.308838,0.440765 -0.78125,0.78125c-0.298767,0.215332 -0.48996,0.309952 -1.302063,0.781235c-0.503662,0.292282 -1.122375,0.608734 -1.822906,1.041672c-0.626556,0.387238 -0.935944,0.914841 -1.5625,1.302078c-0.7005,0.432953 -1.284943,0.558395 -1.822906,0.781235c-0.760834,0.31514 -1.319275,0.488983 -1.822906,0.78125c-0.812103,0.471283 -2.091309,1.018829 -2.864563,1.302078c-1.316833,0.482361 -2.652588,0.961594 -3.125,1.302078c-0.298767,0.215332 -0.260406,0 -0.260406,-0.260422c0,-0.260406 0.123505,-0.559723 0.260406,-0.78125c0.306152,-0.495346 1.024506,-0.297989 1.5625,-0.520828c0.760834,-0.31514 1.348145,-0.350281 2.604156,-0.781235c0.550781,-0.18898 0.995758,-0.907883 1.5625,-1.041672c0.506866,-0.119659 0.306122,-0.495316 0,0c-0.136902,0.221527 -0.565918,1.003326 -0.78125,1.302078c-0.680969,0.944778 -0.961609,1.35051 -1.302094,1.822906c-0.215332,0.298767 -0.260406,0.520828 -0.260406,0.260422c0,-0.260422 0,-0.78125 0,-1.302078c0,-1.041656 -0.179474,-1.583405 0,-2.343735c0.133789,-0.566727 0.140747,-1.055603 0.260406,-1.5625c0.133789,-0.566727 0.520844,-1.041656 0.520844,-0.78125c0,0.260422 0,0.78125 0,1.302078c0,0.78125 0,1.5625 0,2.604156c0,0.520828 0.059845,1.04863 0,1.302078c-0.133789,0.566727 -0.074463,0.205292 0.520813,-0.520828c0.70047,-0.854431 1.389954,-1.903641 1.822906,-2.604156c0.387238,-0.626572 0.965393,-1.117935 0.78125,-1.302078c-0.184143,-0.184128 -0.394012,0.154678 -0.78125,0.78125c-0.432953,0.700516 -0.735504,1.32756 -1.041656,1.822906c-0.410736,0.664566 -0.379883,0.701416 -0.520813,1.041656c-0.09967,0.240601 0,0 0,-0.520828c0,-0.520828 0.260406,-1.302078 0.520813,-1.822906c0.260437,-0.520828 0.412994,-0.673386 0.78125,-1.041656c0.184143,-0.184143 0,0.520828 0,1.041656c0,0.520828 -0.205658,1.062088 -0.520813,1.822906c-0.222839,0.537979 -0.228577,0.798447 -0.520844,1.302078c-0.471283,0.812103 -0.520844,1.302078 -0.78125,1.822906c-0.260406,0.520828 -0.260406,0.78125 -0.260406,1.041656c0,0.260422 -0.160736,0.280243 -0.260406,0.520844c-0.140961,0.340256 -0.260437,0.520828 -0.260437,0.781235c0,0.260422 0,0.520828 0,0.78125c0,0.260422 -0.260406,0.520828 -0.260406,0.78125c0,0.260406 0,0.781235 0,1.041656c0,0.260422 -0.260437,0.78125 0,0.78125c0.260437,0 0,-0.520828 0,-0.78125c0,-0.260422 -0.079834,-0.640305 0.260406,-0.78125c0.240601,-0.09967 0.076294,-0.336685 0.260437,-0.520828c0.184143,-0.184128 0.520813,-0.260406 0.781219,-0.520828c0.260437,-0.260437 0.44101,-0.379898 0.78125,-0.520828c0.240601,-0.09967 0.597107,0.184128 0.78125,0c0.184143,-0.184143 0.280243,-0.421158 0.520844,-0.520828c0.34024,-0.140945 0.640289,-0.180573 0.78125,-0.520828c0.09967,-0.240601 0.076263,-0.3367 0.260406,-0.520844c0.368256,-0.368271 0.597107,-0.076248 0.78125,-0.260406c0.184143,-0.184143 0.076263,-0.597107 0.260406,-0.78125c0.184143,-0.184128 0.379883,-0.180557 0.520844,-0.520828c0.09967,-0.240601 0,-0.520828 0,-0.78125c0,-0.260406 -0.059814,-0.788223 0,-1.041656c0.133789,-0.566727 0.260406,-0.78125 0.260406,-1.041656c0,-0.260422 -0.293915,-0.486816 -1.041656,-0.260422c-0.898651,0.272095 -1.663818,0.952057 -2.34375,1.822906c-0.934479,1.196869 -1.256348,1.587982 -1.5625,2.083328c-0.273804,0.443039 0,0.260406 0,0c0,-0.520828 0,-1.041672 0,-1.822906c0,-0.520844 -0.119659,-1.31601 0,-1.822906c0.133789,-0.566742 0.520844,-1.302078 0.520844,-1.5625c0,-0.260406 0.076263,-0.597122 0.260406,-0.78125c0.184143,-0.184128 0,0 0,0.520844c0,0.520828 0.179504,1.322968 0,2.083313c-0.133789,0.566727 -0.741577,1.102768 -0.260406,1.302078c0.34024,0.14093 0.140747,-0.795181 0.260406,-1.302078c0.133789,-0.566727 0.401184,-1.31601 0.520844,-1.822906c0.133789,-0.566727 0.260406,-1.041656 0.260406,-1.562485c0,-0.260422 -0.318787,0.235107 -0.520813,0.781235c-0.372528,1.007034 -0.907898,2.03743 -1.041687,2.604156c-0.059845,0.253448 -0.059845,0.774277 0,0.520828c0.133789,-0.566727 0.64032,-0.961823 0.78125,-1.302078c0.19931,-0.481186 0.260437,-0.781235 0.260437,-1.041656c0,-0.260406 -0.238953,0.36116 -0.520844,1.041656c-0.298981,0.721771 -0.769562,1.705505 -1.041656,2.604156c-0.150909,0.498489 -0.260406,1.041672 -0.260406,1.302078c0,0.260422 0,-0.260406 0,-0.78125c0,-0.781235 0.649323,-1.530869 0.781219,-2.343735c0.083435,-0.514099 0.196808,-1.045563 0.260437,-1.562485c0.131195,-1.065689 0.260406,-1.5625 0.260406,-1.822906c0,-0.260422 0,-0.520844 0,0c0,0.781235 0,1.822906 -0.260406,2.604141c-0.260437,0.78125 -0.260437,1.302078 -0.260437,2.083328c0,0.260422 -0.260437,0.78125 0,0.78125c0.520813,0 0.205719,-1.062103 0.520844,-1.822906c0.222839,-0.537979 0.726532,-1.062103 1.041656,-1.822906c0.222839,-0.537979 0.63031,-1.064026 0.78125,-1.5625c0.272095,-0.898666 0.826324,-1.263733 1.041656,-1.562485c0.340485,-0.472382 0.446381,-0.836395 1.041656,-1.5625c0.23349,-0.284805 0.882965,-0.914536 1.5625,-1.562485c1.098969,-1.047882 2.013306,-1.376068 3.385406,-2.604156c1.242462,-1.112061 2.820618,-1.880341 4.166626,-2.864563c1.515869,-1.108429 2.911224,-1.756165 4.427063,-2.864578c1.346008,-0.984238 2.588043,-2.103775 3.90625,-3.124985c1.029327,-0.797409 1.488037,-1.617599 2.083313,-2.343735c0.23349,-0.284805 0.520844,-0.520828 0.520844,-0.78125c0,-0.260406 0.160736,-0.280228 0.260406,-0.520828c0.14093,-0.34024 0.160767,-0.540649 0.260406,-0.781235c0.14093,-0.340256 0.520844,-0.520844 0.520844,-0.78125c0,-0.260422 0.260406,-0.78125 0.520813,-1.041656c0.260437,-0.260422 0.520844,-0.78125 0.78125,-1.041672c0.260406,-0.260406 0.379883,-0.440979 0.520844,-0.78125c0.09967,-0.240585 0.180573,-0.379883 0.520813,-0.520828c0.240601,-0.09967 0.3367,-0.336685 0.520844,-0.520828c0.184143,-0.184128 0.440979,-0.119476 0.78125,-0.260406c0.240601,-0.09964 0.214508,-0.387054 0.78125,-0.520844c0.506866,-0.119659 0.840698,-0.221893 1.562469,-0.520828c0.340271,-0.14093 0.64032,-0.440994 0.78125,-0.781235c0.09967,-0.240601 0.260437,-0.520844 0.260437,-0.78125c0,-0.260422 -0.260437,-0.260422 -0.520844,-0.260422c-0.260406,0 -0.520844,0 -0.78125,0c-0.260406,0 -0.421143,0.280243 -0.520813,0.520828c-0.140961,0.340271 -0.520844,0.520844 -0.520844,0.78125c0,0.260422 -0.379883,0.701401 -0.520844,1.041656c-0.09967,0.240601 0,0.520844 0,0.78125c0,0.260422 -0.160767,0.280243 -0.260406,0.520828c-0.14093,0.340256 -0.520844,0.520828 -0.520844,0.78125c0,0.260422 -0.260406,0.260422 -0.260406,0.520828c0,0.260422 -0.260406,0.520828 -0.260406,0.78125c0,0.260422 -0.076263,0.3367 -0.260406,0.520828c-0.184143,0.184158 -0.379913,0.180588 -0.520844,0.520828c-0.09967,0.240601 -0.260406,0.260422 -0.260406,0.520828c0,0.260422 -0.379913,0.180588 -0.520844,0.520844c-0.09964,0.240585 -0.076263,0.336685 -0.260406,0.520828c-0.184143,0.184128 -0.3367,0.336685 -0.520844,0.520828c-0.184143,0.184128 -0.33667,0.076279 -0.520813,0.260406c-0.184143,0.184143 -0.379913,0.180588 -0.520844,0.520844c-0.09964,0.240585 -0.076263,0.336685 -0.260406,0.520828c-0.184143,0.184128 -0.421173,0.280228 -0.520844,0.520828c-0.14093,0.34024 -0.299286,0.383926 -0.520813,0.520828c-0.495361,0.306137 -0.520844,0.78125 -0.520844,1.041656c0,0.260422 -0.260406,0.260422 -0.260406,0.520844c0,0.260406 -0.076263,0.336685 -0.260406,0.520828c-0.184143,0.184158 -0.3367,0.076279 -0.520844,0.260406c-0.184143,0.184143 -0.180359,0.308853 -0.520844,0.78125c-0.215332,0.298767 -0.33667,0.3367 -0.520813,0.520828c-0.184143,0.184128 -0.260406,0.260422 -0.520844,0.260422c-0.260406,0 -0.33667,0.076279 -0.520813,0.260406c-0.184143,0.184158 -0.302155,-0.784592 -0.260437,-1.041656c0.131927,-0.812881 0.309479,-1.547821 0.520844,-2.343735c0.34082,-1.283386 0.198273,-2.355362 0.520844,-3.906235c0.218628,-1.051208 0.408691,-2.11795 0.781219,-3.124985c0.202026,-0.546143 0.061127,-1.341721 0.260437,-1.822906c0.14093,-0.34024 0.180328,-0.829697 0.520813,-1.302078c0.215363,-0.298767 0.160797,-0.540649 0.260437,-0.781235c0.14093,-0.340256 0.076263,-0.597122 0.260406,-0.78125c0.184143,-0.184128 0.260406,0.260406 0.260406,0.520828c0,0.260422 0.260406,0.260422 0.520844,0.260422c0.260406,0 0.260406,-0.260422 0.520813,-0.260422c0.260437,0 0.076294,0.3367 0.260437,0.520828c0.184143,0.184128 0.260406,-0.260406 0.260406,-0.520828l0.260406,0l0.260406,-0.260422l0,-0.260406"
       id="svg_11"
       stroke-opacity="null"
       stroke-width="1.5"
       stroke="#000"
       fill="none"
       style="fill:#0000ff" />
  </g>
  <ellipse
     style="fill:#0000ff;stroke:#f9f9f9"
     id="path3357"
     cx="282.42023"
     cy="222.29364"
     rx="38.511852"
     ry="34.795795" />
</svg>
