<?xml version="1.0" encoding="UTF-8" standalone="no"?>
<svg
   xmlns:dc="http://purl.org/dc/elements/1.1/"
   xmlns:cc="http://creativecommons.org/ns#"
   xmlns:rdf="http://www.w3.org/1999/02/22-rdf-syntax-ns#"
   xmlns:svg="http://www.w3.org/2000/svg"
   xmlns="http://www.w3.org/2000/svg"
   id="svg2"
   height="1000"
   width="1000"
   viewBox="0 0 50 50"
   version="1.1">
  <metadata
     id="metadata24">
    <rdf:RDF>
      <cc:Work
         rdf:about="">
        <dc:format>image/svg+xml</dc:format>
        <dc:type
           rdf:resource="http://purl.org/dc/dcmitype/StillImage" />
        <dc:title></dc:title>
      </cc:Work>
    </rdf:RDF>
  </metadata>
  <style
     id="style4"
     type="text/css">
#P0,P1 {stroke:#000;stroke-width:.99999958}
#P0 {fill:url(#L0)}
#P1 {fill:url(#R0)}
#P2 {fill:#fff}
</style>
  <defs
     id="defs6">
    <linearGradient
       y2="44.297081"
       x2="38.992043"
       y1="6.3660479"
       x1="9.94695"
       gradientUnits="userSpaceOnUse"
       id="L0">
      <stop
         offset="0"
         id="stop9"
         style="stop-color:#ff0000;stop-opacity:1" />
      <stop
         id="stop11"
         offset="1"
         style="stop-color:#300000;stop-opacity:1" />
    </linearGradient>
    <radialGradient
       r="23"
       fy="25.066313"
       fx="24.933687"
       cy="25.066313"
       cx="24.933687"
       gradientUnits="userSpaceOnUse"
       id="R0">
      <stop
         offset="0"
         id="stop14"
         style="stop-color:#a00000;stop-opacity:1" />
      <stop
         id="stop16"
         offset="0.78571427"
         style="stop-color:#a00000;stop-opacity:1" />
      <stop
         id="stop18"
         offset="1"
         style="stop-color:#a00000;stop-opacity:0" />
    </radialGradient>
  </defs>
  <path
     style="stroke-width:0.25;stroke-miterlimit:4;stroke-dasharray:none"
     transform="translate(-.134407,-1.537613e-5)"
     d="M49.634373,24.99999C 49.634373,38.530961 38.665353,49.499981 25.134382,49.499981C 11.603411,49.499981 .63439133,38.530961 .63439133,24.99999C .63439133,11.469019 11.603411,0.49999979 25.134382,0.49999979C 38.665353,0.49999979 49.634373,11.469019 49.634373,24.99999z"
     id="P0" />
  <path
     transform="translate(-1.502943e-5,-1.537613e-5)"
     d="M49.499981,24.99999C 49.499981,38.530961 38.530961,49.499981 24.99999,49.499981C 11.469019,49.499981 .49999979,38.530961 .49999979,24.99999C .49999979,11.469019 11.469019,0.49999979 24.99999,0.49999979C 38.530961,0.49999979 49.499981,11.469019 49.499981,24.99999z"
     id="P1" />
</svg>
