<svg width="359.406" height="350.313" xmlns="http://www.w3.org/2000/svg">

 <g>
  <title>background</title>
  <rect fill="none" id="canvas_background" height="352.313" width="361.406" y="-1" x="-1"/>
 </g>
 <g>
  <title>Layer 1</title>
  <g stroke="null" id="svg_1" stroke-width="5">
   <path stroke="#000" id="svg_2" stroke-linejoin="bevel" stroke-linecap="round" fill="#784421" d="m0.497,2.485l357.417013,0l0,344.340022l-357.417013,0l0,-344.340022z"/>
   <g stroke="null" id="svg_3" fill="none">
    <path stroke="#502d16" id="svg_4" d="m160.345715,19.189983l-134.594713,-0.863189l-0.595388,146.782512"/>
    <path stroke="#a05a2c" id="svg_5" d="m25.441141,164.246117l134.594271,0.863189l0.595388,-146.782512"/>
   </g>
   <g stroke="null" id="svg_6" fill="none">
    <path stroke="#502d16" id="svg_7" d="m331.953118,19.561661l-134.594713,-0.863189l-0.595388,146.782512"/>
    <path stroke="#a05a2c" id="svg_8" d="m197.047536,164.617795l134.594271,0.863189l0.595388,-146.782512"/>
   </g>
   <g stroke="null" id="svg_9" fill="none">
    <path stroke="#502d16" id="svg_10" d="m161.15047,184.61661l-134.594713,-0.863189l-0.595388,146.782512"/>
    <path stroke="#a05a2c" id="svg_11" d="m26.245896,329.672744l134.594271,0.863189l0.595388,-146.782512"/>
   </g>
   <g stroke="null" id="svg_12" fill="none">
    <path stroke="#502d16" id="svg_13" d="m332.757873,184.988288l-134.594713,-0.863189l-0.595388,146.782512"/>
    <path stroke="#a05a2c" id="svg_14" d="m197.854308,330.044422l134.594271,0.863189l0.595388,-146.782512"/>
   </g>
   <path stroke="#000" id="svg_15" fill="#bb8504" d="m68.571389,173.795026c0,9.226575 -12.416217,16.706265 -27.732778,16.706265s-27.732778,-7.479049 -27.732778,-16.705624c0,-9.227856 12.416217,-16.707547 27.732778,-16.707547s27.732778,7.480331 27.732778,16.706906z"/>
   <path stroke="#714e00" id="svg_16" stroke-linecap="round" fill="none" d="m49.309714,161.109928s18.212871,6.251232 12.368819,16.870316c-6.077008,11.040105 -27.26485,8.422982 -27.26485,8.422982"/>
  </g>
 </g>
</svg>