<?xml version="1.0"?><svg width="1600" height="1200" xmlns="http://www.w3.org/2000/svg">
 <title>Conclave Tags, Flame , Spirit</title>
 <metadata id="metadata7">image/svg+xml</metadata>
 <g>
  <title>Layer 1</title>
  <path transform="rotate(12.3389 855.589 586.458)" fill="#e73900" fill-rule="evenodd" stroke-width="1.0000002pt" id="path2041" d="m816.695984,1145.77002c2.231018,-65.719971 -135.08197,-94.23999 -190.315002,-145.559998c-91.47699,-39.210022 -120.453979,-100.236023 -122.472992,-160.332031c-7.434998,-96.110962 140.485992,-669.187988 355.985992,-823.09729c-82.584961,236.340302 122.439026,551.159302 249.106018,655.308289c85.709961,80.921997 117.939941,174.093018 87.060059,265.770996c-15.170044,73.140015 -119.780029,117.089966 -176.370056,182.690063c-56.612,39.51001 -133.651978,43.26001 -202.994019,25.219971z"/>
  <rect transform="rotate(19.8923 155.52 131.441)" id="svg_8" height="217.806141" width="9.250377" y="22.537468" x="150.894832" stroke-linecap="null" stroke-linejoin="null" stroke-dasharray="null" stroke-width="1.0000002pt" fill="#ffffff"/>
  <path transform="rotate(-8.3519 557.493 735.589)" fill="#e73900" fill-rule="evenodd" stroke-width="1.0000004pt" id="path2043" d="m347.463562,1076.671631c-312.586731,-334.093933 64.848083,-363.931885 -31.426453,-821.322678c236.110168,215.779556 302.028259,480.457993 401.151978,558.742233c68.410583,61.48053 102.149597,135.692505 92.951904,211.939087c-0.927307,60.343384 108.613953,133.462769 78.660706,189.79895c-159.272156,-88.808594 -433.223541,-30.926025 -541.338135,-139.157593l0,0z">Camp Manatoc</path>
  <path transform="rotate(4.53346 1096.02 666.727)" fill="#e73900" fill-rule="evenodd" stroke-width="1.0000002pt" id="path2063" d="m886.913574,1156.514771c26.95105,-54.109985 -26.383972,-139.878174 -43.179443,-190.063293c-45.565735,-45.18927 -41.162842,-99.752258 -19.214905,-149.794983c32.307678,-80.618591 37.641541,-461.061005 559.017151,-639.717377c-404.352905,265.401886 -135.861328,481.095123 -92.0896,584.955048c25.571899,78.930176 12.499512,161.196533 -45.16626,232.179932c-79.613647,98 -292.179321,152.011597 -359.366943,162.440674z"/>
  <path transform="rotate(7.67647 844.424 594.257)" fill="#e78c00" fill-rule="evenodd" stroke-width="1.0000000pt" id="path1305" d="m817.591858,1076.51062c1.538086,-57.198608 -93.133972,-82.012634 -131.215515,-126.683716c-63.069946,-34.121521 -83.048157,-87.232788 -84.440308,-139.535034c-5.126465,-83.647278 120.69635,-525.892517 221.602966,-716.350937c-68.857849,431.727524 108.253418,479.680283 195.585571,570.321945c59.096863,70.42749 81.31427,151.515198 60.027527,231.303101c-10.458618,63.656616 -55.542053,121.678589 -94.560425,178.77301c-39.030579,34.383911 -119.191223,17.869873 -166.999817,2.171631z"/>
  <path transform="rotate(-10.8689 591.698 752.905)" fill="#e78c00" fill-rule="evenodd" stroke-width="1.0000004pt" id="path2061" d="m464.059204,1044.549316c-297.293106,-297.59375 26.633362,-318.318726 -55.816437,-727.022339c97.917816,192.641418 179.114471,337.357666 214.768707,474.142578c52.763916,48.301147 235.079651,343.156616 224.15271,396.61438c-114.898865,-63.775513 -297.501831,-58.045288 -383.10498,-143.734619z">Camp Manatoc</path>
  <path transform="rotate(-11.5239 564.52 752.521)" fill="#e7e100" fill-rule="evenodd" stroke-width="1.0000004pt" id="path2051" d="m475.197113,921.825806c-149.236725,-180.500977 -37.786346,-286.479004 -39.120728,-511.925995c41.25592,197.310028 171.746002,245.928009 170.070282,364.454987c21.557068,35.455994 134.432983,288.297058 124.994751,320.787048c-50.188599,-51.219971 -199.400635,-104.927002 -255.944305,-173.31604z"/>
  <path transform="rotate(9.20332 1026.37 757.21)" fill="#e78c00" fill-rule="evenodd" stroke-width="1.0000002pt" id="path2045" d="m853.1828,997.289856c-36.700134,-36.780029 -33.153931,-81.189453 -15.476379,-121.919861c26.021484,-65.616455 140.350037,-430.3367 303.675537,-509.664703c-117.949097,149.931366 37.147583,380.559845 72.402588,465.093048c20.596558,64.242432 26.356689,140.229675 -36.378174,188.974121c-94.772339,73.637329 -214.398499,116.520752 -281.436279,126.802246c-42.616089,20.216675 -29.259827,-108.438354 -42.787292,-149.284851z"/>
  <path transform="rotate(10.5184 849.738 716.641)" fill="#e7e100" fill-rule="evenodd" stroke-width="0.99999981pt" id="path1310" d="m823.994629,1046.01123c3.030884,-38.139893 -53.634399,-56.44397 -75.161194,-86.952148c-37.104797,-23.930359 -47.311035,-59.73999 -46.237793,-94.663757c-0.054199,-55.908997 -2.620483,-404.415588 92.65155,-491.05426c-42.169739,136.195313 116.636292,339.220642 166.428101,401.313843c33.356812,48.082703 43.896912,102.597595 28.030457,155.443237c-8.695618,42.284241 -38.241333,80.168213 -64.062012,117.544312c-24.999573,22.222778 -73.145081,9.724854 -101.649109,-1.631226z">goes brighter</path>
  <path transform="rotate(13.464 992.829 775.41)" fill="#e7e100" fill-rule="evenodd" stroke-width="0.99999981pt" id="path2047" d="m828.723022,1063.083252c26.780701,-30.569458 -6.419312,-66.759705 -3.970337,-100.081238c-14.103821,-33.624634 0.700073,-67.157959 23.872803,-95.78302c35.696655,-46.477722 98.427917,-391.880371 229.296143,-428.600464c-120.471741,97.564026 88.729736,358.425232 88.490112,428.457153c-4.303589,52.30719 -85.944458,123.001099 -132.299927,161.039185c-33.916626,31.916504 -101.038879,62.588989 -145.390808,84.087524c-34.012024,-16.11377 -44.675171,-29.129883 -59.997986,-49.119141z"/>
  <path transform="rotate(11.4502 820.824 806.284)" fill="#ffff9e" fill-rule="evenodd" stroke-width="1.0000011pt" id="path2049" d="m775.913452,971.594971c-85.571045,-117.133118 -53.824036,-247.810486 -17.433777,-390.342041c16.577393,96.710571 85.632202,214.070862 124.669067,252.55719c26.941895,30.225281 40.229187,66.709106 36.606812,104.194397c-0.365295,29.666565 -17.694275,65.613403 -29.49054,93.310425c-62.724792,-43.66333 -71.773376,-6.510864 -114.351563,-59.719971z"/>
  <path transform="rotate(7.95645 963.934 813.09)" fill="#ffff9e" fill-rule="evenodd" stroke-width="1.0000011pt" id="path2065" d="m849.517761,922.421631c78.918945,-132.527527 0.793274,-236.861938 181.667419,-340.829712c-54.012512,96.385803 69.519531,248.578369 56.077759,301.351624c-22.604858,88.748962 -178.70575,154.803772 -218.165894,161.643982c9.401245,-72.978271 -53.022766,-59.129028 -19.579285,-122.165894z"/>
  <path transform="rotate(-21.3288 638.532 871.106)" fill="#ffff9e" fill-rule="evenodd" stroke-width="1.0000011pt" id="path2067" d="m517.28949,630.067261c176.423645,356.684021 172.524902,176.607361 242.484619,482.07666c-333.472443,-237.360046 -183.80603,-215.935486 -242.484619,-482.07666z"/>
  <text transform="rotate(-0.225035 119.591 25.2803) matrix(4.79899 0 0 1.20895 -281.125 19.2355)" xml:space="preserve" text-anchor="middle" font-family="Arial" font-size="24" id="svg_1" y="12.970503" x="83.678699" stroke-linecap="null" stroke-linejoin="null" stroke-dasharray="null" stroke-width="0" fill="#000000"/>
  <text xml:space="preserve" text-anchor="middle" font-family="Arial" font-size="24" id="svg_4" y="19.146667" x="-206.146667" stroke-linecap="null" stroke-linejoin="null" stroke-dasharray="null" stroke-width="0" fill="#000000"/>
 </g>
</svg>