<?xml version="1.0" encoding="UTF-8" standalone="no"?>
<svg
   xmlns:dc="http://purl.org/dc/elements/1.1/"
   xmlns:cc="http://creativecommons.org/ns#"
   xmlns:rdf="http://www.w3.org/1999/02/22-rdf-syntax-ns#"
   xmlns:svg="http://www.w3.org/2000/svg"
   xmlns="http://www.w3.org/2000/svg"
   version="1.1"
   id="svg3140"
   height="400"
   width="400">
  <metadata
     id="metadata3151">
    <rdf:RDF>
      <cc:Work
         rdf:about="">
        <dc:format>image/svg+xml</dc:format>
        <dc:type
           rdf:resource="http://purl.org/dc/dcmitype/StillImage" />
        <dc:title></dc:title>
      </cc:Work>
    </rdf:RDF>
  </metadata>
  <defs
     id="defs3149" />
  <g
     id="g3142">
    <title
       id="title3144">Layer 1</title>
    <rect
       id="svg_9"
       height="400"
       width="400"
       y="3.164001"
       x="2.424988"
       stroke-linecap="null"
       stroke-linejoin="null"
       stroke-dasharray="null"
       stroke-width="6"
       stroke="#000000"
       fill="#000000" />
  </g>
  <path
     id="path3153"
     d="m -0.29114298,202.90435 0,-202.54237569 202.54237298,0 202.54237,0 0,202.54237569 0,202.54237 -202.54237,0 -202.54237298,0 0,-202.54237 z"
     style="fill:#ff7f2a" />
  <path
     id="path3155"
     d="m -0.29114298,202.90435 0,-202.54237569 202.54237298,0 202.54237,0 0,202.54237569 0,202.54237 -202.54237,0 -202.54237298,0 0,-202.54237 z"
     style="fill:#ff7f2a" />
  <g
     transform="matrix(0.31022683,0,0,0.35049338,-35.629105,-7.7091111)"
     id="g3190">
    <title
       id="title3192">Layer 1</title>
    <path
       style="fill:#e73900;fill-rule:evenodd;stroke-width:1.00000019pt"
       transform="matrix(0.97690072,0.21369369,-0.21369369,0.97690072,145.08586,-169.28721)"
       id="path2041"
       d="M 816.69598,1145.77 C 818.927,1080.05 681.61401,1051.53 626.38098,1000.21 534.90399,961 505.927,899.974 503.90799,839.87799 496.47299,743.76703 644.39398,170.69 859.89398,16.780701 777.30902,253.121 982.33301,567.94 1109,672.08899 c 85.71,80.922 117.9399,174.09302 87.0601,265.771 C 1180.89,1011 1076.28,1054.95 1019.69,1120.55 c -56.612,39.5101 -133.65198,43.2601 -202.99402,25.22 z" />
    <rect
       style="fill:#ffffff;stroke-width:1.00000019pt;stroke-dasharray:none"
       transform="matrix(0.94033386,0.34025318,-0.34025318,0.94033386,54.002496,-45.073598)"
       id="svg_8"
       height="217.80614"
       width="9.2503767"
       y="22.537468"
       x="150.89484"
       stroke-linecap="null"
       stroke-linejoin="null" />
    <path
       style="fill:#e73900;fill-rule:evenodd;stroke-width:1.00000038pt"
       transform="matrix(0.98939462,-0.14525248,0.14525248,0.98939462,-100.9337,88.77844)"
       id="path2043"
       d="M 347.46356,1076.6716 C 34.876831,742.5777 412.31164,712.73975 316.03711,255.34895 c 236.11017,215.77956 302.02826,480.458 401.15198,558.74224 68.41058,61.48053 102.14959,135.6925 92.9519,211.93911 -0.92731,60.3434 108.61395,133.4627 78.66071,189.7989 -159.27216,-88.8086 -433.22354,-30.926 -541.33814,-139.1576 l 0,0 z">Camp Manatoc</path>
    <path
       style="fill:#e73900;fill-rule:evenodd;stroke-width:1.00000019pt"
       transform="matrix(0.99687134,0.07904127,-0.07904127,0.99687134,56.128017,-84.544853)"
       id="path2063"
       d="M 886.91357,1156.5148 C 913.86462,1102.4048 860.5296,1016.6366 843.73413,966.45148 798.1684,921.26221 802.57129,866.69922 824.51923,816.6565 856.8269,736.0379 862.16077,355.59549 1383.5364,176.93912 979.18347,442.341 1247.675,658.03424 1291.4468,761.89417 c 25.5719,78.93017 12.4995,161.19653 -45.1663,232.17993 -79.6136,98 -292.1793,152.0116 -359.36693,162.4407 z" />
    <path
       style="fill:#e78c00;fill-rule:evenodd;stroke-width:1pt"
       transform="matrix(0.99103814,0.1335792,-0.1335792,0.99103814,86.947984,-107.47184)"
       id="path1305"
       d="M 817.59186,1076.5106 C 819.12994,1019.312 724.45789,994.49799 686.37634,949.8269 623.3064,915.70538 603.32819,862.59412 601.93604,810.29187 596.80957,726.64459 722.63239,284.39935 823.539,93.940933 754.68115,525.66846 931.79242,573.62122 1019.1246,664.26288 c 59.0968,70.42749 81.3142,151.5152 60.0275,231.3031 -10.4586,63.65661 -55.5421,121.67862 -94.56043,178.77302 -39.03057,34.3839 -119.19122,17.8699 -166.99981,2.1716 z" />
    <path
       style="fill:#e78c00;fill-rule:evenodd;stroke-width:1.00000038pt"
       transform="matrix(0.98206121,-0.18856241,0.18856241,0.98206121,-131.35523,125.07821)"
       id="path2061"
       d="M 464.0592,1044.5493 C 166.7661,746.95557 490.69257,726.23059 408.24277,317.52698 506.16058,510.1684 587.35724,654.88464 623.01147,791.66956 675.77539,839.9707 858.09113,1134.8262 847.16418,1188.2839 732.26532,1124.5084 549.66235,1130.2386 464.0592,1044.5493 z">Camp Manatoc</path>
    <path
       style="fill:#e7e100;fill-rule:evenodd;stroke-width:1.00000038pt"
       transform="matrix(0.97984146,-0.19977668,0.19977668,0.97984146,-138.95624,127.94766)"
       id="path2051"
       d="M 475.19711,921.82581 C 325.96039,741.32483 437.41077,635.3468 436.07639,409.89981 c 41.25592,197.31003 171.746,245.92801 170.07028,364.45499 21.55706,35.45599 134.43298,288.2971 124.99475,320.787 -50.1886,-51.2199 -199.40064,-104.92696 -255.94431,-173.31599 z" />
    <path
       style="fill:#e78c00;fill-rule:evenodd;stroke-width:1.00000019pt"
       transform="matrix(0.987127,0.15993839,-0.15993839,0.987127,134.31941,-154.4084)"
       id="path2045"
       d="M 853.1828,997.28986 C 816.48267,960.50983 820.02887,916.1004 837.70642,875.37 863.72791,809.75354 978.05646,445.03329 1141.382,365.70529 c -117.9491,149.93137 37.1475,380.55985 72.4025,465.09305 20.5966,64.24243 26.3567,140.22968 -36.3781,188.97416 -94.7724,73.6373 -214.39853,116.5207 -281.43631,126.8022 -42.61609,20.2167 -29.25982,-108.4383 -42.78729,-149.28484 z" />
    <path
       style="fill:#e7e100;fill-rule:evenodd;stroke-width:0.99999981pt"
       transform="matrix(0.98319633,0.18255128,-0.18255128,0.98319633,145.10245,-143.07856)"
       id="path1310"
       d="m 823.99463,1046.0112 c 3.03088,-38.1399 -53.6344,-56.44394 -75.1612,-86.95212 -37.10479,-23.93036 -47.31103,-59.73999 -46.23779,-94.66375 -0.0542,-55.909 -2.62048,-404.41559 92.65155,-491.05426 -42.16974,136.19531 116.63629,339.22064 166.4281,401.31384 33.35681,48.0827 43.89691,102.59759 28.03046,155.44324 -8.69562,42.28424 -38.24133,80.16825 -64.06201,117.54435 -24.99958,22.2227 -73.14508,9.7248 -101.64911,-1.6313 z">goes brighter</path>
    <path
       style="fill:#e7e100;fill-rule:evenodd;stroke-width:0.99999981pt"
       transform="matrix(0.97251641,0.23283436,-0.23283436,0.97251641,207.8286,-209.85365)"
       id="path2047"
       d="m 828.72302,1063.0833 c 26.7807,-30.5695 -6.41931,-66.75975 -3.97033,-100.08129 -14.10383,-33.62463 0.70007,-67.15796 23.8728,-95.78302 35.69665,-46.47772 98.42791,-391.88037 229.29611,-428.60046 -120.47171,97.56403 88.7298,358.42523 88.4901,428.45715 -4.3035,52.30719 -85.9444,123.0011 -132.2999,161.03922 -33.9166,31.9165 -101.03886,62.589 -145.39079,84.0875 -34.01203,-16.1138 -44.67517,-29.1299 -59.99799,-49.1191 z" />
    <path
       style="fill:#ffff9e;fill-rule:evenodd;stroke-width:1.00000114pt"
       transform="matrix(0.98009762,0.19851613,-0.19851613,0.98009762,176.39673,-146.89984)"
       id="path2049"
       d="M 775.91345,971.59497 C 690.34241,854.46185 722.08942,723.78449 758.47968,581.25293 c 16.57739,96.71057 85.6322,214.07086 124.66906,252.55719 26.9419,30.22528 40.22919,66.70911 36.60681,104.1944 -0.36529,29.66656 -17.69427,65.61338 -29.49054,93.31038 -62.72479,-43.66329 -71.77337,-6.5108 -114.35156,-59.71993 z" />
    <path
       style="fill:#ffff9e;fill-rule:evenodd;stroke-width:1.00000114pt"
       transform="matrix(0.99037357,0.13842037,-0.13842037,0.99037357,121.82746,-125.60094)"
       id="path2065"
       d="m 849.51776,922.42163 c 78.91895,-132.52753 0.79327,-236.86194 181.66744,-340.82971 -54.01253,96.3858 69.5195,248.57837 56.0777,301.35162 -22.6048,88.74897 -178.70571,154.80376 -218.16586,161.64396 9.40125,-72.97825 -53.02276,-59.129 -19.57928,-122.16587 z" />
    <path
       style="fill:#ffff9e;fill-rule:evenodd;stroke-width:1.00000114pt"
       transform="matrix(0.93150852,-0.3637195,0.3637195,0.93150852,-273.10424,291.90988)"
       id="path2067"
       d="M 517.28949,630.06726 C 693.71313,986.75128 689.81439,806.67462 759.77411,1112.1439 426.30167,874.78388 575.96808,896.20844 517.28949,630.06726 z" />
    <text
       style="font-size:24px;text-anchor:middle;fill:#000000;stroke-width:0;stroke-dasharray:none;font-family:Arial"
       transform="matrix(4.798953,-0.01884847,0.00474826,1.2089407,-281.14565,20.809395)"
       xml:space="preserve"
       font-size="24"
       id="svg_1"
       y="12.970503"
       x="83.678696"
       stroke-linecap="null"
       stroke-linejoin="null" />
    <text
       style="font-size:24px;text-anchor:middle;fill:#000000;stroke-width:0;stroke-dasharray:none;font-family:Arial"
       xml:space="preserve"
       font-size="24"
       id="svg_4"
       y="19.146667"
       x="-206.14667"
       stroke-linecap="null"
       stroke-linejoin="null" />
  </g>
  <rect
     y="0.84745759"
     x="-1.3962951e-007"
     height="83.05085"
     width="50"
     id="rect3230"
     style="fill:#ff7f2a" />
</svg>
