<?xml version="1.0" encoding="UTF-8" standalone="no"?>
<!-- Created with Inkscape (http://www.inkscape.org/) -->
<svg xmlns:rdf="http://www.w3.org/1999/02/22-rdf-syntax-ns#" xmlns="http://www.w3.org/2000/svg" xmlns:cc="http://creativecommons.org/ns#" xmlns:dc="http://purl.org/dc/elements/1.1/" height="200" width="200" version="1.1">
  <g transform="translate(-188.57 -529.5)">
    <rect height="200" width="200" y="529.5" x="188.57" fill="#5aa02c"/>
    <path fill="#71c837" d="m247.84 598.89-11.719-36.719 16.016 25.781 0.39062-27.344 5.8594 26.172 6.6406-26.172 1.9531 26.953 12.891-25.391-3.9062 25 18.75-23.438-17.188 37.5"/>
    <path d="m356.66 665.46 8.2031-27.054-11.328 19.554-0.39062-20.625-6.6406 21.429-5.8594-21.429-1.9531 21.161-12.891-20.089 7.0312 20.089-16.797-19.018 12.109 25.714" fill="#71c837"/>
    <path d="m227.97 707.41-9.9437-41.17 11.601 28.553-4.9718-30.546 9.9437 28.553-0.55243-29.218 6.0767 29.218 1.6573-29.218 4.4194 29.882 4.9718-30.546v31.874l6.0767-30.546-0.55243 29.882 11.601-27.889-9.9437 43.162" fill="#71c837"/>
  </g>
</svg>
