<?xml version="1.0" encoding="UTF-8" standalone="no"?>
<svg
   xmlns:dc="http://purl.org/dc/elements/1.1/"
   xmlns:cc="http://creativecommons.org/ns#"
   xmlns:rdf="http://www.w3.org/1999/02/22-rdf-syntax-ns#"
   xmlns:svg="http://www.w3.org/2000/svg"
   xmlns="http://www.w3.org/2000/svg"
   xmlns:xlink="http://www.w3.org/1999/xlink"
   version="1.1"
   id="svg2"
   height="1024"
   width="1024">
  <defs
     id="defs4">
    <linearGradient
       id="linearGradient3952">
      <stop
         id="stop3954"
         offset="0"
         style="stop-color:#8a612f;stop-opacity:1;" />
      <stop
         id="stop3956"
         offset="1"
         style="stop-color:#cda26c;stop-opacity:1;" />
    </linearGradient>
    <linearGradient
       id="linearGradient3813">
      <stop
         id="stop3815"
         offset="0"
         style="stop-color:#e6e5de;stop-opacity:1;" />
      <stop
         id="stop3817"
         offset="1"
         style="stop-color:#a29d83;stop-opacity:1;" />
    </linearGradient>
    <radialGradient
       gradientUnits="userSpaceOnUse"
       gradientTransform="matrix(0.6923293,-0.55930407,0.31551934,0.67615147,15.263873,163.28576)"
       r="111.92857"
       fy="147.00473"
       fx="180.74068"
       cy="147.00473"
       cx="180.74068"
       id="radialGradient3821"
       xlink:href="#linearGradient3813" />
    <radialGradient
       gradientUnits="userSpaceOnUse"
       gradientTransform="matrix(0.84990419,-0.07142457,0.04209529,0.50090558,26.978311,100.86806)"
       r="111.92857"
       fy="134.22458"
       fx="257.4408"
       cy="134.22458"
       cx="257.4408"
       id="radialGradient3821-9"
       xlink:href="#linearGradient3813-1" />
    <linearGradient
       id="linearGradient3813-1">
      <stop
         id="stop3815-6"
         offset="0"
         style="stop-color:#e6e5de;stop-opacity:1;" />
      <stop
         id="stop3817-8"
         offset="1"
         style="stop-color:#a29d83;stop-opacity:1;" />
    </linearGradient>
    <radialGradient
       r="111.92857"
       fy="84.130379"
       fx="169.59222"
       cy="84.130379"
       cx="169.59222"
       gradientTransform="matrix(0.84990419,-0.07142457,0.04209529,0.50090558,26.978311,100.86806)"
       gradientUnits="userSpaceOnUse"
       id="radialGradient3874"
       xlink:href="#linearGradient3813-1" />
    <radialGradient
       gradientUnits="userSpaceOnUse"
       gradientTransform="matrix(0.84990419,-0.07142457,0.04209529,0.50090558,26.978311,100.86806)"
       r="111.92857"
       fy="134.22458"
       fx="257.4408"
       cy="134.22458"
       cx="257.4408"
       id="radialGradient3821-4"
       xlink:href="#linearGradient3813-9" />
    <linearGradient
       id="linearGradient3813-9">
      <stop
         id="stop3815-5"
         offset="0"
         style="stop-color:#e6e5de;stop-opacity:1;" />
      <stop
         id="stop3817-7"
         offset="1"
         style="stop-color:#a29d83;stop-opacity:1;" />
    </linearGradient>
    <radialGradient
       xlink:href="#linearGradient3813-9"
       id="radialGradient3838-6"
       gradientUnits="userSpaceOnUse"
       gradientTransform="matrix(0.85353658,-0.06447431,0.09314826,0.83863594,16.070423,31.959402)"
       cx="166.64081"
       cy="113.30435"
       fx="166.64081"
       fy="113.30435"
       r="111.92857" />
    <radialGradient
       gradientUnits="userSpaceOnUse"
       gradientTransform="matrix(0.84990419,-0.07142457,0.04209529,0.50090558,26.978311,100.86806)"
       r="111.92857"
       fy="134.22458"
       fx="257.4408"
       cy="134.22458"
       cx="257.4408"
       id="radialGradient3821-46"
       xlink:href="#linearGradient3813-0" />
    <linearGradient
       id="linearGradient3813-0">
      <stop
         id="stop3815-2"
         offset="0"
         style="stop-color:#e6e5de;stop-opacity:1;" />
      <stop
         id="stop3817-5"
         offset="1"
         style="stop-color:#a29d83;stop-opacity:1;" />
    </linearGradient>
    <radialGradient
       xlink:href="#linearGradient3813-0"
       id="radialGradient3838-5"
       gradientUnits="userSpaceOnUse"
       gradientTransform="matrix(0.84990419,-0.07142457,0.04209529,0.50090558,26.978311,100.86806)"
       cx="221.28218"
       cy="101.47637"
       fx="221.28218"
       fy="101.47637"
       r="111.92857" />
    <radialGradient
       gradientUnits="userSpaceOnUse"
       gradientTransform="matrix(0.84990419,-0.07142457,0.04209529,0.50090558,26.978311,100.86806)"
       r="111.92857"
       fy="134.22458"
       fx="257.4408"
       cy="134.22458"
       cx="257.4408"
       id="radialGradient3821-2"
       xlink:href="#linearGradient3813-3" />
    <linearGradient
       id="linearGradient3813-3">
      <stop
         id="stop3815-64"
         offset="0"
         style="stop-color:#e6e5de;stop-opacity:1;" />
      <stop
         id="stop3817-6"
         offset="1"
         style="stop-color:#a29d83;stop-opacity:1;" />
    </linearGradient>
    <radialGradient
       xlink:href="#linearGradient3813-3"
       id="radialGradient3838-9"
       gradientUnits="userSpaceOnUse"
       gradientTransform="matrix(1.7809024,-0.61285667,0.27526542,0.93623509,-170.88467,136.21799)"
       cx="177.55713"
       cy="139.63033"
       fx="177.55713"
       fy="139.63033"
       r="111.92857" />
    <radialGradient
       gradientUnits="userSpaceOnUse"
       gradientTransform="matrix(0.84990419,-0.07142457,0.04209529,0.50090558,26.978311,100.86806)"
       r="111.92857"
       fy="134.22458"
       fx="257.4408"
       cy="134.22458"
       cx="257.4408"
       id="radialGradient3821-6"
       xlink:href="#linearGradient3813-8" />
    <linearGradient
       id="linearGradient3813-8">
      <stop
         id="stop3815-9"
         offset="0"
         style="stop-color:#e6e5de;stop-opacity:1;" />
      <stop
         id="stop3817-4"
         offset="1"
         style="stop-color:#a29d83;stop-opacity:1;" />
    </linearGradient>
    <radialGradient
       xlink:href="#linearGradient3813-8"
       id="radialGradient3838-1"
       gradientUnits="userSpaceOnUse"
       gradientTransform="matrix(0.90917631,-0.39853331,0.34311993,0.79249656,-21.523561,119.39557)"
       cx="262.34897"
       cy="185.24004"
       fx="262.34897"
       fy="185.24004"
       r="111.92857" />
    <radialGradient
       xlink:href="#linearGradient3813-0-3"
       id="radialGradient3838-5-5"
       gradientUnits="userSpaceOnUse"
       gradientTransform="matrix(0.84990419,-0.07142457,0.04209529,0.50090558,26.978311,100.86806)"
       cx="257.4408"
       cy="134.22458"
       fx="257.4408"
       fy="134.22458"
       r="111.92857" />
    <linearGradient
       id="linearGradient3813-0-3">
      <stop
         id="stop3815-2-6"
         offset="0"
         style="stop-color:#e6e5de;stop-opacity:1;" />
      <stop
         id="stop3817-5-6"
         offset="1"
         style="stop-color:#a29d83;stop-opacity:1;" />
    </linearGradient>
    <radialGradient
       xlink:href="#linearGradient3813-0-3"
       id="radialGradient3989"
       gradientUnits="userSpaceOnUse"
       gradientTransform="matrix(0.84990419,-0.07142457,0.04209529,0.50090558,26.978311,100.86806)"
       cx="212.77098"
       cy="72.725243"
       fx="212.77098"
       fy="72.725243"
       r="111.92857" />
    <radialGradient
       r="111.92857"
       fy="72.725243"
       fx="212.77098"
       cy="72.725243"
       cx="212.77098"
       gradientTransform="matrix(0.84990419,-0.07142457,0.04209529,0.50090558,26.978311,100.86806)"
       gradientUnits="userSpaceOnUse"
       id="radialGradient3851"
       xlink:href="#linearGradient3813-0-3" />
    <radialGradient
       r="111.92857"
       fy="72.725243"
       fx="212.77098"
       cy="72.725243"
       cx="212.77098"
       gradientTransform="matrix(0.84990419,-0.07142457,0.04209529,0.50090558,26.978311,100.86806)"
       gradientUnits="userSpaceOnUse"
       id="radialGradient3855"
       xlink:href="#linearGradient3813-0-3" />
    <radialGradient
       r="111.92857"
       fy="72.725243"
       fx="212.77098"
       cy="72.725243"
       cx="212.77098"
       gradientTransform="matrix(0.84990419,-0.07142457,0.04209529,0.50090558,26.978311,100.86806)"
       gradientUnits="userSpaceOnUse"
       id="radialGradient3859"
       xlink:href="#linearGradient3813-0-3" />
    <radialGradient
       r="111.92857"
       fy="72.725243"
       fx="212.77098"
       cy="72.725243"
       cx="212.77098"
       gradientTransform="matrix(0.84990419,-0.07142457,0.04209529,0.50090558,26.978311,100.86806)"
       gradientUnits="userSpaceOnUse"
       id="radialGradient3863"
       xlink:href="#linearGradient3813-0-3" />
    <radialGradient
       r="111.92857"
       fy="72.725243"
       fx="212.77098"
       cy="72.725243"
       cx="212.77098"
       gradientTransform="matrix(0.84990419,-0.07142457,0.04209529,0.50090558,26.978311,100.86806)"
       gradientUnits="userSpaceOnUse"
       id="radialGradient3867"
       xlink:href="#linearGradient3813-0-3" />
  </defs>
  <metadata
     id="metadata7">
    <rdf:RDF>
      <cc:Work
         rdf:about="">
        <dc:format>image/svg+xml</dc:format>
        <dc:type
           rdf:resource="http://purl.org/dc/dcmitype/StillImage" />
        <dc:title></dc:title>
      </cc:Work>
    </rdf:RDF>
  </metadata>
  <g
     transform="translate(0,-28.362183)"
     id="layer1">
    <rect
       y="23.790754"
       x="-4.2857156"
       height="1045.7142"
       width="1062.8572"
       id="rect3766"
       style="fill:#c18f48;fill-opacity:1;stroke:none" />
  </g>
  <g
     id="layer2">
    <path
       d="m 354.28571,225.42857 a 135.71428,61.42857 0 1 1 -271.428563,0 135.71428,61.42857 0 1 1 271.428563,0 z"
       id="path3769"
       style="fill:#af864e;fill-opacity:1;stroke:none" />
    <path
       d="m 731.42855,676.85712 a 48.57143,35.714287 0 1 1 -97.14286,0 48.57143,35.714287 0 1 1 97.14286,0 z"
       id="path3771"
       style="fill:#af864e;fill-opacity:1;stroke:none" />
    <path
       d="m 637.14287,611.14288 a 1.4285715,7.1428571 0 1 1 -2.85715,0 1.4285715,7.1428571 0 1 1 2.85715,0 z"
       id="path3773"
       style="fill:#af864e;fill-opacity:1;stroke:none" />
    <path
       d="m 962.85714,279.71429 a 122.85714,110 0 1 1 -245.71428,0 122.85714,110 0 1 1 245.71428,0 z"
       id="path3775"
       style="fill:#af864e;fill-opacity:1;stroke:none" />
    <path
       d="m 488.57144,896.85712 a 172.85715,70 0 1 1 -345.71429,0 172.85715,70 0 1 1 345.71429,0 z"
       id="path3777"
       style="fill:#af864e;fill-opacity:1;stroke:none" />
    <path
       d="m 488.57144,589.71429 a 182.85715,94.285713 0 1 1 -365.71429,0 182.85715,94.285713 0 1 1 365.71429,0 z"
       id="path3779"
       style="fill:#af864e;fill-opacity:1;stroke:none" />
    <path
       d="m 500,342.57144 a 7.1428571,1.4285715 0 1 1 -14.28571,0 7.1428571,1.4285715 0 1 1 14.28571,0 z"
       id="path3781"
       style="fill:#af864e;fill-opacity:1;stroke:none" />
    <path
       d="m 697.14288,135.42857 a 60,31.428572 0 1 1 -120,0 60,31.428572 0 1 1 120,0 z"
       id="path3783"
       style="fill:#af864e;fill-opacity:1;stroke:none" />
    <path
       d="m 614.28572,391.14285 a 111.42857,55.714287 0 1 1 -222.85715,0 111.42857,55.714287 0 1 1 222.85715,0 z"
       id="path3785"
       style="fill:#af864e;fill-opacity:1;stroke:none" />
    <path
       d="m 974.28571,952.57141 a 70,40 0 1 1 -140,0 70,40 0 1 1 140,0 z"
       id="path3787"
       style="fill:#af864e;fill-opacity:1;stroke:none" />
    <path
       d="m 654.28574,828.28571 a 37.142857,18.571428 0 1 1 -74.28571,0 37.142857,18.571428 0 1 1 74.28571,0 z"
       id="path3789"
       style="fill:#af864e;fill-opacity:1;stroke:none" />
    <path
       d="m 851.42857,569.71429 a 61.42857,42.857143 0 1 1 -122.85714,0 61.42857,42.857143 0 1 1 122.85714,0 z"
       id="path3791"
       style="fill:#af864e;fill-opacity:1;stroke:none" />
    <path
       d="m 208.57143,414 a 58.57143,35.714287 0 1 1 -117.14286,0 58.57143,35.714287 0 1 1 117.14286,0 z"
       id="path3793"
       style="fill:#af864e;fill-opacity:1;stroke:none" />
    <path
       d="m 388.57143,104 a 58.57143,28.571428 0 1 1 -117.14286,0 58.57143,28.571428 0 1 1 117.14286,0 z"
       id="path3795"
       style="fill:#af864e;fill-opacity:1;stroke:none" />
    <path
       d="m 437.14285,195.42857 a 2.8571429,5.7142859 0 1 1 -5.71429,0 2.8571429,5.7142859 0 1 1 5.71429,0 z"
       id="path3800"
       style="fill:#af864e;fill-opacity:1;stroke:none" />
    <path
       d="m 314.28571,772.57141 a 124.28571,45.714287 0 1 1 -248.571423,0 124.28571,45.714287 0 1 1 248.571423,0 z"
       id="path3804"
       style="fill:#af864e;fill-opacity:1;stroke:none" />
    <path
       d="m 734.28573,988.28571 a 82.85714,15.714286 0 1 1 -165.71428,0 82.85714,15.714286 0 1 1 165.71428,0 z"
       id="path3806"
       style="fill:#af864e;fill-opacity:1;stroke:none" />
    <path
       d="m 928.57142,799.71429 a 54.285713,81.428574 0 1 1 -108.57143,0 54.285713,81.428574 0 1 1 108.57143,0 z"
       id="path3808"
       style="fill:#af864e;fill-opacity:1;stroke:none" />
  </g>
  <g
     id="layer3">
    <path
       id="path3811"
       d="M 218.5625 90.625 C 175.70459 86.245685 132.74399 108.38555 110.46875 145.09375 C 86.332853 181.61638 83.168756 232.97025 107.4375 270.03125 C 119.8962 288.93059 143.7917 294.87729 164.91371 289.29105 C 194.03921 284.30426 224.34636 287.28623 251.979 274.9235 C 289.2011 262.32689 326.45262 229.3389 321.18953 186.46059 C 317.46472 135.26135 270.68544 89.254338 218.5625 90.625 z "
       style="fill:url(#radialGradient3821);fill-opacity:1;stroke:#4d4d4d;stroke-opacity:1;stroke-width:6.49879878000000044;stroke-miterlimit:4;stroke-dasharray:none"
       transform="matrix(1,0,0,0.68024193,5.7142857,71.544013)" />
    <path
       id="path3811-3"
       d="M 177.375 98.125 C 155.18729 99.048899 134.167 109.26165 117.75 123.875 C 112.34608 127.63763 104.64941 127.83963 100.58099 133.48673 C 95.033464 142.17811 94.135845 152.71864 92.34375 162.625 C 90.48346 175.73931 93.8205 189.79795 102.48516 199.97411 C 107.30532 205.76297 114.34127 209.53374 121.8339 210.33374 C 132.78085 212.01824 144.04371 211.17802 154.8211 214.06416 C 175.47527 218.84445 196.1121 224.52872 217.39841 225.5447 C 225.54976 226.07003 233.71269 225.49763 241.86693 225.94338 C 251.74719 226.17825 262.12141 225.24731 270.71637 219.91931 C 277.7884 215.95618 284.44201 210.50217 288.13393 203.16406 C 289.66109 195.86868 285.23197 189.27985 282.61723 182.81002 C 272.44 160.17795 262.10373 136.96063 245.11176 118.48757 C 234.47225 107.26322 219.29339 101.5792 204.22751 99.548017 C 195.34562 98.237745 186.33989 98.018061 177.375 98.125 z "
       style="fill:url(#radialGradient3874);fill-opacity:1;stroke:#4d4d4d;stroke-opacity:1;stroke-width:5.78358485000000044;stroke-miterlimit:4;stroke-dasharray:none"
       transform="matrix(1,0,0,0.85888567,700.00001,72.409962)" />
    <path
       id="path3811-1"
       d="M 208.125 59.71875 C 179.44542 60.262649 151.50824 73.372981 132.08854 94.364587 C 109.91422 115.52414 91.974312 142.03241 84.399212 171.98824 C 81.101295 190.92128 90.782866 210.74385 106.52958 221.31017 C 123.3996 235.3315 141.44213 248.30762 161.53125 257.3125 C 198.57947 272.18619 242.28278 267.26444 276.08419 246.44948 C 292.70509 236.27049 307.40509 222.83786 318.81374 207.02547 C 328.79021 190.68783 329.86519 170.16387 324.99605 151.97509 C 320.15891 133.83241 309.50775 117.82914 296.99563 104.05748 C 287.8874 93.46359 277.50613 83.810386 265.32196 76.846212 C 250.19568 67.943055 233.26082 61.779845 215.75754 59.943868 C 213.22141 59.736355 210.66914 59.652054 208.125 59.71875 z "
       style="fill:url(#radialGradient3838-6);fill-opacity:1;stroke:#4d4d4d;stroke-opacity:1;stroke-width:6.49879878000000044;stroke-miterlimit:4;stroke-dasharray:none"
       transform="matrix(1,0,0,0.68024193,165.71429,431.29401)" />
    <path
       transform="matrix(0.62918439,0,0,0.5846997,261.62725,745.47068)"
       d="m 320,178.28572 a 111.42857,88.571426 0 1 1 -222.857147,0 111.42857,88.571426 0 1 1 222.857147,0 z"
       id="path3811-7"
       style="fill:url(#radialGradient3838-5);fill-opacity:1;stroke:#4d4d4d;stroke-opacity:1;stroke-width:8.83709217000000002;stroke-miterlimit:4;stroke-dasharray:none" />
    <path
       id="path3811-9"
       d="M 199.3125 91.5 C 179.5945 93.155595 159.66445 97.706051 142.59201 108.0606 C 115.97421 123.78434 92.963377 144.90938 72.326496 167.77303 C 57.494598 184.29273 43.959186 202.24655 34.34375 222.34375 C 32.792156 230.21457 39.247083 238.10586 46.953479 239.28428 C 66.782332 245.90834 87.837335 246.9734 108.18489 251.27879 C 132.13112 255.68264 156.17159 259.61449 180.35114 262.50578 C 199.95946 264.91885 220.13359 266.46581 239.56323 261.93449 C 263.66587 256.42641 286.18435 243.24868 302.00709 224.14816 C 309.85982 214.67812 315.3611 203.23762 317.42531 191.08337 C 320.26446 175.4568 317.73991 158.96532 310.49986 144.8392 C 302.43193 128.63225 288.62453 115.80668 272.90059 107.11538 C 251.45528 95.301923 226.60064 90.795685 202.29811 91.268358 C 201.30291 91.345572 200.3077 91.422786 199.3125 91.5 z "
       style="fill:url(#radialGradient3838-9);fill-opacity:1;stroke:#4d4d4d;stroke-opacity:1;stroke-width:6.26785724999999960;stroke-miterlimit:4;stroke-dasharray:none"
       transform="matrix(0.71781236,0,0,1.0187801,698.85628,606.65177)" />
    <path
       transform="matrix(-0.01507604,-0.74660837,1.0665485,0.04852802,318.99407,464.51932)"
       id="path3811-14"
       d="M 202.9375 90.4375 C 175.87183 91.940312 148.23445 94.570463 123.05044 105.31853 C 106.44338 113.20175 96.508342 131.67347 96.532973 149.72661 C 96.410799 161.13928 97.878429 172.50284 99.305865 183.8037 C 101.98806 201.03825 108.11708 218.43845 120.49176 231.15233 C 134.87119 246.51627 153.7155 256.41329 170.66228 268.53678 C 185.32574 278.62465 200.90576 288.17139 218.47708 292.10365 C 231.46013 295.17183 245.0438 295.07713 258.11557 292.59625 C 278.08547 289.52569 298.04087 284.62282 316.14591 275.45656 C 326.49152 269.67149 332.29883 258.17392 333.84345 246.74397 C 335.75866 230.00789 338.41863 213.26013 338.03694 196.35831 C 337.72904 183.49968 333.37834 171.00625 327.34901 159.75043 C 309.46458 127.43417 277.30945 103.97913 241.71822 94.834796 C 229.09351 91.510424 215.985 90.036246 202.9375 90.4375 z M 319.21875 146 C 319.38478 146.25736 319.15533 145.69042 319.21875 146 z M 321.3125 148.78125 L 321.15625 148.625 L 321.3125 148.78125 z M 169.1875 270.34375 C 168.95304 270.0155 169.0459 270.1455 169.1875 270.34375 z "
       style="fill:url(#radialGradient3838-1);fill-opacity:1;stroke:#4d4d4d;stroke-opacity:1;stroke-width:6.00935219000000043;stroke-miterlimit:4;stroke-dasharray:none" />
    <path
       transform="matrix(0.71146264,-0.45378982,0.41838098,0.66641503,530.59167,535.16514)"
       d="m 320,178.28572 a 111.42857,88.571426 0 1 1 -222.857147,0 111.42857,88.571426 0 1 1 222.857147,0 z"
       id="path3811-7-6"
       style="fill:url(#radialGradient3851);fill-opacity:1;stroke:#4d4d4d;stroke-width:6.57786846;stroke-miterlimit:4;stroke-opacity:1;stroke-dasharray:none" />
    <path
       style="fill:url(#radialGradient3855);fill-opacity:1;stroke:#4d4d4d;stroke-width:6.57786846;stroke-miterlimit:4;stroke-opacity:1;stroke-dasharray:none"
       id="path3853"
       d="m 320,178.28572 a 111.42857,88.571426 0 1 1 -222.857147,0 111.42857,88.571426 0 1 1 222.857147,0 z"
       transform="matrix(0.2821086,-0.18734154,0.16589609,0.27512124,792.43632,408.53553)" />
    <path
       transform="matrix(0.3302914,0.07476434,-0.08451421,0.30995251,79.518457,634.54114)"
       d="m 320,178.28572 a 111.42857,88.571426 0 1 1 -222.857147,0 111.42857,88.571426 0 1 1 222.857147,0 z"
       id="path3857"
       style="fill:url(#radialGradient3859);fill-opacity:1;stroke:#4d4d4d;stroke-width:6.57786846;stroke-miterlimit:4;stroke-opacity:1;stroke-dasharray:none" />
    <path
       transform="matrix(-0.31359642,-0.16630188,-0.18441274,0.24422335,650.1202,734.20866)"
       d="m 320,178.28572 a 111.42857,88.571426 0 1 1 -222.857147,0 111.42857,88.571426 0 1 1 222.857147,0 z"
       id="path3861"
       style="fill:url(#radialGradient3863);fill-opacity:1;stroke:#4d4d4d;stroke-width:6.57786846;stroke-miterlimit:4;stroke-opacity:1;stroke-dasharray:none" />
    <path
       style="fill:url(#radialGradient3867);fill-opacity:1;stroke:#4d4d4d;stroke-width:6.57786846;stroke-miterlimit:4;stroke-opacity:1;stroke-dasharray:none"
       id="path3865"
       d="m 320,178.28572 a 111.42857,88.571426 0 1 1 -222.857147,0 111.42857,88.571426 0 1 1 222.857147,0 z"
       transform="matrix(-0.11515153,-0.31846858,0.30659816,-0.09597281,462.30967,211.12171)" />
  </g>
</svg>
