<?xml version="1.0"?><svg width="640" height="480" xmlns="http://www.w3.org/2000/svg">
 <title>Blue lightbulb</title>

 <g>
  <title>Layer 1</title>
  <path d="m292.999115,94.120003c-97.093597,-1.234726 -111.348938,90.69558 -109.55304,115.838829c1.801605,25.222931 9.034668,39.486877 33.225067,71.838043c18.632965,24.918793 26.939209,17.76297 26.93927,73.634033c0,8.081726 4.489929,16.163513 4.489929,16.163513c0,0 18.857483,17.959534 42.204834,17.061523c23.347382,-0.897949 44.898773,-15.265564 46.694763,-24.2453c1.795898,-8.979736 1.69931,-28.977905 8.081726,-52.98053c3.643982,-13.703979 47.117584,-52.824554 53.878571,-87.103668c7.15802,-36.292603 -7.969574,-128.971725 -105.961121,-130.206444z" id="path4377" stroke-miterlimit="4" stroke-width="10" stroke="#000000" fill-rule="evenodd" fill="#ffff00"/>
  <path d="m332.648407,371.86084c0,0 -11.796051,21.62616 -43.252136,20.31543c-31.456116,-1.310669 -42.378357,-19.660034 -42.378357,-19.660034c0,0 -1.078156,4.259705 0.655334,8.956299c-1.215485,2.621277 -1.020447,6.71875 0.599121,10.266846c-1.254456,3.901794 -1.148438,7.826599 0.929993,10.703796c-0.576782,4.991638 -1.07666,7.517639 5.913544,14.507874c6.990234,6.990234 22.484314,14.108459 34.717255,13.23468c12.23291,-0.873779 37.899872,-5.310425 42.815247,-24.90271c0.998718,-3.980835 0,-6.553406 0,-6.553406c0,0 2.402954,-3.276672 0,-6.77179c1.966034,-4.150452 0.873779,-7.427063 -0.218445,-9.393127c1.965973,-2.839783 1.092224,-8.08252 0.218445,-10.703857z" id="path4379" stroke-miterlimit="4" stroke-linejoin="round" stroke-width="7.5" stroke="#000000" fill-rule="evenodd" fill="#7f7f7f"/>
  <path d="m247.490509,384.378296c0,0 16.95813,22.047302 40.4646,21.559448c17.647766,-0.366272 36.966461,-6.842468 45.607147,-20.841797" id="path4383" stroke-miterlimit="4" stroke-linejoin="round" stroke-width="3.83125" stroke="#000000" fill-rule="evenodd" fill="#7f7f7f"/>
  <path d="m249.130005,395.313354c0,0 10.714294,23.056824 40.79834,23.006226c30.622864,-0.05249 42.766754,-22.406311 42.766754,-22.406311" id="path4385" stroke-miterlimit="4" stroke-linejoin="round" stroke-width="3.83125" stroke="#000000" fill-rule="evenodd" fill="#7f7f7f"/>
 </g>
</svg>