<?xml version="1.0" encoding="UTF-8" standalone="no"?>
<svg
   xmlns:dc="http://purl.org/dc/elements/1.1/"
   xmlns:cc="http://creativecommons.org/ns#"
   xmlns:rdf="http://www.w3.org/1999/02/22-rdf-syntax-ns#"
   xmlns:svg="http://www.w3.org/2000/svg"
   xmlns="http://www.w3.org/2000/svg"
   xmlns:sodipodi="http://sodipodi.sourceforge.net/DTD/sodipodi-0.dtd"
   xmlns:inkscape="http://www.inkscape.org/namespaces/inkscape"
   width="400"
   height="400"
   id="svg3068"
   version="1.1"
   inkscape:version="0.48.5 r10040"
   sodipodi:docname="black.svg">
  <metadata
     id="metadata3079">
    <rdf:RDF>
      <cc:Work
         rdf:about="">
        <dc:format>image/svg+xml</dc:format>
        <dc:type
           rdf:resource="http://purl.org/dc/dcmitype/StillImage" />
        <dc:title></dc:title>
      </cc:Work>
    </rdf:RDF>
  </metadata>
  <defs
     id="defs3077" />
  <sodipodi:namedview
     pagecolor="#ffffff"
     bordercolor="#666666"
     borderopacity="1"
     objecttolerance="10"
     gridtolerance="10"
     guidetolerance="10"
     inkscape:pageopacity="0"
     inkscape:pageshadow="2"
     inkscape:window-width="1920"
     inkscape:window-height="1028"
     id="namedview3075"
     showgrid="false"
     inkscape:zoom="1.18"
     inkscape:cx="307.45781"
     inkscape:cy="131.28965"
     inkscape:window-x="-8"
     inkscape:window-y="-8"
     inkscape:window-maximized="1"
     inkscape:current-layer="svg3068" />
  <g
     id="g3070"
     transform="translate(1.6949153,0.84745763)"
     style="fill:#000080">
    <title
       id="title3072">Layer 1</title>
    <rect
       stroke-linejoin="null"
       stroke-linecap="null"
       x="2.424988"
       y="3.164001"
       width="400"
       height="400"
       id="svg_9"
       style="fill:#000080;stroke:#000000;stroke-width:6;stroke-dasharray:none" />
  </g>
  <path
     style="fill:#000080"
     d="m -1.0167691,203.20187 0,-205.5084762 203.8135591,0 203.81356,0 0,205.5084762 0,205.50848 -203.81356,0 -203.8135591,0 0,-205.50848 z"
     id="path3081"
     inkscape:connector-curvature="0" />
  <g
     id="g3113"
     transform="matrix(0.9071928,0,0,1.0255314,-124.15891,-76.466272)">
    <title
       id="title3115">Layer 1</title>
    <path
       d="m 253.74622,470.59375 15.40222,-24.83557 8.09802,17.32355 17.30771,-7.66523 -13.65552,-28.82165 24.61169,-39.8595 9.05076,21.15625 -10.32108,10.73145 13.97311,12.57104 4.44605,-4.59924 3.01697,7.05225 17.62512,-6.89881 -2.38168,-5.67236 4.12848,0.61322 3.17556,-18.24335 -16.03732,-2.453 -14.44946,-34.03381 15.71979,-25.44889 2.22299,5.36575 17.78393,-6.59222 -7.62164,-18.85666 16.83127,-27.1351 12.54404,21.15622 -12.54404,20.543 16.35489,9.35165 7.14526,-11.65124 14.76715,24.83554 -24.77063,39.39966 -20.00692,1.07318 1.11148,18.39673 6.9866,-0.30658 -6.9866,11.03796 16.35498,9.50501 7.6217,-12.11121 3.49329,5.82562 16.51361,-9.1983 -8.57434,-14.71741 19.21307,-30.66119 28.26386,47.5249 -13.33808,29.58801 17.30774,7.35865 7.78046,-17.32355 13.4967,22.53601 c 5.50458,-3.06622 11.00922,-6.13232 16.5138,-9.19836 l -14.92585,-24.98896 19.6894,1.53308 1.42901,-18.2434 -32.70984,-2.60627 -23.97662,-40.16613 23.5003,2.60632 4.76362,14.104 18.1015,-5.6723 -2.06421,-6.13214 7.93927,0.9198 2.22302,-18.24341 -6.3515,-0.76654 2.6994,-3.21942 -14.76709,-11.49799 -10.16229,12.26453 -37.79096,-4.2926 -15.2434,-25.60205 5.875,0.76651 2.54064,-18.24347 -20.48333,-2.75943 -17.30756,-29.12812 26.99353,0.30652 12.06769,20.84964 16.67248,-8.89172 -6.66894,-11.65125 29.53406,0.15326 22.7063,40.47278 -9.20948,17.32367 16.99005,8.43173 3.17572,-5.97888 6.35132,11.34464 16.83124,-8.73847 -7.14532,-12.57104 7.14532,0 0.15881,-18.39679 -17.62512,-0.1532 -17.62524,-31.58103 56.84527,0.45987 19.6894,26.06208 15.40228,-10.73145 -11.43262,-15.17737 26.83478,0.15342 0.15875,-18.39682 -30.0105,-0.15332 11.43262,-15.63715 -15.56103,-10.57813 -18.89545,25.90876 -48.112,-0.30667 14.29065,-18.24341 14.9259,3.21945 4.12836,-17.9368 -6.35144,-1.37979 4.76355,-6.13223 -15.08466,-11.19138 -3.81079,4.90592 -1.58783,-3.83274 -17.94275,6.59217 5.875,14.56402 -23.02386,29.28143 -30.64557,-0.30651 3.65204,-4.44599 -14.92585,-11.49798 -12.86169,15.79055 -24.77057,-0.15326 14.60828,-25.14221 24.77057,0 0,-18.39673 -13.97309,0 14.60816,-24.9888 47.79461,0.45984 11.11499,16.09723 15.87848,-10.11825 -3.81085,-5.67231 13.33801,0.15335 0.15876,-18.39682 -14.76703,-0.15316 3.49322,-5.97898 -16.51361,-9.04504 -8.73334,14.8706 -37.31445,-0.45993 27.94623,-47.83151 33.34497,-3.83258 -2.38184,-18.24338 -19.37182,2.2996 13.17926,-22.689381 -16.51373,-9.044998 -14.76716,25.142212 -8.41558,-17.01693 -17.14881,7.971931 14.29071,28.514846 -23.5003,40.31952 -9.68592,-20.84967 10.1623,-11.03806 -14.29071,-12.11108 -4.28723,4.75241 -3.33448,-7.20541 -17.46643,7.51208 2.54053,5.6723 -4.12836,-0.61328 -2.6994,18.24341 16.03735,2.29959 15.40223,33.42075 -15.08466,25.90866 -2.38178,-5.36569 -17.62521,7.05209 8.09811,18.54999 -15.40225,26.21539 -14.76706,-24.68228 11.11505,-18.85666 -16.51376,-9.04498 -5.71625,9.50491 -14.92584,-24.9888 22.70627,-37.25345 20.00702,-1.37979 -1.27027,-18.24334 -7.14532,0.45993 6.98654,-11.3447 -16.51376,-9.19827 -7.46286,12.26443 -3.6521,-5.82562 -16.35483,9.35168 8.89197,14.71735 -17.14884,28.05499 -28.89898,-48.29132 11.27377,-25.755461 -17.62524,-7.205345 -5.71622,13.030876 -9.68601,-16.250397 -16.51361,9.351746 13.97321,23.455811 -23.97678,-1.68637 -1.4291,18.39673 35.88568,2.29956 c 0.31671,0.0307 0.63479,0 0.95266,0 l 24.13541,40.16617 -27.15237,-2.75943 -4.76362,-14.10425 -18.10153,5.97897 2.06427,5.97894 -7.93921,-0.76651 -2.0643,18.24332 6.51013,0.61325 -2.69937,3.37281 15.08466,11.34457 10.00357,-12.41779 40.80789,4.13922 15.24344,25.44883 -8.57446,-1.07312 -2.38172,18.24347 23.02387,2.91278 14.29062,23.91568 -28.2638,0.61334 -12.70288,-20.3898 -16.35482,9.35165 7.14529,11.65134 -29.69287,0.61325 -23.97659,-39.85962 8.73315,-17.47687 -17.14883,-7.97195 -3.01688,6.28555 -6.8277,-11.34463 -16.51376,9.19839 7.46286,12.41776 -6.98663,0.15335 0.31759,18.39663 17.62528,-0.30667 18.57791,30.96793 -56.68643,1.22638 -20.48353,-25.60208 -15.08435,11.1914 11.90869,15.02396 -26.83468,0.61319 0.47638,18.39673 29.6929,-0.61319 -10.79746,15.63714 16.03742,10.11826 17.94272,-26.36868 48.27081,-1.07312 -13.81433,18.54999 -15.08466,-2.75953 -3.49339,18.09015 6.51042,1.22644 -4.7637,6.28565 15.56101,10.73138 3.81082,-5.05911 1.58804,3.83258 17.62503,-7.05209 -6.35147,-14.41068 22.07135,-30.04797 30.80438,-0.76654 -3.65204,4.7525 15.24329,11.03799 12.54416,-16.25042 33.02737,-0.76651 -19.84814,32.04095 -24.61185,-0.45993 -0.47632,18.39673 13.81433,0.30661 -15.24343,24.52902 -47.63566,-1.6864 -10.63858,-16.25043 -16.19619,9.81153 3.65204,5.6723 -13.33796,-0.45987 -0.63531,18.39664 14.92602,0.45996 -3.65219,5.82562 16.1962,9.65826 9.05075,-14.71734 37.15585,1.3797 -29.05761,47.065 -33.34519,3.06604 1.74671,18.39679 19.5307,-1.83966 -13.81439,22.22937 16.35489,9.50494 z"
       id="path1074"
       inkscape:connector-curvature="0"
       style="fill:#aad4ff;fill-rule:evenodd;stroke:#000000;stroke-width:1.25;stroke-linejoin:round" />
  </g>
</svg>
