<?xml version="1.0"?><svg width="640" height="480" xmlns="http://www.w3.org/2000/svg">
 <title>green snowflake</title>
 <g>
  <title>Layer 1</title>
  <path fill="#aad4ff" fill-rule="evenodd" stroke="#000000" stroke-width="1.25" stroke-linejoin="round" id="path1074" d="m253.746216,470.59375l15.402222,-24.835571l8.098022,17.323547l17.307709,-7.665222l-13.655518,-28.821655l24.611694,-39.859497l9.050751,21.15625l-10.321075,10.731445l13.973114,12.571045l4.446045,-4.599243l3.016968,7.052246l17.625122,-6.898804l-2.381683,-5.672363l4.128479,0.61322l3.175568,-18.243347l-16.037323,-2.453003l-14.449463,-34.033813l15.719788,-25.448883l2.222992,5.365753l17.783936,-6.592224l-7.621643,-18.856659l16.831268,-27.135101l12.544037,21.156219l-12.544037,20.542999l16.354889,9.351654l7.145264,-11.651245l14.767151,24.835541l-24.77063,39.399658l-20.006927,1.073181l1.111481,18.396729l6.986603,-0.30658l-6.986603,11.037964l16.35498,9.505005l7.621704,-12.111206l3.493286,5.825623l16.513611,-9.198303l-8.574341,-14.717407l19.213074,-30.661194l28.263855,47.524902l-13.338074,29.588013l17.307739,7.358643l7.780457,-17.323547l13.496704,22.536011c5.504578,-3.066223 11.009216,-6.132324 16.513794,-9.198364l-14.925842,-24.988953l19.689392,1.533081l1.429016,-18.243408l-32.709839,-2.606262l-23.976624,-40.166138l23.500305,2.606323l4.763611,14.104004l18.101501,-5.672302l-2.064209,-6.132141l7.93927,0.9198l2.223022,-18.243408l-6.351501,-0.766541l2.699402,-3.219421l-14.76709,-11.497986l-10.162292,12.264526l-37.790955,-4.292603l-15.243408,-25.602051l5.875,0.76651l2.540649,-18.243469l-20.483337,-2.75943l-17.307556,-29.128113l26.99353,0.306519l12.067688,20.84964l16.672485,-8.891724l-6.668945,-11.651245l29.534058,0.153259l22.706299,40.472778l-9.209473,17.323669l16.990051,8.431732l3.17572,-5.978882l6.351318,11.344635l16.831238,-8.738464l-7.145325,-12.571045l7.145325,0l0.158813,-18.39679l-17.625122,-0.153198l-17.625244,-31.581024l56.845276,0.459869l19.689392,26.062073l15.402283,-10.731445l-11.432617,-15.177368l26.834778,0.153412l0.158752,-18.39682l-30.010498,-0.15332l11.432617,-15.637146l-15.561035,-10.578125l-18.895447,25.908752l-48.112,-0.306671l14.290649,-18.243408l14.925903,3.219452l4.128357,-17.936798l-6.35144,-1.379791l4.76355,-6.132233l-15.084656,-11.191376l-3.810791,4.905914l-1.58783,-3.832733l-17.942749,6.592163l5.875,14.564026l-23.023865,29.281433l-30.645569,-0.306519l3.652039,-4.445984l-14.925842,-11.497986l-12.861694,15.790558l-24.770569,-0.153259l14.608276,-25.142212l24.770569,0l0,-18.396729l-13.973083,0l14.608154,-24.9888l47.794617,0.459839l11.11499,16.097229l15.878479,-10.118256l-3.810852,-5.672302l13.338013,0.153351l0.158752,-18.39682l-14.767029,-0.153168l3.493225,-5.978973l-16.513611,-9.045044l-8.733337,14.870605l-37.314453,-0.45993l27.946228,-47.831512l33.344971,-3.832581l-2.381836,-18.243385l-19.371826,2.299606l13.17926,-22.689384l-16.513733,-9.044998l-14.767151,25.142212l-8.415588,-17.01693l-17.148804,7.971931l14.29071,28.514847l-23.500305,40.319519l-9.685913,-20.84967l10.162292,-11.038055l-14.29071,-12.111084l-4.287231,4.752411l-3.334473,-7.205414l-17.466431,7.512085l2.540527,5.672295l-4.128357,-0.613274l-2.699402,18.243408l16.037354,2.299591l15.402222,33.420746l-15.084656,25.908661l-2.381775,-5.365692l-17.625214,7.052094l8.098114,18.549988l-15.402252,26.215393l-14.767059,-24.682281l11.115051,-18.856659l-16.513763,-9.044983l-5.716248,9.504913l-14.925842,-24.9888l22.706268,-37.253448l20.007019,-1.379791l-1.270264,-18.24334l-7.145325,0.45993l6.986542,-11.344704l-16.513763,-9.198265l-7.46286,12.264427l-3.6521,-5.825623l-16.354828,9.351685l8.891968,14.717346l-17.148834,28.054993l-28.898987,-48.291321l11.273773,-25.755463l-17.625244,-7.205345l-5.716217,13.030876l-9.686005,-16.250397l-16.513611,9.351746l13.973206,23.455811l-23.976776,-1.686371l-1.429108,18.396729l35.885681,2.299561c0.316711,0.030701 0.634796,0 0.952667,0l24.135406,40.166168l-27.152374,-2.75943l-4.763611,-14.104248l-18.101532,5.978973l2.06427,5.978943l-7.939209,-0.76651l-2.064301,18.243317l6.510132,0.613251l-2.699371,3.372803l15.084656,11.344574l10.003571,-12.417786l40.807892,4.139221l15.243439,25.448822l-8.574463,-1.07312l-2.381714,18.243469l23.023865,2.912781l14.290619,23.91568l-28.263794,0.613342l-12.702881,-20.389801l-16.354828,9.351654l7.145294,11.651337l-29.692871,0.613251l-23.976593,-39.859619l8.733154,-17.476868l-17.148834,-7.971954l-3.016876,6.285553l-6.827698,-11.344635l-16.513763,9.198395l7.46286,12.417755l-6.986633,0.153351l0.317596,18.396637l17.625275,-0.306671l18.577911,30.967926l-56.686432,1.226379l-20.483521,-25.602081l-15.084351,11.191406l11.908691,15.023956l-26.834686,0.61319l0.476379,18.396729l29.692902,-0.61319l-10.797455,15.637146l16.037415,10.118256l17.942719,-26.368683l48.270813,-1.07312l-13.814331,18.549988l-15.084656,-2.759521l-3.493393,18.090149l6.510422,1.22644l-4.763702,6.285645l15.561005,10.731384l3.810822,-5.059113l1.588043,3.832581l17.625031,-7.052094l-6.351471,-14.410675l22.07135,-30.047974l30.804382,-0.766541l-3.652039,4.752502l15.243286,11.037994l12.544159,-16.250427l33.027374,-0.76651l-19.848145,32.040955l-24.611847,-0.45993l-0.476318,18.396729l13.814331,0.30661l-15.243439,24.529022l-47.635651,-1.686401l-10.63858,-16.250427l-16.196198,9.811523l3.652039,5.672302l-13.337952,-0.459869l-0.635315,18.396637l14.926025,0.459961l-3.652191,5.825623l16.196198,9.658264l9.050751,-14.717346l37.155853,1.3797l-29.057617,47.065002l-33.345184,3.06604l1.746704,18.39679l19.530701,-1.839661l-13.814392,22.22937l16.354889,9.504944z"/>
 </g>
</svg>