<svg width="640" height="639" xmlns="http://www.w3.org/2000/svg">
 <title>purple wall</title>

 <g>
  <title>background</title>
  <rect fill="none" id="canvas_background" height="641" width="642" y="-1" x="-1"/>
 </g>
 <g>
  <title>Layer 1</title>
  <g stroke="null" transform="rotate(-0.10702969878911972 315.4431152344238,467.3878479003978) " id="layer1">
   <g stroke="null" id="g2414" fill="#000000">
    <g stroke="null" id="g2301" fill="#000000">
     <path stroke="null" d="m512.451749,650.202524c1.30178,23.583744 -1.23901,47.311954 -5.224701,70.659504c-11.805997,6.889205 -31.846098,0.251846 -46.814643,2.646776c-12.927052,1.99263 -33.559711,3.345838 -27.734038,-10.732748c-0.507188,-13.053248 3.642475,-26.007709 1.90104,-39.003171c4.915028,-8.335615 -11.001586,-27.501107 10.398162,-26.249292c22.349272,1.355008 45.225395,-0.030955 67.47418,2.678931zm3.948369,-0.234002c30.592481,-0.996991 61.244731,3.317022 91.777213,0.036081c0.627428,23.770344 0.776831,47.612392 -0.975712,71.357846c-8.852799,7.660244 -30.736343,1.675417 -44.431161,3.278814c-17.034132,-1.389027 -34.824756,0.761647 -51.493609,-1.621765m41.06253,-74.842227c-32.229062,-0.718313 -64.51576,-1.121747 -96.702852,-2.02293c-14.170276,-4.405873 -1.849686,-21.432339 -4.28211,-30.632991c1.413491,-9.847676 -0.962114,-19.686091 -0.791362,-29.487226c24.033939,-0.604213 48.035727,-0.523795 72.036493,0.66658c12.482736,0.466009 24.971537,2.015208 37.471804,2.136365c-0.720254,19.279265 -2.206104,37.464159 -4.749115,56.653276c-1.062997,0.792678 -1.397798,2.227308 -2.982858,2.686915l0,0.000011zm26.005308,-59.607492c16.951214,-1.160282 29.154245,-2.105541 46.136869,-1.42537c19.481981,0.293381 38.992805,-1.697722 58.410574,-1.239501c14.447951,7.260212 8.942727,23.041713 10.539802,34.106988c-4.87085,8.159137 4.842082,22.342378 -6.52551,26.649127c-30.367808,0.803793 -60.813541,-1.843845 -91.203323,-0.033158c-11.01784,-1.41106 -34.692194,8.024401 -34.889121,-3.652602c2.375681,-18.248199 1.012179,-37.74889 3.805975,-55.960736c2.967038,-0.293315 10.717245,1.829001 13.724734,1.555253zm-57.795033,-66.689351c-21.124371,0.028162 -42.274139,-0.505209 -63.37771,-1.095374c-11.207987,-8.954204 -2.080718,-20.608172 -2.97023,-31.21696c-2.328425,-9.710932 -3.697112,-23.513622 16.746255,-20.108024c33.933315,-0.2597 67.924944,1.21135 101.674227,3.374001c1.993509,12.54457 -0.43322,25.86344 -0.801921,38.69368c3.654784,16.203771 -26.411178,9.54763 -40.573435,10.490489c-3.564307,-0.085948 -7.130645,-0.14127 -10.697186,-0.137801l0,-0.000011zm-16.250674,1.08859c5.514251,0.702138 11.757183,0.131879 16.807352,1.644462c3.663633,13.141323 0.568706,26.833403 -0.390995,40.125769c-2.705605,8.061682 2.971597,24.982098 -16.354201,18.901342c-21.006238,-1.36633 -42.311486,-0.381729 -63.221807,0.510139c-4.888815,-9.66413 3.895942,-25.090667 1.3527,-36.909737c-1.900645,-11.57609 -3.023539,-27.922516 19.176062,-23.417857c14.208045,-0.007122 28.435127,-1.336695 42.630889,-0.854118zm93.032516,62.149734c-24.727609,0.05459 -49.510084,0.447368 -74.198852,-0.267084c-2.654339,-9.981943 3.025492,-22.260498 2.457093,-33.14875c2.391514,-8.62135 -7.153181,-23.585086 3.337527,-27.875256c23.783077,0.324008 46.105383,1.781205 69.804827,3.15625c1.653575,10.691934 0.212684,19.510006 0.326846,30.354858c-0.595788,9.258645 -0.823347,18.533596 -1.727441,27.779982zm25.911472,139.094045c-19.676342,2.860611 -9.764057,-13.293369 -12.005312,-21.6923c0.214701,-17.264798 -0.49682,-34.550495 0.570072,-51.801311c10.896808,-4.126071 28.390897,-1.428435 41.935226,-2.469818c12.361462,2.045693 37.713473,-5.382686 39.713366,5.94122c3.196321,12.69762 6.81183,25.534447 4.198681,38.464869c-0.142304,9.149595 8.0222,28.436309 -8.236199,31.600685c-22.551115,1.091044 -43.575305,-0.47107 -66.175835,-0.043345zm-21.84045,-152.737446c0.233726,-15.574799 2.241485,-31.132157 3.880415,-46.646312c18.542046,0.987666 37.222961,0.765519 55.85127,0.432993c16.3601,-2.434676 27.577523,5.283616 24.400929,16.808377c0.293329,13.852579 2.133783,28.400697 -0.607484,36.033051c-2.74119,7.632289 -10.627011,5.752155 -15.529424,6.202523c-22.665367,0.073492 -45.387312,-0.868974 -68.000226,0.469924c0.001481,-4.433501 0.003039,-8.867067 0.00452,-13.300557zm6.292806,-48.72176c-11.925522,-2.191086 -38.889943,5.876519 -32.580232,-9.633175c1.10618,-13.479369 0.514976,-27.151871 3.1519,-40.498368c23.294749,-1.774149 46.899745,1.091447 70.33141,-0.097401c12.928737,-0.227742 33.08258,0.431793 34.944856,12.176159c1.957426,13.260626 7.425774,29.048387 -6.50042,35.333848c-13.926105,6.285406 -44.6584,3.626316 -69.347513,2.718938z" id="path5249" fill="#7f0000"/>
     <path stroke="#000000" d="m429.946217,658.400338c3.666595,11.690648 1.720048,53.590097 -2.474394,58.111869c-3.900589,4.205028 -7.749747,2.378024 -18.031232,4.164083c-10.84198,-0.958631 -22.122454,-2.019123 -33.50127,-1.040587c-21.277631,-0.222484 -38.254011,-0.135609 -59.146457,-1.5432c-11.416381,0.923619 -23.622374,2.078437 -35.141311,-0.451229c-18.535227,-4.770554 -8.867649,-20.264803 -10.72972,-29.427847c0.65248,-14.753227 -0.002809,-23.068272 1.638598,-31.806056c-1.47935,-4.203959 -2.620937,-2.877648 2.05679,-9.006002c19.247489,-0.058386 45.910549,0.060109 61.512638,-0.508808c12.595532,0.696477 32.489116,0.53564 46.122594,0.542631c14.295789,-0.953646 27.232711,1.4707 38.751495,2.532796c13.259248,0.110708 5.275711,-3.258308 8.942268,8.432351z" id="path2230" stroke-width="1.172695px" fill-rule="evenodd" fill="#7f0000"/>
     <path stroke="#000000" d="m443.687205,644.295716c-8.615498,-0.390247 -17.584107,0.900855 -25.938874,-0.890537c-6.514134,-1.887049 -19.177632,-1.937047 -26.388475,-1.284908c-17.124571,-0.242117 -28.611523,-1.036322 -45.73543,-1.139973c-6.107753,-1.09352 -12.679855,1.977589 -18.653757,0.495556c-2.28537,-4.203829 0.916403,-10.510722 0.300863,-14.826796c1.659832,-4.534817 0.92294,-9.534444 -0.718582,-14.422566c-0.509409,-7.772282 -2.545936,-14.752966 -2.089515,-22.537038c-2.355469,-3.667381 11.640505,-7.749846 15.871031,-6.121624c24.112247,1.59706 42.706554,2.7881 66.940817,2.913925c6.533835,-0.40543 22.175123,-0.956776 28.680804,0.384118c5.951646,0.708191 8.907652,-3.173429 11.180356,1.371849c1.970399,4.061828 -0.614455,13.159363 -0.092737,17.33083c-0.181695,5.065604 -2.323395,10.2047 -0.421345,15.142679c-0.985212,5.332087 -2.870522,10.689807 -1.759285,16.082146c-0.032687,2.516556 -0.278403,5.049559 -1.17587,7.502341z" id="path2239" stroke-width="0.968544px" fill-rule="evenodd" fill="#7f0000"/>
     <path stroke="#000000" d="m303.559562,520.519629c-10.181342,0.113642 -22.742629,-0.63483 -32.929704,-0.76072c-2.761773,5.546053 -9.23907,42.576423 0.068541,61.058887c18.986642,4.072288 45.370751,2.403459 56.989243,1.02042c40.048486,-0.977609 59.006336,1.399684 99.072468,1.482098c5.763759,-1.561317 11.948262,-6.516475 9.571292,-9.282074c-1.103409,-14.505918 2.915326,-22.689553 -0.35463,-35.241911c-0.754614,-3.736893 6.225005,-12.485453 -0.499195,-14.885379c-6.472394,-1.581626 -13.78412,-0.684697 -20.650343,-0.808723c-12.339219,0.419271 -24.755827,1.608916 -37.094114,0.525125c-24.759403,-0.795939 -49.298422,-3.347845 -74.173558,-3.107724z" id="path2248" stroke-width="1.157806px" fill-rule="evenodd" fill="#7f0000"/>
     <path stroke="#000000" d="m328.611068,466.348726c-9.448906,1.401843 -7.881109,9.220928 -5.442058,15.529294c0.426798,10.534292 0.01356,25.010314 -0.219259,35.559855c2.417191,3.490642 10.282276,1.142242 15.557195,0.895664c6.715556,-0.018302 13.475558,1.00551 20.020745,2.110667c9.958813,0.597756 21.555727,-0.155176 31.50919,0.639825c13.636172,0.54502 25.736175,-0.40483 39.356795,-1.200497c5.945849,0.054394 11.909817,2.310181 16.102062,-1.283773c3.787742,-2.823789 5.97717,-8.580339 4.079258,-12.173563c1.913898,-10.968474 3.255694,-22.294049 -1.743899,-34.528266c-1.472532,-3.964525 -11.956524,-2.332879 -17.017342,-2.284353c-30.322952,-0.355159 -56.061885,-1.588476 -86.397427,-1.685528c-3.0193,-0.013089 -12.786012,-1.593046 -15.80526,-1.579325z" id="path2250" stroke-width="1px" fill-rule="evenodd" fill="#7f0000"/>
     <path stroke="#000000" d="m245.894179,645.133987c9.651209,2.409447 14.156792,-5.371157 21.077102,3.307107c5.61853,11.732117 -1.249097,16.464529 0.177302,40.839752c-0.661264,7.313003 2.006406,17.044441 -3.197062,23.330905c-3.443365,3.344518 -14.164862,2.235293 -19.292063,1.515049c-34.139066,4.048849 -74.29708,-1.377509 -110.256706,1.446475c-6.949882,-0.41481 -11.973008,-2.183494 -18.735819,-3.494296c-5.661624,-10.603335 -1.768019,-22.220491 -0.981739,-33.229572c-0.327025,-9.695422 -6.844223,-27.048296 0.603781,-35.372066c11.146188,-1.057155 14.080948,-1.260541 18.711764,-0.587896c24.644474,1.091654 48.978024,1.703786 73.620876,3.145136c8.020259,-0.350698 16.258872,0.065301 23.950714,-2.158801c0.964872,-0.130951 13.33983,1.212746 14.32185,1.258207z" id="path2252" stroke-width="0.589443px" fill-rule="evenodd" fill="#7f0000"/>
     <path stroke="#000000" d="m319.968999,641.886804c-19.530156,-0.080953 -39.09148,0.391447 -58.570651,-0.791402c-15.271348,-0.185073 -30.557023,0.220816 -45.811543,-0.346913c-5.993616,0.584842 -16.258591,2.962321 -18.584833,-2.805944c1.121643,-9.721916 1.961499,-19.445632 1.550573,-29.204621c-0.027593,-7.89478 -0.138691,-15.791164 0.145713,-23.684341c6.759019,-2.677534 15.247446,-2.77752 22.698361,-2.126243c18.126586,-0.190995 29.769645,-0.760589 44.79289,1.640263c7.711595,-0.982474 16.482408,-0.834016 23.830525,1.70251c7.62915,0.333727 15.25166,-0.764974 22.902784,-0.077223c11.362102,-0.241583 7.456533,9.519675 8.259578,14.606308c1.506432,7.223673 1.755863,14.440748 1.080107,21.742506c0.291388,6.386189 3.549968,13.676025 -2.293504,19.3451z" id="path2254" stroke-width="1.020742px" fill-rule="evenodd" fill="#7f0000"/>
     <path stroke="#000000" d="m175.59261,641.49143c-10.974695,0.018444 -22.031402,0.277206 -32.875744,-1.080595c-7.974931,-0.251312 -16.092167,0.171559 -23.894048,-1.225791c-7.547049,-0.270618 -40.128966,0.870097 -47.635321,-0.149188c-23.543682,2.717542 -16.849028,-15.047546 -16.82676,-30.215453c-0.192957,-5.632394 -2.161823,-11.198157 -0.363441,-16.66545c0.752597,-3.951186 0.131528,-7.971141 1.097549,-11.908072c5.803073,-1.806041 11.531284,-1.835796 17.494779,-2.322299c14.483843,0.32114 45.862859,2.673728 60.332708,2.968309c6.476428,0.56101 17.021121,2.069929 23.570126,1.430573c7.7142,-0.453825 15.362106,0.535367 23.039827,0.671511c5.988176,-0.162168 16.716696,-1.349282 15.663531,5.014809c-0.129204,7.522704 -1.548453,15.005739 -1.732931,22.524179c0.565399,6.06831 2.426295,12.384802 -0.999487,18.236082c-2.75664,4.044857 2.929129,11.39501 -4.550451,13.130405c-4.140074,0.086614 -8.1631,-0.816238 -12.320334,-0.409019z" id="path2256" stroke-width="1.011306px" fill-rule="evenodd" fill="#7f0000"/>
     <path stroke="#000000" d="m257.99099,581.056924l-15.607043,-0.466336c-3.748466,0 -7.496894,0 -11.245322,0c-11.245348,-0.000065 -22.49067,0 -33.735992,0c-11.643697,0 -21.506071,-1.592337 -33.736017,-1.592337c-14.396788,0 -24.152762,1.744525 -36.643797,-0.466336c-11.54049,-2.042563 -0.593898,0.921361 -12.160946,-1.12587c-12.973261,-2.296133 -4.498114,-11.963796 -4.498114,-22.291649c0,-8.507578 4.498114,-14.287023 4.498114,-22.291649c0,-10.838591 -4.894599,-10.865161 2.24907,-15.922639c3.538592,-2.505169 7.273498,-1.592272 12.819682,-1.592272c12.081016,0 22.522208,1.592272 33.735992,1.592272c11.394751,0 21.0324,1.495678 32.940851,1.495678c11.245348,0 23.285811,0 34.531171,0c11.929097,0 18.083953,0.132806 28.964979,2.058673c7.793811,1.379375 3.36406,22.721511 2.521931,25.106319c-2.45187,6.943327 0,16.684614 0,23.883986c0,5.009813 3.571164,10.329718 -4.634557,11.61216z" id="path2258" stroke-width="1px" fill-rule="evenodd" fill="#7f0000"/>
     <path stroke="#000000" d="m316.88089,518.0337c-8.227823,0.54682 -28.883861,-1.093651 -40.759101,-1.093651c-12.299394,0 -18.454492,-1.546603 -31.489335,-1.546603c-12.475943,0 -21.162319,0 -31.489284,0c-7.512599,0 -17.080022,3.602157 -29.240074,-1.359c-1.034894,-0.422195 0,-24.385203 0,-26.48036c0,-8.775065 1.123354,-15.46456 4.498471,-20.106257c28.325983,-3.634933 65.145371,-1.139711 94.467904,1.546636c9.513399,1.635475 24.910836,-1.859693 32.284553,0.453018c7.702172,2.415697 3.976115,23.291563 3.976115,25.386721c0,9.545034 3.777923,21.587581 -2.249248,23.199496z" id="path2262" stroke-width="0.985605px" fill-rule="evenodd" fill="#7f0000"/>
     <path stroke="#000000" d="m177.944146,514.374696c-17.62863,0.258772 -35.259406,-0.293577 -52.855898,-0.630434c-10.988434,0.550419 -21.555714,-1.877265 -32.430011,-2.209192c-11.21501,-2.621679 -7.31188,-13.748798 -8.811366,-20.235768c-1.155862,-7.1533 -1.217061,-14.565831 0.925315,-21.591114c-0.2991,-6.801773 10.304429,-4.263349 17.498456,-3.819613c21.742542,-1.72884 43.794705,-2.475108 65.342886,-0.384718c8.357678,-1.819948 18.218085,1.83416 13.981699,8.762914c-1.668221,8.861875 -2.758875,17.764085 -1.961295,26.708309c-0.052976,4.456929 0.154613,9.101058 -1.689787,13.399616z" id="path2264" stroke-width="1px" fill-rule="evenodd" fill="#7f0000"/>
     <path stroke="#000000" d="m106.379293,645.541806c-0.07038,16.065239 -0.346625,32.146251 1.511705,48.168614c-2.398971,7.548074 6.051585,20.365193 -5.942683,24.135832c-39.305006,-0.52133 -102.319748,-0.147727 -141.662089,-0.218558c-9.99053,3.06151 -23.348644,0.439711 -27.381412,-7.158558c-4.79655,-10.602528 0.954606,-24.698631 1.740682,-35.362141c1.498043,-11.654371 -0.563675,-20.362597 4.330553,-31.721787c6.165453,-4.155553 15.861658,-0.838205 23.573879,-1.583077c37.308764,0.879216 98.264418,-0.001865 135.582938,0.468801c3.136833,0.556135 5.296613,2.435265 8.246427,3.270884l0,-0.000011z" id="path2271" stroke-width="1px" fill-rule="evenodd" fill="#7f0000"/>
     <path stroke="#000000" d="m43.652696,579.780077c-16.080075,0.792602 -79.233469,-0.792209 -95.305373,-0.522988c-6.050435,4.891449 -6.948541,14.891563 -6.618043,22.454951c-0.18882,9.490575 -0.992656,18.950195 -1.143285,28.442635c2.506864,6.784562 10.002596,10.530835 16.494321,8.861875c4.826773,0.351767 56.9622,1.74892 61.751778,0.50282c9.093931,0.89213 18.366722,1.313866 27.359834,-0.545358c3.539766,-0.725174 3.681253,-5.274236 3.100583,-8.322767c0.095074,-3.978748 1.379131,-7.920347 0.836792,-11.965269c-1.593385,-9.882022 0.837622,-19.956632 -0.67047,-29.831936c-0.809263,-2.759469 -2.781641,-9.213369 -5.806137,-9.073965z" id="path2275" stroke-width="0.719267px" fill-rule="evenodd" fill="#7f0000"/>
     <path stroke="#000000" d="m101.948035,576.867351c-20.756002,-1.653788 -40.256267,1.047971 -60.871484,-0.714517c-15.796795,0.35216 -99.133182,6.914837 -96.015234,-7.868091c-1.659245,-12.774308 6.166028,-25.659858 4.329889,-38.594937c-2.314342,-15.459106 7.13279,-20.765093 25.005054,-16.746403c36.30394,-1.273062 104.7868,-1.454798 132.729015,3.816908c9.407166,8.697177 -0.954517,21.870916 -1.834057,31.769179c-2.546319,10.039467 1.53073,18.694902 -3.343183,28.337861z" id="path2283" stroke-width="0.98083px" fill-rule="evenodd" fill="#7f0000"/>
     <path stroke="#000000" d="m77.773478,510.449611c-25.622702,-0.016513 -96.885594,-1.090051 -122.508168,-1.15376c-6.57177,-4.422975 -1.178552,-10.958821 -2.694037,-16.313345c0.185691,-9.934551 2.882945,-15.368424 3.365847,-25.30111c8.229917,-3.764444 61.67804,-2.429211 70.77252,-3.726269c16.593519,0.281536 33.200203,-0.244713 49.788372,0.229868c8.968468,3.076268 1.310066,11.646954 2.766114,16.708293c-0.068694,9.852126 1.162451,19.788411 -1.49065,29.556322z" id="path2291" stroke-width="0.945982px" fill-rule="evenodd" fill="#7f0000"/>
    </g>
    <g stroke="null" id="g2318" fill="#000000">
     <path stroke="null" d="m526.371164,906.907415c1.404106,23.583744 -1.336382,47.311954 -5.635283,70.659504c-12.733904,6.88914 -34.34894,0.251846 -50.493866,2.646711c-13.943023,1.992695 -36.197183,3.345904 -29.913698,-10.732748c-0.547,-13.053182 3.928769,-26.007709 2.050482,-39.003171c5.301299,-8.33555 -11.866213,-27.501107 11.215355,-26.249292c24.10571,1.355073 48.779705,-0.030889 72.777011,2.678996zm4.258654,-0.234002c32.996802,-0.996991 66.058033,3.317022 98.990048,0.036015c0.676765,23.770344 0.837852,47.612392 -1.0524,71.357912c-9.548577,7.660178 -33.151938,1.675351 -47.923071,3.278737c-18.372774,-1.388951 -37.561592,0.761724 -55.540448,-1.621688m44.289674,-74.842238c-34.762024,-0.718302 -69.586116,-1.121802 -104.302851,-2.022919c-15.2839,-4.405938 -1.994991,-21.432339 -4.618584,-30.633001c1.524551,-9.84773 -1.037792,-19.686145 -0.853557,-29.487291c25.922734,-0.604137 51.81084,-0.523784 77.69781,0.666657c13.463824,0.466009 26.934109,2.015131 40.416792,2.136365c-0.776908,19.279265 -2.379512,37.464159 -5.122337,56.65321c-1.146541,0.792678 -1.507683,2.227308 -3.217287,2.68698l0.000013,0zm28.048997,-59.607547c18.283472,-1.160217 31.44554,-2.105475 49.762746,-1.42537c21.01312,0.293446 42.057343,-1.697722 63.001182,-1.239436c15.583422,7.260147 9.645527,23.041713 11.368065,34.106988c-5.25357,8.159072 5.222633,22.342378 -7.03838,26.649127c-32.754406,0.803793 -65.592892,-1.843911 -98.370996,-0.033158c-11.883744,-1.41106 -37.41865,8.024336 -37.631091,-3.652602c2.562407,-18.248199 1.091752,-37.748956 4.105165,-55.960736c3.200203,-0.293315 11.55954,1.828935 14.803309,1.555187zm-62.337121,-66.689285c-22.784561,0.028097 -45.59651,-0.505209 -68.358598,-1.095439c-12.088817,-8.954204 -2.244256,-20.608172 -3.203676,-31.216895c-2.51141,-9.710998 -3.987683,-23.513655 18.062374,-20.108089c36.600129,-0.259634 73.263233,1.211339 109.664864,3.374066c2.150152,12.54457 -0.467286,25.863375 -0.864972,38.69368c3.941972,16.203695 -28.486903,9.547565 -43.762108,10.490424c-3.844408,-0.085883 -7.691064,-0.14127 -11.537885,-0.137736l0,-0.000011zm-17.527862,1.088524c5.947637,0.702203 12.681183,0.131879 18.128259,1.644528c3.951561,13.141258 0.613408,26.833392 -0.42169,40.125703c-2.91825,8.061747 3.205118,24.982098 -17.639509,18.901342c-22.657106,-1.366264 -45.636781,-0.381664 -68.190425,0.510139c-5.273017,-9.664064 4.202116,-25.090613 1.458972,-36.909748c-2.05001,-11.576014 -3.261159,-27.92244 20.683158,-23.417781c15.324644,-0.007122 30.66987,-1.336771 45.981235,-0.854184zm100.344038,62.1498c-26.671003,0.05459 -53.401161,0.447368 -80.030245,-0.267149c-2.862925,-9.981943 3.26333,-22.260498 2.650241,-33.148684c2.579478,-8.621416 -7.715298,-23.585086 3.599854,-27.875321c25.65212,0.324074 49.728756,1.781271 75.290795,3.15625c1.783558,10.691999 0.229347,19.510006 0.352562,30.354923c-0.642635,9.258645 -0.888121,18.533531 -1.863208,27.779982zm27.947858,139.094045c-21.222688,2.860535 -10.531388,-13.293369 -12.948848,-21.6923c0.231619,-17.264798 -0.535865,-34.550561 0.614889,-51.801311c11.753199,-4.126071 30.622091,-1.4285 45.230898,-2.469818c13.332973,2.045617 40.677395,-5.382686 42.834481,5.941154c3.447489,12.697685 7.347223,25.534436 4.528643,38.464924c-0.153451,9.149606 8.652743,28.43632 -8.883507,31.600696c-24.323373,1.091044 -46.999798,-0.47107 -71.376557,-0.043345zm-23.55691,-152.737446c0.2521,-15.574864 2.417689,-31.132157 4.185351,-46.646377c19.999294,0.987666 40.14831,0.765585 60.24066,0.432993c17.645906,-2.43461 29.74481,5.283616 26.318594,16.808377c0.316414,13.852645 2.301497,28.400697 -0.655174,36.033051c-2.95667,7.632354 -11.462207,5.752221 -16.749907,6.202512c-24.446589,0.073569 -48.954351,-0.868897 -73.34444,0.469935c0.001634,-4.433501 0.003269,-8.867001 0.004903,-13.300491l0.000013,0zm6.787429,-48.72176c-12.862878,-2.191151 -41.94636,5.876519 -35.140762,-9.633241c1.193057,-13.47938 0.555414,-27.151882 3.399556,-40.498303c25.125461,-1.774214 50.585633,1.091447 75.85885,-0.097401c13.944734,-0.227807 35.682475,0.431793 37.691179,12.176093c2.111183,13.260626 8.009342,29.048452 -7.011336,35.333848c-15.020602,6.285472 -48.168173,3.626381 -74.797487,2.719003z" id="path2320" fill="#7f0000"/>
     <path stroke="#000000" d="m437.363308,912.971122c3.953897,12.67346 1.854831,58.095497 -2.668283,62.997472c-4.20624,4.558584 -8.357039,2.57793 -19.444199,4.514181c-11.691515,-1.039256 -23.855972,-2.188959 -36.126459,-1.128063c-22.944907,-0.24119 -41.251553,-0.147061 -63.781205,-1.673017c-12.310924,1.00131 -25.473413,2.253191 -37.894976,-0.489175c-19.987611,-5.171589 -9.562481,-21.968448 -11.570496,-31.90193c0.703617,-15.99347 -0.003039,-25.007588 1.76701,-34.479991c-1.595275,-4.557461 -2.826305,-3.119569 2.217953,-9.763189c20.755747,-0.063316 49.508092,0.06517 66.332784,-0.551619c13.582545,0.755059 35.034975,0.580708 49.736826,0.5883c15.415989,-1.033803 29.366648,1.594268 41.788044,2.745693c14.298241,0.120099 5.68914,-3.532176 9.642999,9.141338z" id="path2322" stroke-width="1.220866px" fill-rule="evenodd" fill="#7f0000"/>
     <path stroke="#000000" d="m452.202356,901.000607c-9.292608,-0.390313 -18.966034,0.900855 -27.977392,-0.890603c-7.026097,-1.886983 -20.684831,-1.936982 -28.462349,-1.284842c-18.470389,-0.242183 -30.860146,-1.036388 -49.329832,-1.140039c-6.587731,-1.093454 -13.67638,1.977654 -20.119751,0.495556c-2.464996,-4.203752 0.988417,-10.510657 0.32451,-14.826796c1.7903,-4.534817 0.995478,-9.534378 -0.775031,-14.4225c-0.549464,-7.772347 -2.74603,-14.752966 -2.253807,-22.537038c-2.540547,-3.667447 12.555363,-7.749911 17.118378,-6.12169c26.007261,1.59706 46.062902,2.788166 72.201755,2.913991c7.047305,-0.405496 23.917861,-0.956776 30.934803,0.384052c6.419405,0.708191 9.607733,-3.173363 12.059054,1.371914c2.125254,4.061763 -0.662784,13.159363 -0.100066,17.330841c-0.195957,5.065527 -2.505996,10.204623 -0.454428,15.142602c-1.06264,5.332164 -3.096089,10.689807 -1.897529,16.082211c-0.035266,2.516556 -0.300313,5.049494 -1.268314,7.502341z" id="path2324" stroke-width="0.968544px" fill-rule="evenodd" fill="#7f0000"/>
     <path stroke="#000000" d="m301.062031,777.224453c-10.981514,0.113707 -24.529979,-0.634764 -35.517686,-0.760655c-2.978811,5.546053 -9.965172,42.576423 0.073955,61.058898c20.478825,4.072277 48.936424,2.403448 61.468064,1.020409c43.195892,-0.977609 63.643651,1.399684 106.858593,1.482033c6.216744,-1.561252 12.887278,-6.516409 10.323505,-9.282074c-1.190107,-14.505853 3.144443,-22.689488 -0.382491,-35.241846c-0.813924,-3.736893 6.714215,-12.48553 -0.538432,-14.885444c-6.981062,-1.581626 -14.867419,-0.684632 -22.273262,-0.808657c-13.308968,0.419206 -26.701391,1.608916 -40.009351,0.525125c-26.70526,-0.795939 -53.172785,-3.347845 -80.002895,-3.107789z" id="path2326" stroke-width="1.157806px" fill-rule="evenodd" fill="#7f0000"/>
     <path stroke="#000000" d="m328.082327,723.053583c-10.19148,1.401876 -8.500467,9.220961 -5.869775,15.529261c0.460379,10.534358 0.014645,25.010314 -0.236484,35.559931c2.607224,3.490631 11.09039,1.142176 16.779875,0.895653c7.2433,-0.018368 14.534572,1.005444 21.594147,2.110602c10.741531,0.597822 23.249817,-0.155111 33.985538,0.639825c14.707852,0.545096 27.758834,-0.404754 42.449883,-1.200497c6.413135,0.054459 12.845819,2.310181 17.367529,-1.283708c4.085412,-2.823854 6.446921,-8.580405 4.399873,-12.173628c2.06431,-10.968409 3.511548,-22.294049 -1.880981,-34.528266c-1.588265,-3.964493 -12.896203,-2.332879 -18.354733,-2.284277c-32.706052,-0.355235 -60.467836,-1.588541 -93.187448,-1.685539c-3.256601,-0.013121 -13.790862,-1.593002 -17.047424,-1.579357z" id="path2328" stroke-width="1px" fill-rule="evenodd" fill="#7f0000"/>
     <path stroke="#000000" d="m238.858059,900.5119c10.408517,2.614087 15.267646,-5.827447 22.731023,3.588032c6.059399,12.728781 -1.347133,17.863209 0.191169,44.309157c-0.713117,7.934264 2.163866,18.492389 -3.447923,25.312966c-3.713583,3.628508 -15.276366,2.425154 -20.805901,1.643655c-36.817984,4.392893 -80.127196,-1.494543 -118.908594,1.569377c-7.495247,-0.45003 -12.912547,-2.368971 -20.206015,-3.791145c-6.105914,-11.504048 -1.906773,-24.108074 -1.058771,-36.052499c-0.352702,-10.519044 -7.381314,-29.346021 0.651164,-38.37699c12.020825,-1.146899 15.185851,-1.367584 20.180069,-0.637764c26.578329,1.184322 52.821334,1.848514 79.39794,3.412285c8.64959,-0.380518 17.534655,0.070831 25.830125,-2.342205c1.04055,-0.142066 14.386611,1.315797 15.445714,1.36513z" id="path2330" stroke-width="0.613936px" fill-rule="evenodd" fill="#7f0000"/>
     <path stroke="#000000" d="m318.761118,898.591694c-21.065062,-0.080953 -42.163717,0.391447 -63.17376,-0.791468c-16.471543,-0.185007 -32.958548,0.220816 -49.411882,-0.346913c-6.464707,0.584842 -17.536391,2.962386 -20.045439,-2.805879c1.209796,-9.721916 2.115639,-19.445632 1.672422,-29.204686c-0.029763,-7.894715 -0.149595,-15.791099 0.157154,-23.684276c7.29025,-2.6776 16.445776,-2.777586 24.482277,-2.126243c19.551147,-0.190995 32.109243,-0.760589 48.313121,1.640263c8.317674,-0.982539 17.777804,-0.834016 25.703398,1.702445c8.228717,0.333792 16.450347,-0.764974 24.702749,-0.077223c12.255062,-0.241583 8.042502,9.519675 8.908725,14.606373c1.624808,7.223673 1.893788,14.440748 1.164928,21.742506c0.314346,6.386189 3.829009,13.676025 -2.473692,19.3451z" id="path2332" stroke-width="1.020742px" fill-rule="evenodd" fill="#7f0000"/>
     <path stroke="#000000" d="m163.038089,898.19632c-11.837215,0.018444 -23.762865,0.277206 -35.459474,-1.080595c-8.601683,-0.251377 -17.356829,0.171559 -25.771888,-1.225791c-8.14018,-0.270618 -43.282704,0.870032 -51.379012,-0.149254c-25.393994,2.717607 -18.173191,-15.047546 -18.149161,-30.215388c-0.208151,-5.632394 -2.331732,-11.198157 -0.392016,-16.66545c0.81174,-3.951251 0.14187,-7.971141 1.183812,-11.908072c6.259135,-1.806041 12.437536,-1.835861 18.869709,-2.322364c15.622136,0.32114 49.467233,2.673793 65.074289,2.968309c6.985404,0.560999 18.358806,2.069994 25.422493,1.430638c8.320471,-0.453825 16.569438,0.535302 24.850544,0.671445c6.458795,-0.162168 18.030453,-1.349216 16.894535,5.014874c-0.139367,7.522704 -1.670149,15.005739 -1.869132,22.524113c0.60982,6.06831 2.616992,12.384802 -1.078039,18.236082c-2.973282,4.044857 3.159318,11.395075 -4.908057,13.130405c-4.465465,0.086679 -8.804649,-0.816172 -13.288603,-0.408953z" id="path2334" stroke-width="1.011306px" fill-rule="evenodd" fill="#7f0000"/>
     <path stroke="#000000" d="m251.912196,837.761749l-16.833617,-0.466336c-4.043059,0 -8.086068,0 -12.129076,0c-12.129153,0 -24.258267,0 -36.387331,0c-12.558772,0 -23.196228,-1.592272 -36.387356,-1.592272c-15.528236,0 -26.050929,1.744459 -39.523653,-0.466336c-12.447457,-2.042563 -0.640567,0.921361 -13.116689,-1.12587c-13.99282,-2.296198 -4.85162,-11.963796 -4.85162,-22.291649c0,-8.507578 4.85162,-14.287023 4.85162,-22.291714c0,-10.838602 -5.279248,-10.865161 2.425823,-15.922574c3.816713,-2.505234 7.845128,-1.592272 13.827213,-1.592272c13.030438,0 24.292231,1.592272 36.387305,1.592272c12.290278,0 22.68535,1.495612 35.529688,1.495612c12.129114,0 25.115846,0 37.244999,0c12.866619,0 19.505207,0.132806 31.241347,2.058673c8.406326,1.37944 3.628494,22.721577 2.720148,25.106385c-2.644559,6.943327 0,16.684614 0,23.883921c0,5.009879 3.851801,10.329718 -4.998815,11.61216l0.000013,0z" id="path2336" stroke-width="1px" fill-rule="evenodd" fill="#7f0000"/>
     <path stroke="#000000" d="m315.424995,774.730868c-8.873765,0.562995 -31.151496,-1.12587 -43.959086,-1.12587c-13.265007,0 -19.903326,-1.592272 -33.961495,-1.592272c-13.455435,0 -22.823798,0 -33.961521,0c-8.102386,0 -18.42095,3.708469 -31.535672,-1.399073c-1.116152,-0.434716 0,-25.104661 0,-27.261586c0,-9.033968 1.211558,-15.920839 4.851646,-20.699454c30.549809,-3.742216 70.259906,-1.173327 101.884523,1.592272c10.260289,1.683674 26.866538,-1.914611 34.819176,0.466336c8.306847,2.487063 4.288264,23.978791 4.288264,26.135727c0,9.826559 4.074495,22.224406 -2.425836,23.883921z" id="path2338" stroke-width="1px" fill-rule="evenodd" fill="#7f0000"/>
     <path stroke="#000000" d="m165.574436,771.07952c-19.014069,0.258838 -38.030462,-0.293512 -57.00989,-0.630434c-11.852001,0.550485 -23.249778,-1.877199 -34.978692,-2.209126c-12.096402,-2.621679 -7.886536,-13.748798 -9.503836,-20.235779c-1.246722,-7.1533 -1.312735,-14.565831 0.998019,-21.591169c-0.32262,-6.801741 11.114254,-4.263349 18.87368,-3.81958c23.45129,-1.728807 47.236551,-2.475076 70.478208,-0.384718c9.014524,-1.819948 19.649847,1.834127 15.080524,8.762947c-1.799327,8.86181 -2.975708,17.764085 -2.115461,26.708244c-0.057113,4.456995 0.166794,9.101058 -1.822566,13.399616l0.000013,0z" id="path2340" stroke-width="1px" fill-rule="evenodd" fill="#7f0000"/>
     <path stroke="#000000" d="m88.385243,902.246707c-0.075883,16.065163 -0.37386,32.146174 1.630541,48.168538c-2.58751,7.548074 6.527183,20.365258 -6.409739,24.135898c-42.394009,-0.52133 -110.361139,-0.147792 -152.795355,-0.218623c-10.775686,3.06151 -25.183621,0.439766 -29.533327,-7.158558c-5.173512,-10.602539 1.029633,-24.698631 1.87747,-35.362152c1.615781,-11.654295 -0.607956,-20.362521 4.670909,-31.721711c6.64999,-4.15563 17.108228,-0.83827 25.426553,-1.583153c40.240894,0.879292 105.987045,-0.001789 146.23846,0.468801c3.383353,0.556211 5.712864,2.435341 8.894488,3.270961z" id="path2342" stroke-width="1px" fill-rule="evenodd" fill="#7f0000"/>
     <path stroke="#000000" d="m20.72896,836.484967c-17.343831,0.792536 -85.460454,-0.792209 -102.795461,-0.522988c-6.525932,4.891373 -7.494634,14.891498 -7.138152,22.454951c-0.203656,9.49051 -1.070671,18.95013 -1.233137,28.442635c2.703868,6.784562 10.788697,10.530835 17.790611,8.86181c5.20611,0.351767 61.438849,1.748986 66.604867,0.502886c9.808631,0.89213 19.810168,1.313866 29.51005,-0.545358c3.817978,-0.725239 3.970548,-5.274236 3.344256,-8.322767c0.102543,-3.978748 1.487522,-7.920412 0.902562,-11.965334c-1.718592,-9.881957 0.903443,-19.956632 -0.723166,-29.83187c-0.872875,-2.759469 -3.000236,-9.213435 -6.26243,-9.073965z" id="path2344" stroke-width="0.719267px" fill-rule="evenodd" fill="#7f0000"/>
     <path stroke="#000000" d="m83.605752,833.572241c-22.38722,-1.653788 -43.420029,1.047906 -65.655419,-0.714583c-17.038269,0.352225 -106.924069,6.914837 -103.561082,-7.868091c-1.789649,-12.774242 6.650615,-25.659858 4.670168,-38.594883c-2.496215,-15.459096 7.693375,-20.765082 26.970218,-16.746392c39.157084,-1.273128 113.022029,-1.454798 143.160247,3.816908c10.146471,8.697177 -1.029531,21.870851 -1.9782,31.769114c-2.746451,10.039533 1.651009,18.694968 -3.605932,28.337927z" id="path2346" stroke-width="0.98083px" fill-rule="evenodd" fill="#7f0000"/>
     <path stroke="#000000" d="m57.53129,767.154501c-27.636385,-0.016513 -104.499842,-1.090051 -132.136113,-1.15376c-7.088253,-4.423052 -1.271174,-10.958821 -2.905763,-16.313345c0.200286,-9.934617 3.109521,-15.368424 3.630384,-25.301176c8.876702,-3.764379 66.525307,-2.429146 76.334538,-3.726237c17.897597,0.281536 35.809419,-0.244724 53.701258,0.229868c9.673311,3.076235 1.413018,11.646987 2.98351,16.70826c-0.074095,9.852191 1.253809,19.7884 -1.607801,29.556388l-0.000013,0z" id="path2348" stroke-width="0.945982px" fill-rule="evenodd" fill="#7f0000"/>
    </g>
    <g stroke="null" id="g2350" fill="#000000">
     <path stroke="null" d="m136.017117,391.586644c-2.130783,22.938062 -0.624581,46.091999 2.265707,68.903603c10.929265,6.939106 30.178145,0.868668 44.276113,3.493641c12.178081,2.193311 31.684782,3.914898 26.697906,-9.907556c0.977066,-12.700019 -2.463873,-25.395043 -0.318943,-38.014643c-4.342122,-8.212626 11.4744,-26.562513 -8.858507,-25.762549c-21.23695,0.881844 -42.869084,-0.915569 -64.062264,1.287504l-0.000013,0zm-3.733846,-0.305128c-28.961442,-1.569705 -58.181495,2.03074 -86.999152,-1.761671c-1.498656,23.132929 -2.546893,46.345067 -1.788563,69.500389c8.100496,7.632092 29.071978,2.233067 41.992697,4.062395c16.199843,-1.01898 32.982195,1.423407 48.873642,-0.570957m-36.078207,-73.677909c30.578002,-0.068475 61.198675,0.170784 91.7439,-0.076557c13.599872,-4.012571 2.568319,-20.832467 5.223935,-29.743566c-0.965421,-9.6164 1.660624,-19.149546 1.87143,-28.696282c-22.759356,-1.058791 -45.514281,-1.450435 -68.310435,-0.761222c-11.850405,0.209407 -23.747747,1.473307 -35.601689,1.346588c-0.05032,18.78637 0.666614,36.522129 2.347514,55.256373c0.977449,0.792635 1.240274,2.196081 2.725332,2.674666l0.000013,0zm-22.384411,-58.549061c-16.024316,-1.461615 -27.555944,-2.620904 -43.679981,-2.291137c-18.478599,-0.095699 -36.897698,-2.416471 -55.321712,-2.350429c-13.971586,6.786416 -9.353181,22.260727 -11.287841,33.003728c4.306881,8.039868 -5.43953,21.660015 5.172338,26.076043c28.755793,1.377171 57.716724,-0.604813 86.455038,1.753272c10.497718,-1.158286 32.580423,8.492493 33.211133,-2.873547c-1.55808,-17.814814 0.475994,-36.776004 -1.479861,-54.563561c-2.801355,-0.343707 -10.228649,1.571035 -13.069114,1.245631zm57.321184,-63.804013c20.023247,0.440933 40.091912,0.335657 60.118939,0.174155c10.9648,-8.499288 2.755989,-20.025478 4.002596,-30.337821c2.576452,-9.410026 4.398724,-22.822893 -15.109547,-19.907103c-32.15632,-0.917162 -64.433761,-0.150323 -96.50775,1.294757c-2.366731,12.175657 -0.572805,25.191733 -0.711176,37.691835c-4.080611,15.706045 24.672743,9.813547 38.061642,11.008852c3.381948,-0.013819 6.76465,0.002061 10.145296,0.075325zm15.363077,1.378044c-5.253813,0.575778 -11.149942,-0.101764 -15.994654,1.272223c-3.972539,12.723982 -1.559472,26.116584 -1.155211,39.078157c2.258161,7.902666 -3.766802,24.266915 14.783837,18.724417c19.964232,-0.919125 40.122556,0.456727 59.910034,1.734468c5.001739,-9.314228 -2.738956,-24.507101 0.1213,-35.965547c2.241843,-11.234402 3.927863,-27.129009 -17.286986,-23.17742c-13.467872,-0.285102 -26.903516,-1.858265 -40.37832,-1.666298zm-90.551074,58.694006c23.437845,0.537276 46.914761,1.404876 70.345033,1.192546c2.895676,-9.6675 -2.021485,-21.734315 -1.068628,-32.325095c-1.939129,-8.441469 7.677478,-22.824791 -2.103739,-27.20753c-22.556848,-0.150126 -43.772105,0.831748 -66.289691,1.706644c-1.97405,10.378407 -0.943472,18.992733 -1.464118,29.550193c0.212671,9.026846 0.07573,18.062265 0.581142,27.083243zm-29.851312,134.928838c18.542888,3.17056 9.761056,-12.752646 12.205036,-20.886784c0.45296,-16.814965 1.784771,-33.632199 1.4294,-50.450196c-10.172468,-4.230889 -26.858073,-1.946733 -39.657453,-3.225849c-11.795539,1.749847 -35.544844,-5.979504 -37.871214,5.007447c-3.512684,12.301155 -7.428085,24.729586 -5.442684,37.371153c-0.213067,8.911764 -8.685788,27.53144 6.605658,30.930876c21.335254,1.503825 41.323938,0.394403 62.731257,1.253353zm26.511078,-148.293169c0.370693,-15.169783 -0.940918,-30.35729 -1.904539,-45.495573c-17.614023,0.598683 -35.313608,0.01671 -52.959233,-0.671816c-15.415555,-2.690907 -26.342254,4.604754 -23.769364,15.88862c-0.80482,13.482575 -3.102614,27.612055 -0.794362,35.097348c2.308238,7.48526 9.854891,5.808981 14.484851,6.343454c21.482232,0.515331 43.056767,0.04244 64.441205,1.788862c0.167164,-4.317001 0.33429,-8.633937 0.501442,-12.950895zm-4.112418,-47.563637c11.387843,-1.900039 36.641244,6.48335 31.249889,-8.742049c-0.536006,-13.146548 0.544318,-26.4479 -1.447774,-39.494996c-22.014139,-2.18356 -44.498833,0.144564 -66.665095,-1.471736c-12.246788,-0.474931 -31.376156,-0.227284 -33.58807,11.171751c-2.359708,12.873607 -8.143666,28.139144 4.818282,34.53192c12.961948,6.392777 42.19491,4.405273 65.632768,4.005111z" id="path2352" fill="#7f0000"/>
     <path stroke="#000000" d="m214.00334,398.659722c-3.957243,11.779193 -3.839646,54.27956 -0.050499,58.941064c3.523704,4.335009 7.247386,2.555669 16.918795,4.559053c10.315819,-0.767843 21.051502,-1.63061 31.796301,-0.425063c20.176634,0.174427 36.263694,0.581483 56.124169,-0.452451c10.782632,1.150564 22.304187,2.550346 33.326419,0.203081c17.764831,-4.486488 9.240436,-20.371083 11.383145,-29.622573c-0.010164,-14.964161 0.953738,-23.378897 -0.241783,-32.26527c1.575445,-4.232787 2.602781,-2.86709 -1.578203,-9.165945c-18.240877,-0.420864 -43.517682,-0.801818 -58.282302,-1.671621c-11.967096,0.469139 -30.81612,-0.067701 -43.738614,-0.316853c-13.510544,-1.235138 -25.872439,0.978711 -36.834047,1.838653c-12.572039,-0.136939 -4.866138,-3.40129 -8.823381,8.377935l0,-0.000011z" id="path2354" stroke-width="1.196341px" fill-rule="evenodd" fill="#7f0000"/>
     <path stroke="#000000" d="m201.425275,387.181404c8.181716,-0.211326 16.634136,1.221439 24.621963,-0.359315c6.246661,-1.70984 18.25256,-1.510621 25.0631,-0.734488c16.241992,0.099484 27.160978,-0.448939 43.397084,-0.214631c5.83124,-0.94516 11.94433,2.173874 17.663514,0.847727c2.326204,-4.048511 -0.469035,-10.252233 0.278569,-14.442777c-1.400952,-4.44804 -0.512333,-9.301739 1.229574,-14.029155c0.778466,-7.557956 2.974367,-14.315119 2.837745,-21.903474c2.372221,-3.524858 -10.739616,-7.773951 -14.811774,-6.27138c-22.917314,1.082994 -40.588591,1.878726 -63.56561,1.526796c-6.178158,-0.522693 -20.983931,-1.36573 -27.201799,-0.187505c-5.668634,0.573052 -8.323126,-3.264296 -10.6503,1.116948c-2.022238,3.916403 0.082063,12.825342 -0.571094,16.876842c-0.020404,4.935928 1.814343,9.98179 -0.176434,14.752704c0.731159,5.211192 2.31452,10.464857 1.05609,15.693665c-0.064698,2.451014 0.071937,4.922196 0.829373,7.328044z" id="path2356" stroke-width="0.968544px" fill-rule="evenodd" fill="#7f0000"/>
     <path stroke="#000000" d="m338.968192,272.50356c9.648017,0.294384 21.585107,-0.164131 31.247693,-0.091173c2.407334,5.179311 7.139774,39.538636 -2.387135,56.454798c-18.154996,3.412285 -43.10475,1.378807 -54.067022,-0.115965c-37.930434,-1.648454 -55.993663,0.19718 -93.981184,-0.471462c-5.404915,-1.550737 -11.079639,-6.247362 -8.720978,-8.760351c1.597726,-13.391839 -1.900964,-21.033246 1.676444,-32.578567c0.857528,-3.44121 -5.42671,-11.660032 1.039376,-13.754022c6.196289,-1.34205 13.093999,-0.376832 19.608158,-0.363841c11.68213,0.617051 23.408375,1.947856 35.146776,1.17516c23.503257,-0.275679 46.864325,-2.179001 70.437873,-1.494576z" id="path2358" stroke-width="1.128316px" fill-rule="evenodd" fill="#7f0000"/>
     <path stroke="#000000" d="m317.275345,216.167029c8.90349,1.549963 7.120008,9.132722 4.568123,15.227395c-0.805164,10.248961 -0.963914,24.352351 -1.144358,34.629048c-2.424086,3.351499 -9.790257,0.910836 -14.781117,0.567522c-6.365126,-0.149319 -12.811996,0.715183 -19.058388,1.663168c-9.462926,0.387084 -20.427266,-0.573052 -29.892643,0.00613c-12.946779,0.263757 -24.380551,-0.897954 -37.261585,-1.939414c-5.638283,-0.063447 -11.377501,2.016266 -15.21472,-1.565244c-3.483113,-2.823712 -5.339642,-8.471726 -3.403936,-11.9333c-1.397134,-10.717467 -2.238395,-21.771497 2.966106,-33.586138c1.546563,-3.831382 11.422535,-2.037404 16.217949,-1.891041c28.757364,0.247778 53.202829,-0.449201 81.9623,0.050227c2.86258,0.046366 12.180712,-1.300821 15.04227,-1.228354z" id="path2360" stroke-width="1px" fill-rule="evenodd" fill="#7f0000"/>
     <path stroke="#000000" d="m388.942435,390.577982c-9.246973,2.356449 -13.196428,-5.951342 -20.113699,3.081089c-5.809355,12.284042 0.504685,17.417881 -1.852878,43.140455c0.325008,7.738503 -2.604926,17.966762 2.067617,24.709811c3.12575,3.600542 13.333522,2.638716 18.222873,1.978123c32.190603,4.945636 70.476995,-0.00084 104.443674,3.686425c6.604343,-0.302172 11.438317,-2.072318 17.902296,-3.324711c5.80366,-11.0907 2.592502,-23.439486 2.30142,-35.085164c0.709963,-10.235982 7.603038,-28.440312 0.887074,-37.379541c-10.520944,-1.334972 -13.29417,-1.60728 -17.711102,-0.987295c-23.403497,0.67078 -46.492534,0.841139 -69.908979,1.88142c-7.587256,-0.527514 -15.413142,-0.249305 -22.611868,-2.749489c-0.909112,-0.157172 -12.693734,1.020049 -13.626417,1.048877l-0.000013,0z" id="path2362" stroke-width="0.613936px" fill-rule="evenodd" fill="#7f0000"/>
     <path stroke="#000000" d="m318.792337,387.257961c18.516164,0.303535 37.040832,1.146441 55.550611,0.376035c14.48314,0.118801 28.957356,0.813249 43.439002,0.559069c5.659287,0.686824 15.299324,3.202747 17.723755,-2.368262c-0.693556,-9.488219 -1.119919,-18.972675 -0.359304,-28.46698c0.326387,-7.686574 0.731937,-15.373114 0.762531,-23.064313c-6.305268,-2.739476 -14.347846,-3.003004 -21.435512,-2.514701c-17.175351,-0.540832 -28.19042,-1.32341 -42.522599,0.720211c-7.272642,-1.107655 -15.592347,-1.134781 -22.654259,1.191139c-7.244552,0.17566 -14.428351,-1.043412 -21.707186,-0.523555c-10.761207,-0.457676 -7.430192,9.123342 -8.384862,14.060524c-1.702657,7.00421 -2.213509,14.026592 -1.850618,21.149538c-0.519062,6.212568 -3.885152,13.246904 1.43844,18.881295z" id="path2364" stroke-width="1.020742px" fill-rule="evenodd" fill="#7f0000"/>
     <path stroke="#000000" d="m455.665205,389.699497c10.402478,0.232803 20.873586,0.701233 31.204791,-0.408561c7.569215,-0.088599 15.247612,0.482086 22.696395,-0.725763c7.164277,-0.115736 38.006099,1.632813 45.160289,0.787279c22.214297,3.107015 16.543774,-14.321947 17.099443,-29.091383c0.397136,-5.480512 2.475045,-10.861333 0.978279,-16.220045c-0.563139,-3.862053 0.178388,-7.764069 -0.587603,-11.616425c-5.432201,-1.872138 -10.860967,-2.01331 -16.495394,-2.603769c-13.741805,0.029155 -43.576161,1.705575 -57.303704,1.709109c-6.160474,0.419468 -16.213429,1.68231 -22.397052,0.931537c-7.295242,-0.592924 -14.582492,0.220521 -21.86554,0.202742c-5.670204,-0.275101 -15.794854,-1.641027 -15.038554,4.576297c-0.163589,7.327422 0.897186,14.641429 0.786178,21.965754c-0.766693,5.897646 -2.77089,12.011624 0.254015,17.776105c2.459276,3.992426 -3.209907,11.037974 3.814173,12.874163c3.921198,0.165396 7.769028,-0.634928 11.694286,-0.157041z" id="path2366" stroke-width="1.011306px" fill-rule="evenodd" fill="#7f0000"/>
     <path stroke="#000000" d="m379.855884,329.241127l14.812017,-0.148523c3.553237,0.073394 7.106487,0.146756 10.659736,0.22015c10.659736,0.220117 21.319434,0.440311 31.979132,0.660462c11.03735,0.227971 20.446674,-1.129361 32.039757,-0.889937c13.647038,0.281863 22.828637,2.171453 34.753253,0.263288c11.017176,-1.762925 0.527923,0.908785 11.570457,-0.858176c12.384968,-1.981821 4.718803,-11.561104 5.111547,-21.617379c0.323488,-8.283784 -3.720606,-13.999335 -3.416206,-21.793486c0.412139,-10.553565 5.052863,-10.483574 -1.526466,-15.547902c-3.259091,-2.508604 -6.834187,-1.692759 -12.091588,-1.80134c-11.451839,-0.236533 -21.409835,1.109455 -32.03968,0.889894c-10.801338,-0.223084 -19.994008,1.04459 -31.28227,0.811449c-10.659736,-0.22015 -22.073193,-0.455887 -32.732929,-0.676037c-11.3079,-0.233533 -17.147286,-0.224753 -27.534889,1.437423c-7.440394,1.190572 -4.052904,22.058148 -3.34529,24.396765c2.060148,6.808721 -0.634438,16.245808 -0.908218,23.255842c-0.190505,4.878066 -3.777961,9.988138 3.951637,11.397496l0,0.000011z" id="path2368" stroke-width="1px" fill-rule="evenodd" fill="#7f0000"/>
     <path stroke="#000000" d="m326.434178,266.715019c7.777378,0.709227 27.420445,-0.530841 38.676442,-0.298376c11.65801,0.240765 17.552697,-1.189143 29.907774,-0.93397c11.825379,0.244255 20.058807,0.414276 29.847213,0.616451c7.120838,0.147061 16.048371,3.945263 27.7685,-0.789908c0.997457,-0.402998 0.954632,-24.444396 1.036656,-26.544669c0.343522,-8.796367 -0.459383,-15.524102 -3.476792,-20.243098c-26.70655,-4.198299 -61.703577,-2.417769 -89.602213,-0.298911c-9.08129,1.45314 -23.538945,-2.35189 -30.618707,-0.177907c-7.395079,2.270839 -4.680574,23.270283 -4.762599,25.370534c-0.373643,9.568136 -4.42601,21.565984 1.223726,23.299853z" id="path2370" stroke-width="1px" fill-rule="evenodd" fill="#7f0000"/>
     <path stroke="#000000" d="m458.269888,265.879606c16.700749,0.597156 33.434376,0.404492 50.12731,0.420973c10.395277,0.7511 20.504579,-1.405868 30.825237,-1.51615c10.730652,-2.333184 7.453916,-13.244112 9.121971,-19.531144c1.367639,-6.94253 1.707573,-14.158907 -0.056104,-21.041426c0.542173,-6.617028 -9.605702,-4.35294 -16.442009,-4.061719c-20.544506,-2.109042 -41.419892,-3.267427 -61.925403,-1.653853c-7.853274,-1.935716 -17.339119,1.429264 -13.586835,8.258763c1.244386,8.661423 1.939742,17.350932 0.843585,26.044281c-0.119283,4.340801 -0.492657,8.858712 1.092263,13.080276l-0.000013,0z" id="path2372" stroke-width="1px" fill-rule="evenodd" fill="#7f0000"/>
     <path stroke="#000000" d="m521.12016,394.998362c-0.544203,15.644103 -0.893803,31.307642 -3.264658,46.872254c1.987036,7.396519 -6.510865,19.711156 4.715445,23.617469c37.277992,0.261892 96.996973,1.85929 134.293109,2.560522c9.353832,3.176624 22.116031,0.885313 26.227734,-6.434224c4.94995,-10.229786 0.034296,-24.067794 -0.305344,-34.466281c-0.976874,-11.377133 1.308649,-19.815995 -2.898766,-30.97228c-5.686407,-4.167006 -15.003837,-1.126732 -22.286068,-2.003014c-35.399271,0.125749 -93.147112,-1.92554 -128.540114,-2.197881c-2.994631,0.480155 -5.113373,2.267578 -7.941338,3.023433z" id="path2374" stroke-width="1px" fill-rule="evenodd" fill="#7f0000"/>
     <path stroke="#000000" d="m583.080868,332.194121c15.21255,1.086528 75.137344,0.779797 90.36205,1.356546c5.549326,4.881262 6.02043,14.635965 5.41956,21.994036c-0.181886,9.244662 0.220319,18.471218 0.002183,27.717004c-2.634344,6.557082 -9.882126,10.058042 -15.972374,8.305861c-4.588731,0.248051 -54.062272,0.587798 -58.555074,-0.719273c-8.654225,0.69062 -17.460189,0.919725 -25.914282,-1.066655c-3.327861,-0.775456 -3.288982,-5.207626 -2.622572,-8.164591c0.061097,-3.875992 -1.006191,-7.739102 -0.338312,-11.667023c1.886204,-9.590932 -0.035062,-19.448217 1.769998,-29.034262c0.872058,-2.671077 2.987072,-8.916662 5.848822,-8.721642z" id="path2376" stroke-width="0.719267px" fill-rule="evenodd" fill="#7f0000"/>
     <path stroke="#000000" d="m527.932066,328.216682c19.738001,-1.203922 38.120045,1.808495 57.728676,0.49596c14.96082,0.652205 93.707749,8.673737 91.314294,-5.781452c2.05859,-12.405831 -4.869202,-25.105752 -2.636757,-37.664698c2.781641,-15.007244 -5.971795,-20.358638 -23.066092,-16.79554c-34.364952,-1.950321 -99.274541,-3.467998 -125.962156,1.118083c-9.247995,8.284253 0.073189,21.314378 0.530528,30.969553c2.03193,9.825338 -2.161925,18.1733 2.091507,27.658094z" id="path2378" stroke-width="0.98083px" fill-rule="evenodd" fill="#7f0000"/>
     <path stroke="#000000" d="m553.373303,264.018888c24.289014,0.485576 91.881569,0.83538 116.172217,1.275015c6.397775,-4.178055 1.533935,-10.647563 3.174104,-15.831597c0.201767,-9.676978 -2.148442,-15.020715 -2.228474,-24.701652c-7.658172,-3.826572 -58.373635,-3.572827 -66.94526,-5.013849c-15.740065,-0.050729 -31.461896,-0.888269 -47.204297,-0.750893c-8.618384,2.819786 -1.684743,11.315049 -3.257418,16.214722c-0.309468,9.594433 -1.854397,19.245245 0.289128,28.808255z" id="path2380" stroke-width="0.945982px" fill-rule="evenodd" fill="#7f0000"/>
    </g>
    <g stroke="null" id="g2382" fill="#000000">
     <path stroke="null" d="m505.177115,141.027091c1.334709,24.188503 -0.806594,48.53648 -4.257824,72.498223c-10.636983,7.101644 -28.814464,0.351931 -42.342922,2.852616c-11.683892,2.082069 -30.344429,3.530878 -25.166652,-10.928205c-0.545672,-13.388534 3.12303,-26.689494 1.460887,-40.015181c4.391995,-8.565124 -10.137674,-28.178431 9.23432,-26.9572c20.231883,1.324304 40.922256,-0.164687 61.072191,2.549746zm3.571138,-0.251628c27.675163,-1.11264 55.439718,3.222609 83.045369,-0.23277c0.725783,24.381865 1.019431,48.838717 -0.408526,73.202117c-7.959533,7.883895 -27.800791,1.808953 -40.181968,3.493936c-15.422654,-1.37475 -31.506241,0.883709 -46.605011,-1.512191m36.658111,-76.894214c-29.167448,-0.642116 -58.384935,-0.961085 -87.515609,-1.790902c-12.851348,-4.477926 -1.81613,-21.979933 -4.078313,-31.410879c1.213563,-10.105968 -1.001466,-20.191289 -0.912074,-30.245841c21.743193,-0.690402 43.461871,-0.678491 65.187022,0.472095c11.298158,0.441358 22.608982,1.993786 33.920776,2.081338c-0.523621,19.778911 -1.747155,38.437427 -3.92061,58.129157c-0.956547,0.816249 -1.250042,2.288879 -2.681191,2.765032zm23.13476,-61.222091c15.330683,-1.240036 26.366361,-2.245523 41.73766,-1.597758c17.630316,0.243721 35.271613,-1.856149 52.844956,-1.443149c13.121541,7.40506 8.245009,23.610031 9.763673,34.956154c-4.353141,8.383945 4.529971,22.904664 -5.727471,27.355933c-27.47309,0.913802 -55.039695,-1.712676 -82.526039,0.23409c-9.978924,-1.415106 -31.338055,8.333401 -31.593909,-3.644335c2.028342,-18.726075 0.664916,-38.725987 3.071931,-57.415948c2.682749,-0.309611 9.709663,1.844652 12.429198,1.555024l0,-0.000011zm-52.739488,-68.240328c-19.114339,0.090911 -38.255377,-0.394032 -57.354982,-0.937416c-10.201145,-9.152289 -2.019736,-21.13381 -2.89519,-32.013729c-2.171425,-9.954718 -3.501652,-24.109546 15.019274,-20.676145c30.70303,-0.366143 61.470349,1.042943 92.02298,3.162227c1.887199,12.862438 -0.220089,26.532093 -0.468461,39.69451c3.414763,16.611154 -23.834815,9.871595 -36.643338,10.880388c-3.225739,-0.077583 -6.453152,-0.123949 -9.680283,-0.109835zm-14.697331,1.164383c4.994295,0.704101 10.639435,0.100739 15.219164,1.637558c3.402416,13.469618 0.693019,27.524121 -0.087004,41.162309c-2.394591,8.277687 2.854932,25.617974 -14.67256,19.437146c-19.016648,-1.339847 -38.288294,-0.267171 -57.203204,0.709118c-4.487886,-9.899092 3.358455,-25.749547 0.978636,-37.866142c-1.796773,-11.869166 -2.921532,-28.634143 17.195883,-24.078515c12.856174,-0.049028 25.720814,-1.454798 38.569085,-1.001474zm84.594154,63.480092c-22.374515,0.128672 -44.796504,0.604421 -67.140975,-0.055921c-2.468201,-10.231739 2.589642,-22.843813 2.002894,-34.011343c2.106663,-8.850881 -6.629356,-24.172666 2.834706,-28.6044c21.522338,0.262481 41.730497,1.691679 63.184243,3.032519c1.567376,10.96302 0.322096,20.012826 0.497598,31.137229c-0.477565,9.499323 -0.621823,19.014199 -1.378467,28.501916zm24.370923,142.607155c-17.785248,2.992206 -8.923485,-13.607724 -11.007395,-22.21676c0.07956,-17.710967 -0.679255,-35.440651 0.171531,-53.139729c9.832559,-4.264571 25.680096,-1.548763 37.928787,-2.6568c11.199037,2.062119 34.08955,-5.632449 35.974412,5.97777c2.976627,13.015934 6.333563,26.173334 4.054896,39.44514c-0.067877,9.386117 7.44808,29.146508 -7.242483,32.440319c-20.39823,1.185489 -39.432422,-0.355159 -59.87976,0.150061l0.000013,0zm-20.777925,-156.614627c0.107932,-15.977382 1.821276,-31.942068 3.201071,-47.861403c16.78451,0.958631 33.686476,0.675917 50.540267,0.279987c14.787348,-2.545536 24.988762,5.338904 22.191071,17.170364c0.357478,14.209244 2.119521,29.127355 -0.310171,36.964687c-2.429615,7.837321 -9.57765,5.931862 -14.010594,6.408243c-20.508435,0.142033 -41.074762,-0.757993 -61.527322,0.681927c-0.028142,-4.54795 -0.056194,-9.095856 -0.084323,-13.643805zm5.370236,-49.997495c-10.805475,-2.212595 -35.150747,6.142501 -29.544448,-9.785996c0.911257,-13.830459 0.285464,-27.854052 2.582747,-41.552655c21.066594,-1.888423 42.444674,0.981732 63.639144,-0.306644c11.697095,-0.271643 29.937767,0.345681 31.700908,12.387627c1.85939,13.597068 6.912445,29.776167 -5.646966,36.264741c-12.559423,6.488531 -40.385305,3.851178 -62.731385,2.992926z" id="path2384" fill="#7f0000"/>
     <path stroke="#000000" d="m430.554441,147.008242c3.401625,12.497288 1.942461,57.330403 -1.819884,62.180078c-3.498805,4.509949 -6.994533,2.566085 -16.283949,4.506088c-9.816318,-0.995017 -20.030129,-2.097753 -30.318202,-1.01862c-19.252787,-0.177841 -34.611727,-0.036943 -53.524568,-1.483854c-10.322458,1.020387 -21.357663,2.290483 -31.797795,-0.383452c-16.804339,-5.051555 -8.169178,-21.655892 -9.919959,-31.45406c0.484038,-15.786081 -0.168799,-24.680416 1.253298,-34.033517c-1.368763,-4.493577 -2.39205,-3.071272 1.795995,-9.641203c17.41398,-0.116859 41.538549,-0.065454 55.650652,-0.718259c11.400944,0.709522 29.398748,0.481246 41.733881,0.450182c12.927371,-1.060733 24.649709,1.496419 35.079116,2.600235c11.997255,0.080986 4.749779,-3.500905 8.151417,8.996382z" id="path2386" stroke-width="1.197565px" fill-rule="evenodd" fill="#7f0000"/>
     <path stroke="#000000" d="m442.915864,135.169976c-7.79837,-0.37501 -15.905046,0.97582 -23.476839,-0.837289c-5.906918,-1.916574 -17.365843,-1.930645 -23.886285,-1.240494c-15.496877,-0.198063 -25.896201,-0.979005 -41.391572,-1.034992c-5.533889,-1.103751 -11.460291,2.065926 -16.875651,0.563181c-2.095874,-4.30556 0.759377,-10.784634 0.173714,-15.210281c1.471753,-4.656727 0.771724,-9.783181 -0.746123,-14.792591c-0.512601,-7.971371 -2.401767,-15.126154 -2.040548,-23.112468c-2.15572,-3.755108 10.481425,-7.984066 14.320292,-6.326286c21.828729,1.567414 38.661835,2.734579 60.591128,2.792409c5.909485,-0.435109 20.058922,-1.046608 25.95454,0.309709c5.390065,0.708977 8.039067,-3.281431 10.125748,1.374434c1.809938,4.160822 -0.468538,13.500758 0.031283,17.778319c-0.130723,5.196806 -2.034496,10.474805 -0.280586,15.534639c-0.856008,5.472615 -2.526298,10.97408 -1.484968,16.502322c-0.01282,2.581584 -0.218366,5.180652 -1.014133,7.699389z" id="path2388" stroke-width="0.968544px" fill-rule="evenodd" fill="#7f0000"/>
     <path stroke="#000000" d="m315.297732,8.611743c-9.211911,0.146494 -20.583015,-0.584308 -29.801707,-0.683541c-2.462111,5.69727 -8.076938,43.702272 0.467988,62.634296c17.207259,4.121545 41.069935,2.332126 51.573807,0.87927c36.231543,-1.120591 53.401519,1.262319 89.656096,1.229074c5.204987,-1.618471 10.76814,-6.719697 8.598937,-9.549735c-1.094829,-14.876958 2.487124,-23.283557 -0.555159,-36.150194c-0.707665,-3.831131 5.549721,-12.825975 -0.550664,-15.268067c-5.867132,-1.603419 -12.477195,-0.661858 -18.690977,-0.768879c-11.162404,0.466336 -22.389761,1.723223 -33.561269,0.6477c-22.409016,-0.743683 -44.630246,-3.289339 -67.137055,-2.969923z" id="path2390" stroke-width="1.157806px" fill-rule="evenodd" fill="#7f0000"/>
     <path stroke="#000000" d="m337.605584,-47.030635c-8.54056,1.465803 -7.069943,9.482046 -4.821053,15.94598c0.456254,10.804943 0.178554,25.655702 0.038037,36.478173c2.210432,3.57358 9.311582,1.141446 14.082952,0.873053c6.076496,-0.038579 12.200107,0.991788 18.129893,2.106239c9.01529,0.583937 19.503815,-0.222484 28.515555,0.563693c12.342373,0.51905 23.284853,-0.490822 35.60423,-1.347111c5.380489,0.038317 10.79203,2.334799 14.5615,-1.364225c3.408596,-2.907807 5.351415,-8.819359 3.61021,-12.499731c1.658874,-11.257078 2.797729,-22.87888 -1.807524,-35.414135c-1.358791,-4.062461 -10.834421,-2.357911 -15.41341,-2.29321c-27.440275,-0.275253 -50.738458,-1.464723 -78.188399,-1.475096c-2.732112,-0.004548 -11.580072,-1.596547 -14.311992,-1.573631z" id="path2392" stroke-width="1px" fill-rule="evenodd" fill="#7f0000"/>
     <path stroke="#000000" d="m263.932932,135.250067c8.749388,2.65319 12.769681,-6.019457 19.093463,3.61867c5.167996,13.040715 -1.011375,18.327822 0.454965,45.452021c-0.545531,8.14089 1.93826,18.963677 -2.724285,25.975511c-3.091301,3.732301 -12.799559,2.529404 -17.443629,1.74279c-30.858307,4.606587 -67.230558,-1.314728 -99.744854,1.933917c-6.290929,-0.441238 -10.848377,-2.39493 -16.976521,-3.833879c-5.198883,-11.784319 -1.759911,-24.725048 -1.127899,-36.979946c-0.365816,-10.789531 -6.387445,-30.083204 0.291159,-39.369062c10.076921,-1.20931 12.730674,-1.444283 16.925294,-0.709238c22.305068,1.142471 44.325412,1.752258 66.631502,3.283995c7.25386,-0.413905 14.710776,0.024868 21.653967,-2.473047c0.87202,-0.148545 12.078028,1.310518 12.966838,1.358269z" id="path2394" stroke-width="0.613936px" fill-rule="evenodd" fill="#7f0000"/>
     <path stroke="#000000" d="m330.952772,133.062559c-17.672515,-0.025632 -35.369534,0.516432 -53.003246,-0.639705c-13.819616,-0.144934 -27.648234,0.31633 -41.455108,-0.221219c-5.419534,0.617553 -14.692045,3.086575 -16.83529,-2.823712c0.950341,-9.976064 1.645608,-19.953175 1.208877,-29.962822c-0.077415,-8.098374 -0.230445,-16.198165 -0.025601,-24.295895c6.098202,-2.766548 13.778323,-2.894031 20.524651,-2.247836c16.400691,-0.249174 26.932155,-0.867698 40.541986,1.550944c6.971307,-1.030498 14.908636,-0.903975 21.574471,1.676355c6.905537,0.319973 13.795497,-0.829501 20.723251,-0.146527c10.279429,-0.281187 6.81031,9.743414 7.570811,14.958991c1.411116,7.405638 1.684782,14.8082 1.121873,22.300375c0.306123,6.550123 3.303129,14.018521 -1.946675,19.851051z" id="path2396" stroke-width="1.020742px" fill-rule="evenodd" fill="#7f0000"/>
     <path stroke="#000000" d="m200.310361,133.08133c-9.930391,0.051166 -19.933409,0.349127 -29.755,-1.011858c-7.21784,-0.234384 -14.559943,0.223291 -21.628813,-1.187179c-6.830791,-0.255424 -36.305115,1.010462 -43.104087,-0.013067c-21.285534,2.85687 -15.345929,-15.386312 -15.426638,-30.945666c-0.212033,-5.777176 -2.030551,-11.480751 -0.439617,-17.094407c0.654701,-4.055393 0.065987,-8.177211 0.913951,-12.218599c5.238899,-1.869717 10.421924,-1.917109 15.814798,-2.433694c13.10793,0.286891 41.517022,2.607979 54.612106,2.86757c5.863952,0.556484 15.415402,2.073376 21.337042,1.398255c6.977257,-0.488216 13.904067,0.504009 20.852212,0.621076c5.417326,-0.183917 15.11717,-1.433212 14.206538,5.098194c-0.066868,7.717244 -1.301358,15.397525 -1.418292,23.110515c0.551915,6.223225 2.277811,12.69726 -0.783177,18.709594c-2.467461,4.15732 2.726187,11.68045 -4.030163,13.482586c-3.745619,0.101044 -7.391874,-0.813271 -11.150861,-0.383321z" id="path2398" stroke-width="1.011306px" fill-rule="evenodd" fill="#7f0000"/>
     <path stroke="#000000" d="m274.467205,70.845124l-14.12519,-0.432513c-3.391818,0.011027 -6.783624,0.022043 -10.17543,0.03306c-10.175392,0.033016 -20.350783,0.066108 -30.5262,0.099157c-10.53587,0.034216 -19.470451,-1.570185 -30.536811,-1.534235c-13.027003,0.04232 -21.843132,1.860468 -33.160404,-0.370669c-10.45608,-2.061356 -0.531269,0.946895 -11.011417,-1.119195c-11.754157,-2.317293 -4.14965,-12.259261 -4.218319,-22.853652c-0.056551,-8.727073 3.975131,-14.668926 3.921925,-22.880123c-0.072065,-11.118273 -4.50114,-11.131143 1.929259,-16.3401c3.185264,-2.580232 6.570838,-1.654715 11.589355,-1.67101c10.931576,-0.035514 20.389918,1.567131 30.536785,1.53418c10.310609,-0.033496 19.041253,1.472456 29.816684,1.437444c10.175392,-0.033049 21.070284,-0.068432 31.245676,-0.101491c10.794162,-0.035067 16.3643,0.083069 26.222856,2.026606c7.061401,1.392125 3.195031,23.297966 2.44887,25.746842c-2.172408,7.129686 0.110932,17.115141 0.158788,24.500263c0.033313,5.139107 3.300039,10.585774 -4.116427,11.925436z" id="path2400" stroke-width="1px" fill-rule="evenodd" fill="#7f0000"/>
     <path stroke="#000000" d="m327.330637,6.014671c-7.4407,0.601639 -26.141266,-1.07008 -36.885836,-1.035177c-11.128338,0.036146 -16.707976,-1.579096 -28.501714,-1.54079c-11.288096,0.036659 -19.147422,0.062193 -28.491117,0.092547c-6.797286,0.022076 -15.429153,3.854341 -26.46538,-1.34926c-0.939246,-0.442864 -0.166896,-25.752427 -0.181235,-27.965087c-0.06005,-9.267054 0.910568,-16.334941 3.932587,-21.246743c25.604073,-3.922031 58.934909,-1.395081 85.483948,1.355684c8.618767,1.699151 22.526255,-2.037197 29.213746,0.38354c6.985353,2.528521 3.756957,24.585786 3.771296,26.798424c0.065311,10.08014 3.565916,22.786812 -1.876295,24.506861z" id="path2402" stroke-width="1px" fill-rule="evenodd" fill="#7f0000"/>
     <path stroke="#000000" d="m201.593091,2.677416c-15.949633,0.317311 -31.906621,-0.197452 -47.831176,-0.491335c-9.939265,0.59696 -19.51726,-1.862278 -29.35914,-2.170809c-10.165394,-2.656353 -6.707601,-14.082121 -8.107532,-20.732088c-1.093476,-7.334468 -1.198138,-14.938071 0.693734,-22.150979c-0.315865,-6.976386 9.295659,-4.403626 15.808172,-3.969608c19.66236,-1.837345 39.611436,-2.667696 59.123333,-0.586685c7.550394,-1.891499 16.496901,1.827943 12.709669,8.947944c-1.45057,9.095408 -2.378299,18.230595 -1.597152,27.403237c-0.018284,4.572142 0.200426,9.335464 -1.439909,13.750325z" id="path2404" stroke-width="1px" fill-rule="evenodd" fill="#7f0000"/>
     <path stroke="#000000" d="m137.709202,137.439637c0.043157,16.479995 -0.0999,32.976766 1.68814,49.407112c-2.120568,7.749901 5.611176,20.872954 -5.216836,24.776138c-35.568785,-0.419239 -92.58557,0.149188 -128.185126,0.192162c-9.019632,3.169895 -21.124231,0.519694 -24.823819,-7.262808c-4.410663,-10.861998 0.699595,-25.338762 1.339983,-36.279772c1.278043,-11.959434 -0.645406,-20.886348 3.707633,-32.553022c5.551215,-4.280964 14.34694,-0.906494 21.32043,-1.693272c33.764899,0.792307 88.91508,-0.290709 122.68607,0.082415c2.842061,0.561305 4.808833,2.482569 7.483526,3.331048z" id="path2406" stroke-width="1px" fill-rule="evenodd" fill="#7f0000"/>
     <path stroke="#000000" d="m80.513532,70.165346c-14.544876,0.860303 -71.70007,-0.57977 -86.241026,-0.256395c-5.44225,5.035445 -6.188437,15.296241 -5.839092,23.053885c-0.107766,9.735997 -0.772235,19.442065 -0.845423,29.179938c2.313448,6.95227 9.120911,10.773159 14.983893,9.042018c4.369867,0.346673 51.554144,1.626673 55.87973,0.334337c8.234641,0.888421 16.627969,1.293797 24.753057,-0.639836c3.198211,-0.754329 3.295953,-5.421177 2.750256,-8.546636c0.059577,-4.081712 1.195265,-8.128815 0.677659,-12.276516c-1.507479,-10.13232 0.625232,-20.474068 -0.804998,-30.599756c-0.750643,-2.828315 -2.578214,-9.442965 -5.314054,-9.291039z" id="path2408" stroke-width="0.719267px" fill-rule="evenodd" fill="#7f0000"/>
     <path stroke="#000000" d="m133.243022,67.006107c-18.792166,-1.635475 -36.419137,1.193287 -55.08464,-0.554084c-14.291461,0.40771 -89.655202,7.384609 -86.932181,-7.788905c-1.586299,-13.099025 5.408783,-26.340127 3.661334,-39.603599c-2.19691,-15.851197 6.316108,-21.321882 22.514636,-17.251983c32.841372,-1.412652 94.8072,-1.800348 120.125923,3.525294c8.569966,8.893909 -0.718301,22.438034 -1.448349,32.594317c-2.23731,10.306071 1.509343,19.172822 -2.836724,29.078959z" id="path2410" stroke-width="0.98083px" fill-rule="evenodd" fill="#7f0000"/>
     <path stroke="#000000" d="m110.926986,-1.054459c-23.184915,0.058386 -87.674653,-0.83346 -110.85981,-0.823436c-5.975906,-4.517868 -1.139276,-11.238165 -2.546165,-16.726388c0.101969,-10.191491 2.506494,-15.773484 2.877404,-25.963917c7.421854,-3.885765 55.793518,-2.673172 64.014088,-4.030448c15.016618,0.240001 30.039787,-0.348626 45.05283,0.089461c8.135597,3.129287 1.262836,11.943673 2.614004,17.131306c0.003333,10.106568 1.183404,20.295594 -1.152351,30.323423z" id="path2412" stroke-width="0.945982px" fill-rule="evenodd" fill="#7f0000"/>
    </g>
   </g>
  </g>
 </g>
</svg>