<?xml version="1.0" standalone="no"?>
<!DOCTYPE svg PUBLIC "-//W3C//DTD SVG 20010904//EN"
 "http://www.w3.org/TR/2001/REC-SVG-20010904/DTD/svg10.dtd">
<svg version="1.0" xmlns="http://www.w3.org/2000/svg"
 width="806.400000pt" height="479.360000pt" viewBox="0 0 806.400000 479.360000"
 preserveAspectRatio="xMidYMid meet">
<metadata>
Created by potrace 1.10, written by Peter Selinger 2001-2011
</metadata>
<g transform="translate(0.000000,479.360000) scale(0.008960,-0.008960)"
fill="#000000" stroke="none">
<path d="M15410 47664 c-1624 325 -1946 216 -2750 -929 -500 -714 -1416 -1935
-2035 -2713 -619 -779 -1125 -1665 -1125 -1969 0 -304 -225 -553 -500 -553
-281 0 -500 -1403 -500 -3208 0 -1765 -211 -3284 -469 -3375 -258 -92 -625
-1348 -815 -2792 -293 -2234 -223 -2625 470 -2625 448 0 814 -136 814 -302 0
-167 -580 -1458 -1290 -2870 -709 -1413 -1440 -2683 -1625 -2823 -184 -140
-616 -758 -960 -1373 -344 -615 -625 -1902 -625 -2860 0 -958 461 -2563 1025
-3567 1016 -1809 1017 -1832 46 -2511 -676 -474 -1173 -1775 -1607 -4202
l-629 -3517 1610 -1573 c885 -866 2134 -1846 2774 -2178 698 -362 1439 -431
1848 -172 376 238 2033 416 3683 396 1650 -20 4442 -230 6204 -466 2697 -361
3511 -281 5141 507 1627 786 2129 836 3138 312 821 -426 3398 -592 8142 -524
4813 68 7271 306 8022 775 920 575 1290 561 2468 -89 1042 -575 2871 -753
7385 -718 4072 31 6330 259 7028 710 886 572 1319 516 3132 -409 1708 -871
2305 -966 3171 -503 668 358 3051 513 6368 414 2916 -86 6882 -112 8815 -57
l3514 100 916 3084 c560 1886 812 3855 649 5072 -147 1093 -565 2198 -930
2454 -520 365 -528 521 -38 720 409 166 625 1367 625 3479 0 2198 -275 3659
-863 4584 -475 746 -1150 1537 -1500 1757 -350 220 -637 834 -637 1365 0 618
-459 1081 -1273 1285 -1166 293 -1208 392 -500 1174 617 683 773 2219 773
7629 0 5412 -151 6900 -750 7397 -413 342 -750 1235 -750 1984 0 748 -454
1772 -1008 2273 -725 657 -1743 899 -3625 865 -1439 -27 -4914 -119 -7722
-205 -3577 -109 -5291 29 -5725 463 -352 352 -1887 620 -3553 620 -1613 0
-3334 -215 -3824 -477 -575 -308 -2073 -282 -4221 74 -2833 470 -3607 429
-5200 -275 -1697 -750 -2129 -758 -4622 -81 -1512 411 -3537 743 -4500 737
-962 -5 -2180 -335 -2706 -733 -591 -447 -1450 -603 -2250 -407 -712 174
-1429 521 -1594 773 -169 256 -2695 343 -5750 198 -2998 -142 -5900 -316
-6450 -386 -550 -70 -1828 38 -2840 241z m12654 -245 c722 45 1582 -243 1911
-639 329 -396 1088 -790 1686 -875 888 -126 1117 -537 1240 -2229 149 -2037
113 -2088 -2083 -2927 -1229 -469 -3435 -852 -4901 -850 -1467 2 -3157 25
-3756 52 -599 27 -1410 370 -1802 762 -392 392 -859 1778 -1038 3081 -178
1303 -193 2501 -33 2663 161 161 1905 425 3877 587 1972 162 4176 331 4899
375z m-12620 -720 c993 -176 1949 -462 2123 -635 174 -173 793 -1679 1375
-3347 582 -1669 1058 -3680 1058 -4471 0 -1224 93 -1324 625 -674 344 420
1603 1042 2799 1381 1195 339 2299 490 2453 336 154 -153 442 -1347 640 -2653
198 -1305 259 -2637 136 -2959 -124 -322 -827 -816 -1564 -1098 -736 -281
-1829 -650 -2429 -818 -905 -254 -1125 -70 -1300 1092 -200 1328 -214 1317
-285 -228 -54 -1167 -315 -1625 -925 -1625 -582 0 -688 -162 -336 -514 352
-352 1211 -198 2725 489 1216 552 2577 1008 3025 1014 447 6 1050 -274 1338
-621 289 -348 598 -1517 687 -2598 137 -1673 -24 -2060 -1089 -2610 l-1250
-645 1632 -8 c897 -4 2126 -288 2730 -632 605 -344 1352 -853 1661 -1131 309
-279 718 -1486 909 -2683 304 -1897 154 -2479 -1168 -4539 -834 -1299 -2088
-2623 -2788 -2942 -700 -319 -1769 -572 -2375 -562 -605 9 -1663 339 -2351
732 -687 393 -1930 723 -2761 732 -871 11 -2032 508 -2745 1177 l-1235 1158
-1360 -1877 c-1079 -1489 -1752 -1918 -3254 -2075 l-1895 -197 2250 -134
c1923 -114 2068 -192 1000 -534 l-1250 -400 1428 -50 c1065 -37 1357 138 1146
687 -155 405 28 911 407 1125 379 213 2396 314 4482 223 l3793 -164 1551
-2253 c852 -1239 1647 -3078 1767 -4086 119 -1007 39 -2068 -178 -2356 -218
-288 -1073 -997 -1901 -1574 -1406 -980 -2034 -1038 -9486 -874 -7116 157
-8018 274 -8334 1074 -195 494 -371 607 -390 250 -21 -386 -540 -143 -1285
603 -972 971 -1250 1763 -1250 3555 0 1268 242 2758 538 3312 317 591 842 889
1276 723 406 -156 609 -76 452 178 -157 254 432 533 1308 620 1503 148 1541
200 664 907 -728 587 -838 597 -507 48 289 -479 238 -588 -157 -343 -320 197
-1030 1287 -1578 2421 -548 1134 -996 2720 -996 3525 0 804 495 2344 1100
3421 607 1079 1377 1852 1716 1722 405 -155 601 258 574 1208 -22 794 343
2028 811 2743 796 1215 1069 1290 4200 1152 l3349 -147 274 -6000 c151 -3300
320 -5347 375 -4548 69 990 776 2075 2226 3415 1888 1744 2362 1944 4250 1794
1169 -92 2125 2 2125 210 0 209 -1022 379 -2271 379 -1249 0 -2543 -229 -2875
-509 -332 -280 -1145 -955 -1806 -1500 -660 -545 -1279 -991 -1375 -991 -95 0
-173 105 -173 233 0 128 698 1028 1552 2000 853 972 1922 1770 2375 1775 710
6 721 72 76 479 -473 300 -694 1075 -603 2118 109 1253 21 1466 -371 895 -282
-412 -517 -1243 -521 -1845 -5 -603 -267 -1256 -584 -1452 -317 -196 -879 59
-1250 566 -371 507 -674 1361 -674 1896 0 536 356 1235 790 1553 611 446 -522
548 -5000 446 -5192 -119 -5790 -44 -5788 727 1 472 448 1590 993 2484 544
894 1067 1625 1161 1625 94 0 72 -675 -49 -1500 -121 -825 -396 -1500 -610
-1500 -215 0 -539 -388 -721 -863 -241 -628 18 -535 946 337 703 660 1278
1724 1278 2363 0 860 294 1175 1125 1207 619 25 2335 149 3814 277 1480 127
3336 7 4125 -269 790 -275 1436 -390 1436 -255 0 135 -275 539 -610 898 -336
360 -1011 549 -1500 421 -490 -128 -890 -5 -890 272 0 278 370 647 822 820
451 174 689 447 528 608 -161 161 -959 -181 -1773 -761 -1148 -818 -2226
-1055 -4792 -1055 l-3310 0 91 2792 c60 1854 395 3155 996 3875 840 1006 906
1016 921 138 10 -520 -377 -1244 -858 -1609 -481 -365 -621 -671 -311 -680
310 -9 785 265 1055 609 271 344 625 1489 787 2545 163 1055 563 2241 889
2634 418 504 1127 621 2399 395z m21896 210 c1325 50 3535 -203 4910 -564
2385 -625 2507 -740 2656 -2514 153 -1819 96 -1885 -2639 -3095 -1538 -680
-3056 -1236 -3374 -1236 -318 0 -1099 489 -1736 1087 -636 598 -1157 877
-1157 620 0 -256 445 -744 989 -1084 791 -494 897 -857 531 -1820 -429 -1128
-352 -1199 1241 -1154 1363 39 1588 181 1140 721 -329 395 -372 829 -105 1052
250 209 1643 917 3096 1573 2614 1179 2653 1182 3605 224 950 -956 950 -997
-9 -3130 -798 -1776 -1151 -2105 -1980 -1842 -554 176 -1008 134 -1008 -95 0
-228 506 -637 1125 -908 936 -411 1151 -953 1280 -3217 85 -1498 22 -3252
-140 -3897 -162 -645 -794 -1395 -1405 -1666 -1070 -475 -1072 -485 -43 -290
626 118 1399 -186 1870 -736 759 -886 723 -938 -651 -938 -800 0 -1809 136
-2242 302 -434 167 -644 560 -468 875 194 346 54 326 -353 -52 -370 -344
-1247 -651 -1948 -683 -701 -32 -918 -154 -483 -271 436 -117 1150 -963 1588
-1880 790 -1656 784 -1679 -887 -3298 -1408 -1364 -1936 -1579 -3237 -1319
-968 193 -1441 125 -1251 -182 167 -270 864 -492 1549 -492 685 0 1917 -347
2736 -771 820 -424 2159 -1470 2976 -2324 1362 -1426 1483 -1844 1476 -5104
-4 -1953 -173 -3787 -375 -4075 -202 -288 -1067 -1013 -1923 -1610 -1304 -910
-1830 -1007 -3247 -601 -930 267 -2836 485 -4235 485 -1400 0 -2702 -157
-2893 -348 -191 -191 -735 -409 -1208 -483 -474 -75 -1255 -16 -1736 131 -481
147 -875 702 -875 1234 0 531 -225 966 -500 966 -275 0 -500 -351 -500 -780 0
-428 -205 -652 -456 -497 -267 165 -227 887 98 1748 305 807 738 1353 964
1213 226 -139 259 -497 75 -796 -196 -316 -104 -399 220 -199 305 189 429 673
274 1077 -155 404 -483 734 -728 734 -246 0 -447 443 -447 985 0 541 450 1786
1000 2765 550 979 1000 2014 1000 2299 0 285 617 1346 1372 2359 755 1013
1599 2007 1875 2209 277 202 1066 380 1753 395 l1250 28 -1375 746 c-756 410
-1375 919 -1375 1130 0 211 281 687 625 1057 366 395 390 542 57 356 -325
-182 -696 161 -867 802 -197 735 -12 1334 538 1744 461 344 1167 625 1570 625
584 0 549 -203 -176 -1003 -499 -552 -789 -1121 -645 -1266 144 -144 625 291
1068 967 443 676 1317 1346 1943 1488 625 143 -366 154 -2202 26 -2968 -207
-3421 -116 -4072 813 -525 750 -800 859 -973 385 -160 -438 -405 -492 -727
-160 -267 275 -781 2130 -1142 4123 l-657 3623 1455 1252 c800 688 1715 1251
2033 1251 331 1 486 -481 362 -1124 l-216 -1125 589 1125 c325 619 1062 1141
1638 1160 577 19 1499 246 2049 503 670 314 11 360 -2000 141 -1650 -180
-3389 -309 -3864 -285 -476 23 -813 -197 -750 -488 63 -292 -203 -646 -591
-787 -495 -179 -608 -4 -380 589 191 499 121 719 -171 538 -272 -168 -494 149
-494 703 0 661 733 1433 2125 2237 1169 675 3081 1507 4249 1849 2009 589
2070 660 1125 1322 -550 385 -999 1087 -999 1560 0 473 322 1320 715 1881 531
758 1333 1043 3125 1111z m17916 -49 c5039 -61 9313 -262 9498 -447 186 -186
188 -808 6 -1383 -183 -574 -524 -926 -759 -781 -234 145 -1014 -4 -1733 -332
-719 -327 -1206 -857 -1084 -1176 123 -320 32 -892 -203 -1272 -235 -379 -601
-516 -814 -302 -214 213 -57 597 347 853 405 255 564 468 354 472 -210 5 -772
-207 -1250 -469 -477 -262 -2395 -837 -4261 -1278 -2247 -530 -4190 -682
-5750 -450 -1392 207 -2715 762 -3232 1355 -481 551 -875 1625 -875 2386 0
760 134 1731 298 2158 256 667 1575 760 9458 666z m21097 -109 c607 -142 1675
-477 2375 -743 873 -332 1272 -858 1272 -1678 0 -657 450 -1767 1000 -2466
698 -888 1000 -2029 1000 -3779 0 -2426 -57 -2526 -1763 -3089 -1173 -387
-3806 -484 -7861 -289 -5721 274 -6172 372 -7288 1576 -889 959 -1140 1707
-993 2965 108 925 18 1572 -199 1437 -218 -134 -396 -991 -396 -1903 0 -913
338 -1940 750 -2282 412 -342 750 -820 750 -1061 0 -242 -303 -439 -673 -439
-369 0 -1063 432 -1541 960 -554 612 -869 1775 -869 3204 0 1333 371 2811 915
3642 l916 1397 276 -1476 277 -1477 371 1869 c204 1028 769 2082 1255 2342
486 260 2285 383 3997 274 2234 -143 3014 -39 2762 368 -223 361 -77 462 402
278 414 -159 1070 -82 1457 170 388 253 1201 342 1808 200z m-17519 -5806
c321 30 940 -82 1375 -248 524 -201 791 -928 791 -2150 0 -1016 281 -2134 625
-2484 502 -512 330 -876 -875 -1848 -872 -703 -1197 -1211 -775 -1213 564 -1
592 -135 125 -602 -330 -330 -600 -810 -600 -1068 0 -257 619 223 1375 1067
1120 1249 1886 1588 4125 1824 1513 159 4325 118 6250 -92 3337 -363 3507
-445 3658 -1756 87 -756 361 -1375 610 -1375 248 0 320 340 160 756 -159 416
-12 1091 327 1500 407 490 1537 744 3312 744 l2695 0 -161 -2625 c-89 -1444
-437 -3131 -774 -3750 -379 -697 -1081 -1125 -1845 -1125 -864 0 -1232 275
-1232 923 0 507 -450 1329 -1000 1827 -550 498 -1000 673 -1000 389 0 -284
338 -797 750 -1139 413 -342 750 -1029 750 -1526 0 -496 -354 -1256 -786
-1688 -432 -432 -1550 -786 -2484 -786 -1250 0 -1628 -185 -1430 -699 147
-385 24 -851 -274 -1035 -298 -184 -422 -529 -276 -766 146 -237 38 -572 -242
-745 -279 -173 -508 -71 -508 227 0 323 -476 229 -1180 -232 -648 -425 -1497
-651 -1885 -502 -389 149 -999 739 -1355 1310 -357 572 -538 1151 -402 1287
136 136 1108 554 2160 929 1117 399 1496 690 912 701 -550 10 -1644 -317
-2432 -728 -796 -415 -2736 -747 -4366 -747 -2637 0 -2957 113 -3173 1125
-132 619 -342 1575 -466 2125 -124 550 -189 -69 -144 -1375 68 -1999 239
-2380 1081 -2414 550 -22 719 -153 375 -292 -344 -139 -625 -493 -625 -788 0
-295 411 -164 914 292 503 455 1519 827 2257 827 738 0 1843 -281 2455 -625
611 -344 1401 -1008 1754 -1475 353 -468 975 -1183 1381 -1590 407 -406 739
-1292 739 -1969 0 -1003 -314 -1289 -1699 -1548 -935 -176 -2229 -728 -2875
-1227 -647 -499 -1682 -1034 -2301 -1190 -618 -155 -1249 -79 -1402 168 -153
248 -772 706 -1376 1018 -892 461 -820 273 381 -1007 1034 -1102 1571 -2286
1786 -3940 292 -2243 327 -2287 677 -865 203 825 581 1891 839 2368 259 478
470 1209 470 1625 0 587 704 775 3125 838 l3125 82 -2750 313 -2750 313 1951
425 c1105 241 2499 233 3216 -19 695 -245 1167 -663 1049 -929 -123 -276 2039
-738 5034 -1075 2888 -325 5925 -744 6750 -931 1180 -268 1340 -220 750 226
-631 478 -592 539 250 386 550 -100 944 -449 875 -777 -69 -327 197 -595 591
-595 394 0 861 -454 1036 -1008 176 -554 62 -1848 -254 -2875 -316 -1027 -706
-2204 -868 -2617 -161 -412 -314 -975 -339 -1250 -25 -275 -1394 -550 -3043
-611 -1649 -61 -3785 -131 -4748 -154 -962 -23 -3271 110 -5130 295 -2286 228
-3870 134 -4894 -290 -1299 -538 -1757 -496 -3221 292 -1364 735 -1743 1275
-1889 2694 l-182 1774 -402 -1614 c-222 -887 -707 -1866 -1078 -2174 -372
-309 -1526 -760 -2565 -1004 -1174 -276 -2873 -245 -4490 80 -1876 377 -2893
366 -3650 -39 -837 -447 -1373 -373 -2641 368 l-1591 929 146 3977 c110 3004
389 4316 1139 5363 547 762 858 1606 691 1875 -166 269 -626 489 -1023 489
-396 0 -664 -268 -595 -595 69 -328 -248 -678 -704 -778 -456 -101 -1069 111
-1361 470 -292 359 -1118 1323 -1834 2142 l-1303 1490 1114 901 c701 568 1131
1494 1163 2504 36 1143 318 1654 984 1782 590 114 807 -26 589 -378 -189 -307
-448 -1610 -574 -2896 -125 -1286 -62 -2172 141 -1969 203 203 490 1428 639
2723 l271 2354 3500 154 c1925 85 4198 24 5051 -134 1014 -188 1990 -903 2815
-2063 1118 -1572 1209 -2013 795 -3866 -258 -1150 -624 -2248 -815 -2440 -190
-192 -2065 -404 -4165 -471 -3554 -113 -3780 -185 -3252 -1031 312 -500 643
-682 736 -404 93 278 881 515 1752 527 871 12 2933 326 4583 699 1650 372
2695 700 2323 728 -514 39 -611 681 -404 2676 150 1444 403 3300 562 4125 268
1394 247 1420 -298 375 -322 -619 -720 -1118 -884 -1109 -165 8 -705 573
-1201 1254 -496 682 -755 1477 -575 1767 211 341 704 207 1393 -379 835 -711
927 -727 426 -78 -446 579 -477 932 -101 1165 318 196 492 1655 422 3539 -99
2681 42 3327 859 3945 538 407 785 746 550 755 -235 9 -1062 -518 -1838 -1171
-784 -660 -1223 -1381 -987 -1625 232 -241 497 -1445 588 -2676 162 -2194 127
-2251 -1723 -2867 -1310 -435 -2808 -502 -4895 -216 -1654 226 -3225 629
-3491 895 -268 268 -343 1506 -168 2786 304 2218 395 2322 2468 2844 1184 298
2543 392 3020 209 591 -227 753 -146 507 252 -199 322 -659 585 -1022 585
-362 0 -1030 506 -1484 1125 -782 1065 -799 1067 -321 50 385 -818 334 -1141
-212 -1350 -418 -161 -1247 354 -1990 1238 -701 833 -1274 1687 -1274 1899 0
211 341 1069 759 1905 417 837 1251 1650 1853 1807 602 158 1192 188 1312 68
120 -120 -66 -561 -414 -980 -348 -419 -418 -762 -156 -762 262 0 757 523
1099 1161 482 901 1425 1337 4209 1945 1973 431 3851 809 4172 839z m-10126
-984 c527 21 823 -97 657 -263 -167 -166 -598 -184 -959 -40 -399 160 -280
279 302 303z m-21149 -461 c275 0 361 -225 191 -500 -170 -275 -534 -500 -809
-500 -275 0 -361 225 -191 500 170 275 534 500 809 500z m54051 -14065 c197
36 1154 -1177 2125 -2695 1545 -2416 1765 -3155 1765 -5935 l0 -3176 -3022
-342 c-1662 -188 -4059 -186 -5326 4 -1493 224 -2805 824 -3728 1706 -1160
1109 -1424 1786 -1424 3653 0 1260 229 2432 508 2605 280 173 357 558 173 857
-200 324 -103 399 242 186 317 -196 577 -127 577 155 0 281 503 781 1117 1109
614 329 2358 870 3875 1203 1517 333 2920 634 3118 670z m-63080 -435 c258 0
470 -187 470 -417 0 -229 -144 -560 -320 -736 -176 -176 -517 -198 -758 -49
-241 149 -309 481 -151 737 159 256 500 465 759 465z m52570 -4000 c220 0 400
-1056 400 -2348 0 -1866 275 -2635 1344 -3750 888 -927 1100 -1401 625 -1400
-396 2 -1315 508 -2043 1125 -913 775 -1400 1767 -1571 3202 -140 1177 -11
2315 299 2625 300 300 726 546 946 546z m-53793 -5547 c394 -328 609 -704 477
-836 -133 -132 -602 -102 -1044 68 -442 169 -657 545 -477 836 224 362 551
341 1044 -68z m46099 -2693 c102 -102 -29 -568 -291 -1037 -357 -637 -573
-695 -860 -231 -217 352 -91 800 291 1037 371 229 758 333 860 231z m-36406
-260 c825 0 1500 -127 1500 -283 0 -155 -255 -774 -568 -1375 -312 -601 -652
-1188 -755 -1305 -103 -118 -515 220 -916 750 -401 529 -736 1244 -745 1588
-9 365 609 625 1484 625z"/>
<path d="M24208 25961 c-582 -24 -701 -143 -302 -303 361 -144 792 -126 959
40 166 166 -130 284 -657 263z"/>
<path d="M27208 24461 c-582 -24 -701 -143 -302 -303 361 -144 792 -126 959
40 166 166 -130 284 -657 263z"/>
<path d="M8000 23500 c-275 0 -500 -238 -500 -530 0 -291 225 -390 500 -220
275 170 500 408 500 530 0 121 -225 220 -500 220z"/>
<path d="M7397 21770 c-102 102 -458 -252 -791 -786 -333 -534 -606 -1536
-606 -2227 0 -691 204 -1257 453 -1257 249 0 342 427 205 949 -136 522 16
1441 338 2043 322 601 502 1177 401 1278z"/>
<path d="M7000 16000 c-267 413 -485 525 -485 250 0 -275 218 -837 485 -1250
267 -412 485 -525 485 -250 0 275 -218 838 -485 1250z"/>
<path d="M8857 11373 c-1195 -23 -1718 -212 -1419 -511 299 -299 998 -286
1893 37 1402 505 1396 510 -474 474z"/>
<path d="M7358 8483 l-190 1767 -91 -1750 c-50 -962 -206 -2312 -348 -3000
l-257 -1250 538 1233 c295 678 452 2028 348 3000z"/>
<path d="M34831 44125 c-139 344 -252 63 -252 -625 0 -687 113 -969 252 -625
139 344 139 906 0 1250z"/>
<path d="M41691 37000 c-413 0 -611 -225 -441 -500 170 -275 647 -500 1059
-500 413 0 611 225 441 500 -170 275 -647 500 -1059 500z"/>
<path d="M30879 33288 c-117 116 -362 62 -546 -121 -183 -184 -326 -690 -318
-1125 13 -650 110 -629 546 121 292 501 435 1008 318 1125z"/>
<path d="M30302 28865 c-166 166 -284 -130 -263 -657 24 -582 143 -701 303
-302 144 361 126 792 -40 959z"/>
<path d="M48925 36242 c-142 142 -408 108 -592 -75 -183 -184 -333 -566 -333
-850 0 -314 233 -284 592 75 325 325 475 708 333 850z"/>
<path d="M47750 34500 c-412 0 -750 -218 -750 -484 0 -267 338 -355 750 -197
413 158 750 376 750 484 0 109 -337 197 -750 197z"/>
<path d="M53708 30961 c-582 -24 -701 -143 -302 -303 361 -144 792 -126 959
40 166 166 -130 284 -657 263z"/>
<path d="M59831 19125 c-139 344 -252 63 -252 -625 0 -687 113 -969 252 -625
139 344 139 906 0 1250z"/>
<path d="M60403 16763 c-154 154 -433 -123 -621 -616 -271 -713 -214 -770 280
-280 342 339 495 742 341 896z"/>
<path d="M44208 15961 c-582 -24 -701 -143 -302 -303 361 -144 792 -126 959
40 166 166 -130 284 -657 263z"/>
<path d="M47653 10481 c-221 -10 -684 -338 -1028 -729 -344 -390 -622 -1113
-617 -1606 4 -493 247 -1233 540 -1646 416 -586 472 -469 256 533 -163 757 37
1731 488 2375 421 601 583 1083 361 1073z"/>
<path d="M47095 4500 c-137 0 157 -450 655 -1000 498 -550 1017 -1000 1155
-1000 137 0 -157 450 -655 1000 -498 550 -1017 1000 -1155 1000z"/>
</g>
</svg>
