<?xml version="1.0" standalone="no"?>
<!DOCTYPE svg PUBLIC "-//W3C//DTD SVG 20010904//EN"
 "http://www.w3.org/TR/2001/REC-SVG-20010904/DTD/svg10.dtd">
<svg version="1.0" xmlns="http://www.w3.org/2000/svg"
 width="423.000000pt" height="451.000000pt" viewBox="0 0 423.000000 451.000000"
 preserveAspectRatio="xMidYMid meet">
<metadata>
Image by Paul Sherman
Published by wpclipart.com
License is Public Domain
Created by potrace 1.12, written by Peter Selinger 2001-2015
</metadata>
<g transform="translate(0.000000,451.000000) scale(0.100000,-0.100000)"
fill="#000000" stroke="none">
<path d="M2373 4348 c-54 -57 -107 -137 -193 -293 -137 -248 -376 -756 -550
-1165 -46 -107 -88 -200 -94 -206 -6 -6 -102 -59 -213 -118 -212 -111 -361
-196 -519 -296 l-96 -60 -66 41 c-89 53 -159 74 -257 73 -99 0 -166 -27 -224
-89 -100 -108 -74 -287 60 -416 71 -68 190 -132 279 -150 46 -9 63 -17 76 -38
27 -42 153 -168 229 -231 156 -128 411 -272 595 -336 l81 -29 372 -374 c368
-370 372 -375 342 -382 -40 -11 -202 -29 -272 -30 l-58 -1 74 -24 c41 -14 131
-36 200 -51 111 -23 149 -27 321 -27 163 0 213 3 307 22 289 58 524 179 730
375 232 222 400 608 449 1031 32 275 9 600 -63 881 l-28 110 22 195 c37 333
54 565 60 825 8 348 -14 525 -65 533 -112 17 -383 -338 -767 -1008 -64 -113
-119 -207 -121 -209 -3 -3 -365 26 -426 35 l-38 6 0 386 c0 525 -22 854 -66
988 -26 78 -34 81 -81 32z m753 -2004 c9 -36 -12 -147 -37 -197 -27 -52 -93
-115 -158 -151 -62 -33 -145 -44 -209 -26 -81 21 -163 123 -174 214 l-3 28
275 78 c151 43 281 79 287 79 7 1 16 -11 19 -25z m174 -946 c-61 -364 -242
-657 -557 -905 -22 -18 -45 -33 -49 -33 -5 0 -43 151 -85 336 l-76 336 46 28
45 28 96 -87 c213 -197 294 -270 298 -267 2 2 -26 117 -62 254 -36 138 -66
257 -66 264 0 7 44 50 98 94 53 45 149 131 212 190 l115 109 3 -114 c2 -80 -3
-149 -18 -233z m-907 -680 c153 -143 277 -265 277 -269 0 -24 -337 -158 -397
-159 -18 0 -25 9 -34 43 -6 23 -46 174 -90 335 -43 161 -79 294 -79 297 0 3
19 9 41 14 3 0 130 -117 282 -261z"/>
</g>
</svg>
