<?xml version="1.0" encoding="UTF-8" standalone="no"?>
<svg
   xmlns:dc="http://purl.org/dc/elements/1.1/"
   xmlns:cc="http://creativecommons.org/ns#"
   xmlns:rdf="http://www.w3.org/1999/02/22-rdf-syntax-ns#"
   xmlns:svg="http://www.w3.org/2000/svg"
   xmlns="http://www.w3.org/2000/svg"
   version="1.1"
   id="svg2"
   preserveAspectRatio="xMidYMid meet"
   height="451"
   width="423">
  <defs
     id="defs25" />
  <metadata
     id="metadata4">Image by Paul Sherman
Published by wpclipart.com
License is Public Domain
Created by potrace 1.12, written by Peter Selinger 2001-2015<rdf:RDF>
  <cc:Work
     rdf:about="">
    <dc:format>image/svg+xml</dc:format>
    <dc:type
       rdf:resource="http://purl.org/dc/dcmitype/StillImage" />
    <dc:title></dc:title>
  </cc:Work>
</rdf:RDF>
</metadata>
  <g
     id="g11">
    <title
       id="title13">Layer 1</title>
    <g
       fill="#000000"
       transform="translate(0,451) scale(0.10000000149011612,-0.10000000149011612) "
       id="svg_1">
      <path
         style="fill:#ff0000"
         id="path4153"
         d="M 3866.6406,4118.5155 C 3751.5106,4123.8202 3483,3769.5312 3105,3109.9999 c -59.2623,-104.635 -108.9179,-189.695 -117.8125,-203.7891 154.277,-100.1146 268.7366,-250.1419 352.5977,-427.832 122.9841,-260.5866 180.6395,-580.7677 203.0468,-891.9336 29.5426,-410.2511 -2.229,-803.80236 -27.3437,-1025.17576 222.4033,224.517 382.8213,601.07336 430.5078,1012.73436 32,275 9.0117,599.9961 -62.9883,880.9961 l -28.0078,110 21.9922,195 c 37,333 54,565 60,825 8,348 -14,525.0078 -65,533.0078 -1.75,0.2656 -3.5241,0.4236 -5.3516,0.5078 z" />
    </g>
  </g>
</svg>
