<?xml version="1.0" encoding="UTF-8" standalone="no"?>
<svg
   xmlns:dc="http://purl.org/dc/elements/1.1/"
   xmlns:cc="http://creativecommons.org/ns#"
   xmlns:rdf="http://www.w3.org/1999/02/22-rdf-syntax-ns#"
   xmlns:svg="http://www.w3.org/2000/svg"
   xmlns="http://www.w3.org/2000/svg"
   version="1.1"
   id="svg2"
   preserveAspectRatio="xMidYMid meet"
   height="451"
   width="423">
  <defs
     id="defs25" />
  <metadata
     id="metadata4">Image by Paul Sherman
Published by wpclipart.com
License is Public Domain
Created by potrace 1.12, written by Peter Selinger 2001-2015<rdf:RDF>
  <cc:Work
     rdf:about="">
    <dc:format>image/svg+xml</dc:format>
    <dc:type
       rdf:resource="http://purl.org/dc/dcmitype/StillImage" />
    <dc:title></dc:title>
  </cc:Work>
</rdf:RDF>
</metadata>
  <g
     id="g11">
    <title
       id="title13">Layer 1</title>
    <g
       fill="#000000"
       transform="translate(0,451) scale(0.10000000149011612,-0.10000000149011612) "
       id="svg_1">
      <path
         style="fill:#ff0000"
         id="path4149"
         transform="matrix(9.9999999,0,0,-9.9999999,0,4509.9999)"
         d="M 225.91211 324.14062 C 211.47973 324.35925 180.95679 327.50066 146.2832 346.84961 L 148.09961 347.5 L 185.30078 384.90039 C 222.10078 421.90039 222.5 422.39961 219.5 423.09961 C 215.5 424.19961 199.30078 425.99961 192.30078 426.09961 L 186.5 426.19922 L 193.90039 428.59961 C 198.00039 429.99961 207.00039 432.19922 213.90039 433.69922 C 225.00039 435.99922 228.8 436.40039 246 436.40039 C 262.3 436.40039 267.29922 436.09922 276.69922 434.19922 C 302.73357 428.97433 324.37702 418.61633 343.47461 402.28906 L 324.57812 378.8125 L 303.79688 372.22852 C 295.74553 382.75329 285.94123 392.53468 274.30078 401.69922 C 272.10078 403.49922 269.80039 405 269.40039 405 C 268.90039 405 265.10039 389.90039 260.90039 371.40039 L 253.30078 337.80078 L 257.90039 335 L 260.98633 333.08008 L 257.68945 327.96094 L 234.75977 324.41406 L 234.75195 324.41406 C 234.74635 324.41306 231.56116 324.05505 225.91211 324.14062 z M 211.09961 353.09961 C 211.39961 353.09961 224.10078 364.79922 239.30078 379.19922 C 254.60078 393.49922 267 405.69961 267 406.09961 C 267 408.49961 233.30078 421.9 227.30078 422 C 225.50078 422 224.80039 421.09922 223.90039 417.69922 C 223.30039 415.39922 219.30039 400.29922 214.90039 384.19922 C 210.60039 368.09922 207 354.8 207 354.5 C 207 354.2 208.89961 353.59961 211.09961 353.09961 z " />
    </g>
  </g>
</svg>
