<?xml version="1.0" encoding="UTF-8" standalone="no"?>
<svg
   xmlns:dc="http://purl.org/dc/elements/1.1/"
   xmlns:cc="http://creativecommons.org/ns#"
   xmlns:rdf="http://www.w3.org/1999/02/22-rdf-syntax-ns#"
   xmlns:svg="http://www.w3.org/2000/svg"
   xmlns="http://www.w3.org/2000/svg"
   width="423"
   height="451"
   preserveAspectRatio="xMidYMid meet"
   id="svg2"
   version="1.1">
  <defs
     id="defs25" />
  <metadata
     id="metadata4">Image by Paul Sherman
Published by wpclipart.com
License is Public Domain
Created by potrace 1.12, written by Peter Selinger 2001-2015<rdf:RDF>
  <cc:Work
     rdf:about="">
    <dc:format>image/svg+xml</dc:format>
    <dc:type
       rdf:resource="http://purl.org/dc/dcmitype/StillImage" />
    <dc:title></dc:title>
  </cc:Work>
</rdf:RDF>
</metadata>
  <g
     id="g11">
    <title
       id="title13">Layer 1</title>
    <g
       id="svg_1"
       transform="translate(0,451) scale(0.10000000149011612,-0.10000000149011612) "
       fill="#000000">
      <path
         id="svg_2"
         d="m 2373,4348 c -54,-57 -107,-137 -193,-293 -137,-248 -376,-756 -550,-1165 -46,-107 -88,-200 -94,-206 -6,-6 -102,-59 -213,-118 -212,-111 -361,-196 -519,-296 l -96,-60 -66,41 c -89,53 -159,74 -257,73 -99,0 -166,-27 -224,-89 -100,-108 -74,-287 60,-416 71,-68 190,-132 279,-150 46,-9 63,-17 76,-38 27,-42 153,-168 229,-231 156,-128 411,-272 595,-336 l 81,-29 372,-374 c 368,-370 372,-375 342,-382 -40,-11 -202,-29 -272,-30 l -58,-1 74,-24 c 41,-14 131,-36 200,-51 111,-23 149,-27 321,-27 163,0 213,3 307,22 289,58 524,179 730,375 232,222 400,608 449,1031 32,275 9,600 -63,881 l -28,110 22,195 c 37,333 54,565 60,825 8,348 -14,525 -65,533 -112,17 -383,-338 -767,-1008 -64,-113 -119,-207 -121,-209 -3,-3 -365,26 -426,35 l -38,6 0,386 c 0,525 -22,854 -66,988 -26,78 -34,81 -81,32 z m 927,-2950 c -61,-364 -242,-657 -557,-905 -22,-18 -45,-33 -49,-33 -5,0 -43,151 -85,336 l -76,336 46,28 45,28 96,-87 c 213,-197 294,-270 298,-267 2,2 -26,117 -62,254 -36,138 -66,257 -66,264 0,7 44,50 98,94 53,45 149,131 212,190 l 115,109 3,-114 c 2,-80 -3,-149 -18,-233 z M 2393,718 c 153,-143 277,-265 277,-269 0,-24 -337,-158 -397,-159 -18,0 -25,9 -34,43 -6,23 -46,174 -90,335 -43,161 -79,294 -79,297 0,3 19,9 41,14 3,0 130,-117 282,-261 z" />
    </g>
    <ellipse
       ry="31.126684"
       rx="32.816821"
       id="svg_4"
       cy="225.492401"
       cx="285.020953"
       stroke-width="1.5"
       stroke="#000"
       fill="#d30808" />
    <path
       style="color:#000000;font-style:normal;font-variant:normal;font-weight:normal;font-stretch:normal;font-size:medium;line-height:normal;font-family:sans-serif;text-indent:0;text-align:start;text-decoration:none;text-decoration-line:none;text-decoration-style:solid;text-decoration-color:#000000;letter-spacing:normal;word-spacing:normal;text-transform:none;direction:ltr;block-progression:tb;writing-mode:lr-tb;baseline-shift:baseline;text-anchor:start;white-space:normal;clip-rule:nonzero;display:inline;overflow:visible;visibility:visible;opacity:1;isolation:auto;mix-blend-mode:normal;color-interpolation:sRGB;color-interpolation-filters:linearRGB;solid-color:#000000;solid-opacity:1;fill:#000000;fill-opacity:1;fill-rule:nonzero;stroke:none;stroke-width:1.5;stroke-linecap:butt;stroke-linejoin:miter;stroke-miterlimit:4;stroke-dasharray:none;stroke-dashoffset:0;stroke-opacity:1;color-rendering:auto;image-rendering:auto;shape-rendering:auto;text-rendering:auto;enable-background:accumulate"
       d="m 301.21289,191.3418 -46.47851,54.08398 1.13671,0.97852 c -14.21272,-45.61238 7.32755,-58.02556 46.47852,-54.08594 z"
       id="svg_6" />
  </g>
</svg>
