<?xml version="1.0" encoding="UTF-8" standalone="no"?>
<svg xmlns:dc="http://purl.org/dc/elements/1.1/" xmlns:cc="http://creativecommons.org/ns#" xmlns:rdf="http://www.w3.org/1999/02/22-rdf-syntax-ns#" xmlns:svg="http://www.w3.org/2000/svg" xmlns="http://www.w3.org/2000/svg" xmlns:sodipodi="http://sodipodi.sourceforge.net/DTD/sodipodi-0.dtd" xmlns:inkscape="http://www.inkscape.org/namespaces/inkscape" width="228pt" height="198.81114pt" viewBox="0 0 228 198.81114" version="1.1" id="svg2" inkscape:version="0.48.5 r10040" sodipodi:docname="wolf_head_icon.svg">
  <title id="title3004">wolf head icon</title>
  <metadata id="metadata27">
    <rdf:RDF>
      <cc:Work rdf:about="">
        <dc:format>image/svg+xml</dc:format>
        <dc:type rdf:resource="http://purl.org/dc/dcmitype/StillImage"/>
        <dc:title>wolf head icon</dc:title>
        <dc:date>02/09/2015</dc:date>
        <dc:creator>
          <cc:Agent>
            <dc:title>edited by Paul Sherman</dc:title>
          </cc:Agent>
        </dc:creator>
        <dc:rights>
          <cc:Agent>
            <dc:title>pd</dc:title>
          </cc:Agent>
        </dc:rights>
        <dc:publisher>
          <cc:Agent>
            <dc:title>wpclipart</dc:title>
          </cc:Agent>
        </dc:publisher>
        <cc:license rdf:resource="http://creativecommons.org/licenses/publicdomain/"/>
      </cc:Work>
      <cc:License rdf:about="http://creativecommons.org/licenses/publicdomain/">
        <cc:permits rdf:resource="http://creativecommons.org/ns#Reproduction"/>
        <cc:permits rdf:resource="http://creativecommons.org/ns#Distribution"/>
        <cc:permits rdf:resource="http://creativecommons.org/ns#DerivativeWorks"/>
      </cc:License>
    </rdf:RDF>
  </metadata>
  <defs id="defs25"/>
  <sodipodi:namedview pagecolor="#ffffff" bordercolor="#666666" borderopacity="1" objecttolerance="10" gridtolerance="10" guidetolerance="10" inkscape:pageopacity="0" inkscape:pageshadow="2" inkscape:window-width="931" inkscape:window-height="870" id="namedview23" showgrid="false" inkscape:zoom="0.94964495" inkscape:cx="144.60605" inkscape:cy="124.25697" inkscape:window-x="0" inkscape:window-y="0" inkscape:window-maximized="0" inkscape:current-layer="svg2"/>
  <g id="surface1">
    <path style="fill-rule:nonzero;fill:rgb(35.686275%,34.509804%,29.019608%);fill-opacity:1;stroke-width:6.984565;stroke-linecap:butt;stroke-linejoin:miter;stroke:rgb(13.72549%,11.764706%,5.490196%);stroke-opacity:1;stroke-miterlimit:4;" d="M 1030.799584 896.223291 C 1026.294889 909.719378 1026.397736 929.432561 1032.496558 943.733426 C 1025.076153 959.975526 1020.581742 977.179245 1018.429671 991.485251 C 1030.817582 1000.908601 1049.44316 1004.060859 1060.653474 1004.775645 C 1063.219505 1008.791817 1069.300329 1012.807989 1073.869303 1013.651334 C 1078.867664 1014.574385 1083.058676 1014.924065 1087.329394 1014.816075 C 1091.602684 1014.924065 1095.793696 1014.574385 1100.789485 1013.651334 C 1105.361031 1012.807989 1111.439284 1008.791817 1114.007886 1004.775645 C 1125.2182 1004.060859 1143.866918 1000.908601 1156.25483 991.485251 C 1154.380445 974.16583 1149.52607 956.576435 1142.164802 943.756566 C 1148.273909 929.455702 1148.366471 909.729663 1143.861776 896.223291 C 1131.874967 898.444784 1121.315159 906.153161 1116.116248 913.272739 C 1107.785647 908.456932 1098.233739 905.584932 1088.082748 905.584932 C 1087.578798 905.572076 1087.085133 905.584932 1086.578612 905.584932 C 1076.427621 905.584932 1066.898853 908.459503 1058.568253 913.272739 C 1053.371912 906.153161 1042.788964 898.444784 1030.799584 896.223291 Z " transform="matrix(1.519248,0,0,1.519248,-1537.942756,-1352.280934)" id="path5"/>
    <path style=" stroke:none;fill-rule:nonzero;fill:rgb(92.54902%,90.588235%,85.490196%);fill-opacity:1;" d="M 40.21875 124.628906 C 29.648438 124.550781 20.851562 135.070312 15.089844 151.601562 C 15.089844 151.613281 15.089844 151.625 15.089844 151.636719 C 16.167969 152.316406 17.25 152.960938 18.332031 153.589844 C 19.277344 154.136719 20.222656 154.664062 21.167969 155.171875 C 21.402344 155.296875 21.636719 155.417969 21.871094 155.542969 C 22.363281 155.800781 22.851562 156.066406 23.34375 156.316406 C 24.015625 156.652344 24.6875 156.988281 25.371094 157.308594 C 25.542969 157.394531 25.714844 157.488281 25.886719 157.566406 C 41.019531 164.738281 56.722656 167.570312 74.484375 168.953125 C 75.144531 169.011719 75.808594 169.082031 76.472656 169.136719 C 80.984375 176.425781 86.789062 180.089844 93.128906 181.996094 C 93.203125 182.023438 93.273438 182.042969 93.347656 182.070312 C 93.738281 182.183594 94.132812 182.300781 94.527344 182.402344 C 101.03125 184.308594 107.78125 184.347656 114.054688 184.207031 C 120.332031 184.347656 127.078125 184.308594 133.582031 182.402344 C 134.050781 182.28125 134.519531 182.136719 134.984375 181.996094 C 141.320312 180.089844 147.125 176.425781 151.636719 169.136719 C 152.257812 169.085938 152.863281 169.007812 153.480469 168.953125 C 171.300781 167.578125 187.050781 164.757812 202.226562 157.570312 C 202.503906 157.4375 202.792969 157.300781 203.070312 157.164062 C 204.003906 156.71875 204.921875 156.238281 205.835938 155.761719 C 206.042969 155.65625 206.253906 155.542969 206.460938 155.433594 C 206.621094 155.347656 206.78125 155.257812 206.941406 155.175781 C 207.886719 154.664062 208.832031 154.136719 209.777344 153.589844 C 210.859375 152.960938 211.941406 152.316406 213.019531 151.636719 C 213.019531 151.625 213.019531 151.613281 213.019531 151.601562 C 205.925781 131.253906 194.246094 119.996094 180.300781 126.4375 C 174.476562 141.722656 163.175781 151 145.003906 152.816406 C 139.300781 140.070312 133.707031 129.375 114.054688 129.375 C 94.402344 129.375 88.808594 140.070312 83.105469 152.816406 C 64.933594 151 53.632812 141.722656 47.808594 126.4375 C 45.191406 125.226562 42.660156 124.648438 40.21875 124.628906 Z " id="path7"/>
    <path style=" stroke:none;fill-rule:nonzero;fill:rgb(13.72549%,11.764706%,5.490196%);fill-opacity:1;" d="M 70.855469 112.433594 C 69.730469 113.933594 69.050781 115.792969 69.050781 117.8125 C 69.050781 122.773438 73.085938 126.804688 78.042969 126.804688 C 82.558594 126.804688 86.257812 123.449219 86.882812 119.101562 Z " id="path9"/>
    <path style=" stroke:none;fill-rule:nonzero;fill:rgb(13.72549%,11.764706%,5.490196%);fill-opacity:1;" d="M 156.664062 112.433594 C 157.789062 113.933594 158.46875 115.792969 158.46875 117.8125 C 158.46875 122.773438 154.4375 126.804688 149.480469 126.804688 C 144.960938 126.804688 141.261719 123.449219 140.636719 119.101562 Z " id="path11"/>
    <path style=" stroke:none;fill-rule:nonzero;fill:rgb(13.72549%,11.764706%,5.490196%);fill-opacity:1;" d="M 95.746094 135.132812 C 98.171875 126.0625 131.84375 125.195312 135.304688 135.132812 C 138.265625 143.640625 124.558594 154.625 115.523438 154.648438 C 107.292969 154.671875 93.308594 144.246094 95.746094 135.132812 Z " id="path13"/>
    <path style=" stroke:none;fill-rule:nonzero;fill:rgb(58.039216%,57.647059%,53.72549%);fill-opacity:1;" d="M 34.039062 27.78125 C 43.78125 34.078125 53.253906 40.75 59.273438 52.09375 C 50.15625 60.640625 44.191406 67.726562 38.578125 79.191406 C 29.5625 55.898438 30.300781 40.480469 34.039062 27.78125 Z " id="path15"/>
    <path style=" stroke:none;fill-rule:nonzero;fill:rgb(58.039216%,57.647059%,53.72549%);fill-opacity:1;" d="M 192.660156 27.78125 C 182.917969 34.078125 173.445312 40.75 167.425781 52.09375 C 176.542969 60.640625 182.507812 67.726562 188.121094 79.191406 C 197.136719 55.898438 196.398438 40.480469 192.660156 27.78125 Z " id="path17"/>
    <path style=" stroke:none;fill-rule:nonzero;fill:rgb(58.039216%,57.647059%,53.72549%);fill-opacity:0.466667;" d="M 138.214844 74.441406 C 145.359375 70.886719 162.316406 79.414062 169.476562 88.324219 C 173.09375 94.605469 173.324219 100.511719 171.902344 106.234375 L 128.53125 123.917969 C 137.609375 110.9375 140.359375 94.160156 138.214844 74.441406 Z " id="path19"/>
    <path style=" stroke:none;fill-rule:nonzero;fill:rgb(58.039216%,57.647059%,53.72549%);fill-opacity:0.466667;" d="M 90.183594 74.441406 C 83.039062 70.886719 66.078125 79.414062 58.921875 88.324219 C 55.304688 94.605469 55.070312 100.511719 56.496094 106.234375 L 99.867188 123.917969 C 90.789062 110.9375 88.039062 94.160156 90.183594 74.441406 Z " id="path21"/>
  </g>
</svg>